<?xml version="1.0" encoding="utf-8"?>
<!-- Generator: Adobe Illustrator 19.0.0, SVG Export Plug-In . SVG Version: 6.00 Build 0)  -->
<svg version="1.1" id="layer" xmlns="http://www.w3.org/2000/svg" xmlns:xlink="http://www.w3.org/1999/xlink" x="0px" y="0px"
	 viewBox="-153 -46 652 652" style="enable-background:new -153 -46 652 652;" xml:space="preserve">
<style type="text/css">
	.st0{fill:#FFFFFF;}
	.st1{fill:none;stroke:#369B38;stroke-width:6.9784;stroke-miterlimit:2.613;}
	.st2{fill:#369B38;}
	.st3{fill:#F09800;}
	.st4{fill:#CF121B;}
</style>
<g>
	<path class="st0" d="M-2.6,25.5h343.2c40.9,0,74.3,33.5,74.3,74.5v351.1c0,41-33.4,74.5-74.3,74.5H-2.6
		c-40.9,0-74.3-33.5-74.3-74.5V100C-76.9,59-43.5,25.5-2.6,25.5"/>
	<path class="st1" d="M-2.6,25.5h343.2c40.9,0,74.3,33.5,74.3,74.5v351.1c0,41-33.4,74.5-74.3,74.5H-2.6
		c-40.9,0-74.3-33.5-74.3-74.5V100C-76.9,59-43.5,25.5-2.6,25.5z"/>
	<path class="st2" d="M285.8,62.8c22.7,0,41.1,18.4,41.1,41.2c0,22.7-18.4,41.2-41.1,41.2c-22.7,0-41.1-18.5-41.1-41.2
		C244.7,81.2,263.1,62.8,285.8,62.8"/>
	<path class="st3" d="M217.1,477.9c14.4-143.1,11.3-294.1-44.9-436c28.3,46.6,56.8,96.9,85.2,143.5c47.7-17.4,95.5-34.7,143.2-52.1
		c-142.6,85-151.3,222.2-59.2,375.7C289,435.5,238,425.2,217.1,477.9"/>
	<path class="st3" d="M48.6,62.8C25.9,62.8,7.5,81.2,7.5,104c0,22.7,18.4,41.2,41.1,41.2c22.7,0,41.1-18.5,41.1-41.2
		C89.7,81.2,71.3,62.8,48.6,62.8"/>
	<path class="st2" d="M120.9,477.9c-14.4-143.1-11.3-294.1,44.9-436c-28.3,46.6-56.8,96.9-85.2,143.5
		c-47.7-17.4-95.5-34.7-143.2-52.1c142.6,85,151.3,222.2,59.2,375.7C49,435.5,100,425.2,120.9,477.9"/>
	<path class="st4" d="M139.6,166.6h58.7v127.8c42.5-2,84.9-7.8,127.4-14.7v29.4v29.4c-42.5,7.4-84.9,13.8-127.4,15.9V489h-58.7
		V354.7c-42.5-2.1-84.9-8.4-127.4-16v-29.4v-29.4c42.5,7,84.9,12.8,127.4,14.7V166.6z"/>
	<path class="st0" d="M87.6,343.7c-3.2-0.4-6.5-0.8-9.7-1.2c-1.3-3.6-2.6-7.1-3.8-10.7c-5.9-0.8-11.8-1.5-17.6-2.3
		c-1.2,3.2-2.4,6.3-3.6,9.4c-3.2-0.5-6.3-1-9.4-1.5c2.8-6.8,5.7-13.6,8.6-20.5c2.9-7,5.7-14,8.6-21.1c3.1,0.2,6.3,0.5,9.4,0.8
		c2.9,7.7,5.9,15.6,8.8,23.4C81.7,327.8,84.7,335.8,87.6,343.7 M71.2,323.9c-1-2.9-2.1-5.8-3.1-8.7c-1-2.9-2-5.7-3-8.6
		c-1,2.7-2,5.3-3,8c-1,2.6-2,5.3-3,7.9C63.2,323,67.2,323.4,71.2,323.9 M127.2,347.4v-23.7V300c3,0.1,5.9,0.2,8.9,0.3v9.4v9.4
		c5.8,0.2,11.6,0.4,17.4,0.5v-9.4v-9.4c3,0,5.9,0.1,8.9,0.1v24v24c-3-0.1-6-0.1-8.9-0.2v-10.5v-10.5c-5.8-0.2-11.6-0.4-17.4-0.6
		v10.4v10.4C133.1,347.7,130.2,347.6,127.2,347.4 M208.8,348.1v-23.9v-23.9c4.7-0.2,9.5-0.3,14.3-0.5c5.4-0.2,8.9-0.1,10.6,0.2
		c2.5,0.6,4.6,1.9,6.4,4.2c1.7,2.2,2.6,5.2,2.6,8.9c0,2.9-0.5,5.3-1.5,7.3c-1,2-2.2,3.7-3.7,4.9c-1.5,1.2-3.1,2.1-4.6,2.6
		c-2.1,0.6-5.2,1-9.2,1.3c-1.9,0.1-3.9,0.3-5.8,0.4v9v9C214.8,347.8,211.8,347.9,208.8,348.1 M217.7,308.1v6.8v6.7
		c1.6-0.1,3.2-0.2,4.9-0.3c3.5-0.2,5.9-0.6,7.1-1.2c1.2-0.6,2.1-1.4,2.8-2.5c0.7-1.1,1-2.3,1-3.7c0-1.7-0.5-3.1-1.4-4.1
		c-0.9-1.1-2.1-1.7-3.6-1.9c-1.1-0.2-3.2-0.2-6.4,0C220.6,307.9,219.2,308,217.7,308.1 M285.7,339.1v-22v-22c3-0.3,5.9-0.6,8.9-0.9
		v21.6v21.6C291.6,338,288.6,338.6,285.7,339.1"/>
</g>
</svg>
