<?xml version="1.0" encoding="UTF-8"?>
<svg xmlns="http://www.w3.org/2000/svg" xmlns:xlink="http://www.w3.org/1999/xlink" width="323.13pt" height="74.52pt" viewBox="0 0 323.13 74.52" version="1.1">
<defs>
<clipPath id="clip1">
  <path d="M 29 11 L 77 11 L 77 74.519531 L 29 74.519531 Z M 29 11 "/>
</clipPath>
<clipPath id="clip2">
  <path d="M 298 22 L 323.128906 22 L 323.128906 48 L 298 48 Z M 298 22 "/>
</clipPath>
</defs>
<g id="surface1">
<path style=" stroke:none;fill-rule:nonzero;fill:rgb(17.999268%,36.898804%,61.599731%);fill-opacity:1;" d="M 215.851563 0.8125 C 216.53125 0.00390625 217.660156 0.09375 218.613281 0.0234375 C 221.851563 -0.0273438 225.09375 0.00390625 228.328125 0.132813 C 228.605469 4.503906 228.3125 8.882813 228.511719 13.261719 C 233.425781 13.367188 238.34375 13.136719 243.257813 13.378906 C 243.386719 17.023438 243.414063 20.675781 243.238281 24.324219 C 238.296875 24.519531 233.355469 24.363281 228.421875 24.410156 C 228.496094 30.542969 228.371094 36.679688 228.464844 42.8125 C 228.371094 44.609375 229.777344 46.167969 231.492188 46.527344 C 235.300781 47.363281 239.160156 46.324219 242.972656 46.007813 C 243.308594 49.703125 243.359375 53.425781 242.980469 57.121094 C 238.308594 58.125 233.5 58.222656 228.738281 58.003906 C 224.617188 57.765625 220.492188 55.800781 218.144531 52.335938 C 216.390625 49.910156 215.695313 46.882813 215.71875 43.925781 C 215.738281 31.675781 215.730469 19.425781 215.722656 7.175781 C 215.742188 5.054688 215.578125 2.921875 215.851563 0.8125 "/>
<g clip-path="url(#clip1)" clip-rule="nonzero">
<path style=" stroke:none;fill-rule:nonzero;fill:rgb(17.999268%,36.898804%,61.599731%);fill-opacity:1;" d="M 49.074219 25.085938 C 45.914063 26.714844 42.554688 29.410156 42.304688 33.230469 C 41.878906 36.441406 42.246094 39.957031 44.277344 42.601563 C 46.867188 46.089844 51.605469 47.386719 55.765625 46.609375 C 58.375 46.136719 60.398438 44.203125 62.0625 42.273438 C 64.628906 39.253906 64.566406 34.839844 63.515625 31.230469 C 61.636719 25.46875 54.464844 23.089844 49.074219 25.085938 Z M 49.882813 12.4375 C 54.8125 11.023438 60.214844 11.808594 64.761719 14.085938 C 71.136719 17.726563 75.828125 24.339844 76.785156 31.667969 C 76.96875 34.597656 77.042969 37.574219 76.625 40.492188 C 75.976563 43.582031 74.867188 46.59375 73.28125 49.320313 C 69.117188 55.347656 62.042969 59.546875 54.636719 59.511719 C 50.277344 59.53125 46.585938 57.046875 42.738281 55.386719 C 42.503906 61.757813 42.644531 68.140625 42.667969 74.519531 C 38.257813 74.390625 33.851563 74.515625 29.441406 74.441406 C 29.230469 54.039063 29.472656 33.636719 29.316406 13.234375 C 33.429688 13.207031 37.539063 13.234375 41.652344 13.203125 C 41.742188 14.242188 41.835938 15.273438 41.945313 16.3125 C 44.515625 14.882813 46.972656 13.128906 49.882813 12.4375 "/>
</g>
<path style=" stroke:none;fill-rule:nonzero;fill:rgb(17.999268%,36.898804%,61.599731%);fill-opacity:1;" d="M 135.199219 24.730469 C 130.976563 25.398438 127.140625 28.894531 126.761719 33.257813 C 126.675781 35.894531 126.347656 38.773438 127.703125 41.167969 C 130.867188 47.519531 140.605469 48.703125 145.453125 43.675781 C 150.152344 39.035156 149.523438 30.179688 144.082031 26.375 C 141.542969 24.539063 138.230469 24.0625 135.199219 24.730469 Z M 123.265625 15.65625 C 128.667969 11.867188 135.925781 10.679688 142.207031 12.824219 C 144.851563 13.449219 146.753906 15.507813 149.054688 16.816406 C 149.125 15.667969 149.191406 14.523438 149.269531 13.371094 C 153.242188 13.246094 157.222656 13.207031 161.1875 13.414063 C 161.300781 28.234375 161.316406 43.058594 161.175781 57.882813 C 157.039063 58.058594 152.902344 58.027344 148.765625 57.898438 C 148.632813 56.648438 148.507813 55.394531 148.382813 54.144531 C 144.832031 57.214844 140.375 59.539063 135.578125 59.515625 C 130.140625 59.398438 124.691406 57.214844 120.90625 53.261719 C 118.207031 50.773438 116.566406 47.425781 115.105469 44.121094 C 113.988281 41.542969 113.988281 38.675781 113.980469 35.921875 C 113.984375 33.078125 113.914063 30.148438 114.941406 27.445313 C 116.667969 22.917969 119.148438 18.414063 123.265625 15.65625 "/>
<path style=" stroke:none;fill-rule:nonzero;fill:rgb(17.999268%,36.898804%,61.599731%);fill-opacity:1;" d="M 186.589844 12.234375 C 195.597656 10.226563 205.496094 14.4375 210.640625 22.019531 C 207.328125 24.585938 203.859375 26.929688 200.515625 29.453125 C 198.511719 27.507813 196.550781 25.085938 193.621094 24.644531 C 190.546875 24.195313 187.101563 24.339844 184.566406 26.359375 C 179.605469 29.644531 178.777344 37.039063 181.78125 41.898438 C 185.152344 47.585938 194.257813 48.601563 198.710938 43.683594 C 199.480469 42.925781 200.226563 42.15625 200.976563 41.382813 C 204.152344 44.15625 207.992188 46.003906 211.246094 48.664063 C 209.460938 51.484375 206.734375 53.480469 204.136719 55.480469 C 199.707031 58.542969 194.140625 59.910156 188.789063 59.390625 C 176.984375 58.386719 166.804688 47.3125 167.269531 35.394531 C 167.21875 27.796875 171.238281 20.367188 177.425781 16.011719 C 180.222656 14.234375 183.351563 12.945313 186.589844 12.234375 "/>
<path style=" stroke:none;fill-rule:nonzero;fill:rgb(17.999268%,36.898804%,61.599731%);fill-opacity:1;" d="M 267.253906 24.8125 C 263.390625 26.125 259.535156 29.417969 259.402344 33.785156 C 259.09375 36.980469 259.4375 40.503906 261.578125 43.054688 C 265.769531 47.855469 274.433594 48.230469 278.492188 43.054688 C 282.757813 38.214844 281.867188 29.632813 276.359375 26.109375 C 273.722656 24.3125 270.285156 24.085938 267.253906 24.8125 Z M 266.214844 12.078125 C 275.039063 10.457031 284.660156 14.40625 289.707031 21.839844 C 293.269531 26.386719 294.289063 32.421875 293.9375 38.058594 C 293.550781 44.757813 289.75 50.933594 284.449219 54.917969 C 281.890625 56.949219 278.664063 57.785156 275.617188 58.785156 C 264.292969 61.863281 251.269531 54.835938 247.703125 43.632813 C 245.542969 36.613281 246.105469 28.472656 250.28125 22.28125 C 254.039063 17.007813 259.773438 13.121094 266.214844 12.078125 "/>
<path style=" stroke:none;fill-rule:nonzero;fill:rgb(17.999268%,36.898804%,61.599731%);fill-opacity:1;" d="M 100.714844 13.816406 C 103.808594 12.605469 107.222656 12.574219 110.464844 13.078125 C 110.824219 17.269531 110.746094 21.488281 110.539063 25.683594 C 107.109375 25.542969 103.433594 25.148438 100.253906 26.730469 C 97.351563 28.519531 95.84375 32.039063 95.855469 35.371094 C 95.757813 42.875 95.992188 50.375 95.765625 57.875 C 91.582031 58.0625 87.390625 58.027344 83.207031 57.898438 C 83.007813 46.136719 83.179688 34.375 83.125 22.613281 C 83.113281 19.539063 83.074219 16.460938 83.214844 13.382813 C 87.230469 13.238281 91.25 13.222656 95.269531 13.394531 C 95.324219 14.863281 95.375 16.332031 95.402344 17.800781 C 96.988281 16.257813 98.625 14.65625 100.714844 13.816406 "/>
<path style=" stroke:none;fill-rule:nonzero;fill:rgb(0%,68.998718%,93.299866%);fill-opacity:1;" d="M 9.621094 23 C 12.605469 22.59375 15.929688 22.417969 18.570313 24.128906 C 21.894531 25.941406 24.65625 29.308594 24.660156 33.238281 C 24.671875 35.867188 25.027344 38.753906 23.582031 41.101563 C 21.742188 44.167969 18.75 46.769531 15.125 47.320313 C 12.257813 47.671875 9.175781 47.597656 6.601563 46.121094 C 3.480469 44.511719 1.378906 41.402344 0.398438 38.097656 C -1.398438 31.703125 3.097656 24.308594 9.621094 23 "/>
<g clip-path="url(#clip2)" clip-rule="nonzero">
<path style=" stroke:none;fill-rule:nonzero;fill:rgb(0%,68.998718%,93.299866%);fill-opacity:1;" d="M 308.238281 23.207031 C 314.71875 21.527344 321.855469 26.441406 322.914063 32.980469 C 323.710938 36.964844 322.222656 41.179688 319.277344 43.933594 C 314.394531 49.390625 304.726563 47.972656 300.816406 42.054688 C 297.570313 37.496094 298.070313 30.691406 302.03125 26.710938 C 303.648438 24.898438 305.929688 23.835938 308.238281 23.207031 "/>
</g>
</g>
</svg>
