<?xml version="1.0" encoding="UTF-8" standalone="no"?>
<!-- Created with Inkscape (http://www.inkscape.org/) -->

<svg
   xmlns:dc="http://purl.org/dc/elements/1.1/"
   xmlns:cc="http://creativecommons.org/ns#"
   xmlns:rdf="http://www.w3.org/1999/02/22-rdf-syntax-ns#"
   xmlns:svg="http://www.w3.org/2000/svg"
   xmlns="http://www.w3.org/2000/svg"
   version="1.1"
   width="197.09"
   height="90.360001"
   id="svg4508">
  <defs
     id="defs4510" />
  <metadata
     id="metadata4513">
    <rdf:RDF>
      <cc:Work
         rdf:about="">
        <dc:format>image/svg+xml</dc:format>
        <dc:type
           rdf:resource="http://purl.org/dc/dcmitype/StillImage" />
        <dc:title></dc:title>
      </cc:Work>
    </rdf:RDF>
  </metadata>
  <g
     transform="translate(0,-962.00212)"
     id="layer1">
    <path
       d="m 196.91611,1044.944 -0.1125,-0.061 -1.28,0 0.2375,-1.1925 -0.007,-0.072 -0.0613,-0.059 -0.13375,-0.036 -0.22,-0.011 -0.225,0.011 -0.14875,0.036 -0.085,0.059 -0.0362,0.072 -0.24,1.1925 -0.7025,0 -0.125,0.061 -0.0875,0.15 -0.0487,0.1925 -0.0175,0.1813 0.0337,0.1412 0.0962,0.036 0.695,0 -0.56375,2.82 -0.0288,0.1663 -0.03,0.1787 -0.0175,0.17 -0.006,0.1475 c 0,0.2013 0.0237,0.3725 0.075,0.515 0.0513,0.1438 0.1275,0.2625 0.2325,0.3575 0.1025,0.094 0.23125,0.1638 0.3825,0.2088 0.15375,0.044 0.3325,0.066 0.54,0.066 l 0.26125,-0.016 0.24625,-0.048 0.2075,-0.07 0.1325,-0.078 0.0725,-0.1063 0.0563,-0.15 0.0362,-0.17 0.015,-0.1587 -0.0263,-0.1138 -0.0687,-0.031 -0.1075,0.025 -0.14125,0.053 -0.19125,0.054 -0.2625,0.025 c -0.17875,0 -0.30875,-0.044 -0.38875,-0.1312 -0.0788,-0.087 -0.1175,-0.225 -0.1175,-0.415 l 0.015,-0.24 0.0387,-0.2613 0.56375,-2.7975 1.2825,0 0.0875,-0.027 0.0712,-0.075 0.0563,-0.1087 0.0462,-0.1225 0.0213,-0.12 0.005,-0.1088 -0.0263,-0.1387 z m -4.59,0.1838 -0.18375,-0.1225 -0.29,-0.1113 c -0.1125,-0.034 -0.235,-0.061 -0.36625,-0.084 -0.13125,-0.022 -0.26875,-0.034 -0.41,-0.034 -0.3,0 -0.57375,0.043 -0.82,0.1275 -0.2475,0.086 -0.46,0.2063 -0.635,0.36 -0.17875,0.1538 -0.315,0.3363 -0.41,0.5463 -0.095,0.21 -0.145,0.4375 -0.145,0.6825 0,0.2375 0.05,0.4337 0.1475,0.5875 0.0975,0.1537 0.22125,0.2837 0.36625,0.39 0.14875,0.1062 0.3075,0.1975 0.4775,0.2762 0.17125,0.078 0.33,0.1563 0.47625,0.2363 0.14625,0.08 0.26875,0.1687 0.36625,0.2675 0.095,0.099 0.1425,0.2262 0.1425,0.3812 0,0.1238 -0.0225,0.24 -0.0687,0.3513 l -0.215,0.2925 c -0.095,0.084 -0.2175,0.1512 -0.36375,0.2012 -0.14625,0.05 -0.3225,0.075 -0.5275,0.075 -0.225,0 -0.415,-0.025 -0.56875,-0.075 -0.15125,-0.05 -0.27875,-0.1037 -0.38125,-0.1625 l -0.24625,-0.1612 -0.16375,-0.075 -0.0662,0.031 -0.055,0.08 -0.0475,0.1112 -0.0362,0.1288 -0.0213,0.1275 -0.007,0.1062 0.0212,0.1138 0.0638,0.092 0.205,0.1425 c 0.09,0.05 0.1975,0.095 0.32,0.1362 0.125,0.04 0.26375,0.074 0.42,0.1 0.15375,0.025 0.3175,0.039 0.4925,0.039 0.3325,0 0.6375,-0.045 0.90875,-0.1362 0.26875,-0.091 0.5,-0.2175 0.69125,-0.3788 0.1925,-0.1612 0.33875,-0.355 0.44125,-0.58 0.1025,-0.2237 0.15375,-0.4662 0.15375,-0.7262 0,-0.235 -0.0488,-0.4288 -0.14875,-0.5825 -0.0975,-0.1538 -0.22,-0.2863 -0.36625,-0.3963 -0.14875,-0.1087 -0.3075,-0.2025 -0.47875,-0.2775 -0.175,-0.076 -0.33375,-0.1537 -0.4825,-0.2312 -0.14875,-0.079 -0.27375,-0.1663 -0.37125,-0.265 -0.0975,-0.099 -0.14875,-0.2225 -0.14875,-0.3713 l 0.0675,-0.32 0.19625,-0.2725 c 0.085,-0.08 0.19,-0.1437 0.31625,-0.19 0.1275,-0.046 0.27125,-0.069 0.435,-0.069 0.17125,0 0.3175,0.017 0.4425,0.055 0.12625,0.037 0.23125,0.077 0.32125,0.1225 l 0.225,0.12 0.15875,0.052 0.0925,-0.061 0.0712,-0.15 0.0488,-0.1812 0.0175,-0.1475 -0.0613,-0.1725 z m -4.8975,-0.1 -0.01,-0.072 -0.0613,-0.056 -0.13375,-0.034 -0.22,-0.011 -0.23,0.011 -0.14875,0.034 -0.0825,0.056 -0.0337,0.072 -0.99625,5.0137 0.003,0.074 0.06,0.055 0.135,0.033 0.225,0.011 0.22625,-0.011 0.14625,-0.033 0.0838,-0.055 0.0387,-0.074 0.99875,-5.0137 z m 0.47375,-1.9475 -0.0588,-0.1725 -0.15625,-0.095 -0.26375,-0.025 -0.28625,0.025 -0.1925,0.095 -0.12375,0.1725 -0.0837,0.2587 -0.0213,0.2613 0.0563,0.17 0.15375,0.092 0.2675,0.028 0.28375,-0.028 0.195,-0.092 0.125,-0.17 0.0775,-0.2613 0.0275,-0.2587 z m -3.06375,-0.4825 -0.007,-0.078 -0.0588,-0.056 -0.1325,-0.034 -0.22125,-0.01 -0.23,0.01 -0.15125,0.034 -0.0825,0.056 -0.0375,0.078 -1.48125,7.4437 0.002,0.074 0.0637,0.055 0.13125,0.033 0.225,0.011 0.22625,-0.011 0.14875,-0.033 0.0837,-0.055 0.0387,-0.074 1.4825,-7.4437 z m -4.925,4.6575 c -0.0675,0.3275 -0.16875,0.6262 -0.3075,0.8975 -0.13625,0.2712 -0.295,0.5075 -0.47375,0.7075 -0.1775,0.2012 -0.37125,0.3575 -0.57625,0.4712 -0.205,0.1138 -0.4125,0.17 -0.615,0.17 -0.16125,0 -0.29,-0.033 -0.39,-0.098 l -0.2375,-0.2562 c -0.0563,-0.1063 -0.0975,-0.2238 -0.1175,-0.3513 -0.0187,-0.1287 -0.0312,-0.2575 -0.0312,-0.3875 0,-0.165 0.015,-0.3475 0.0438,-0.5512 0.0275,-0.205 0.0687,-0.4125 0.1275,-0.6238 0.0563,-0.2125 0.13125,-0.4175 0.22375,-0.6162 0.0888,-0.2 0.19875,-0.3763 0.3225,-0.5325 0.125,-0.155 0.26625,-0.2813 0.4275,-0.375 0.16375,-0.095 0.34375,-0.1425 0.545,-0.1425 0.25125,0 0.48,0.064 0.6825,0.1925 0.20375,0.1275 0.39125,0.32 0.565,0.5762 l -0.18875,0.9188 z m 1.365,-2.2338 -0.007,-0.072 -0.0538,-0.055 -0.12,-0.031 -0.1875,-0.01 c -0.14875,0 -0.25875,0.014 -0.3275,0.04 l -0.12875,0.1275 -0.105,0.5075 c -0.18625,-0.235 -0.39875,-0.4187 -0.6325,-0.5525 -0.23625,-0.1337 -0.52,-0.2 -0.85,-0.2 -0.33125,0 -0.6275,0.062 -0.88625,0.1863 -0.26125,0.125 -0.49,0.29 -0.68625,0.4962 -0.1975,0.2063 -0.36375,0.4375 -0.5025,0.6988 -0.14125,0.26 -0.25375,0.5275 -0.34125,0.8025 -0.0862,0.275 -0.15125,0.545 -0.18875,0.8087 -0.0387,0.2638 -0.0587,0.4988 -0.0587,0.7075 0,0.2263 0.02,0.4475 0.0637,0.6625 0.0437,0.215 0.1225,0.4088 0.2375,0.58 0.11375,0.17 0.27,0.3075 0.46375,0.4113 0.195,0.105 0.44125,0.1562 0.74,0.1562 0.21875,0 0.43375,-0.039 0.64625,-0.1162 0.21,-0.079 0.4025,-0.1763 0.57625,-0.2963 0.17125,-0.1187 0.3225,-0.2487 0.44875,-0.39 0.125,-0.1412 0.2125,-0.27 0.26125,-0.39 l -0.185,0.9475 0,0.081 0.0613,0.05 0.1175,0.03 0.185,0.011 c 0.15625,0 0.26625,-0.013 0.335,-0.039 l 0.12125,-0.1337 1.00375,-5.02 z m -6.32375,0.01 -0.009,-0.072 -0.0613,-0.056 -0.1325,-0.034 -0.21875,-0.011 -0.2325,0.011 -0.14875,0.034 -0.0838,0.056 -0.0337,0.072 -0.99625,5.0138 0.002,0.074 0.0613,0.055 0.13375,0.033 0.225,0.011 0.225,-0.011 0.14875,-0.033 0.0825,-0.055 0.04,-0.074 0.9975,-5.0138 z m 0.47375,-1.9475 -0.0588,-0.1725 -0.15625,-0.095 -0.26375,-0.025 -0.285,0.025 -0.1925,0.095 -0.125,0.1725 -0.0825,0.2588 -0.0225,0.2612 0.0538,0.17 0.15625,0.092 0.26875,0.027 0.2825,-0.027 0.19625,-0.092 0.12625,-0.17 0.0738,-0.2612 0.0288,-0.2588 z m -3.2175,2.2763 -0.1,-0.1238 -0.23,-0.1637 c -0.0975,-0.061 -0.2075,-0.1125 -0.32875,-0.1538 -0.12,-0.04 -0.2475,-0.072 -0.38625,-0.098 -0.13625,-0.024 -0.28,-0.036 -0.43,-0.036 -0.35875,0 -0.67875,0.06 -0.95625,0.1775 -0.27875,0.12 -0.525,0.2788 -0.7375,0.4775 -0.21,0.1988 -0.38875,0.4263 -0.5325,0.6825 -0.14625,0.2563 -0.26375,0.5213 -0.35875,0.7938 -0.0925,0.2737 -0.15875,0.545 -0.1975,0.8137 -0.0388,0.27 -0.0588,0.5175 -0.0588,0.7438 0,0.6025 0.14875,1.055 0.44375,1.36 0.29625,0.3037 0.7425,0.4562 1.34125,0.4562 0.18,0 0.35625,-0.017 0.5275,-0.053 0.1725,-0.035 0.33125,-0.08 0.4775,-0.1337 0.145,-0.054 0.27625,-0.115 0.38625,-0.1813 l 0.23375,-0.17 0.105,-0.1537 0.0613,-0.18 0.035,-0.19 0.0113,-0.1588 -0.0263,-0.12 -0.0687,-0.041 -0.205,0.089 c -0.08,0.06 -0.1775,0.1275 -0.3,0.2038 -0.12,0.076 -0.26625,0.1437 -0.44,0.2025 -0.1725,0.06 -0.38,0.09 -0.62,0.09 -0.33125,0 -0.57875,-0.099 -0.74625,-0.295 -0.16875,-0.1975 -0.2525,-0.4875 -0.2525,-0.87 0,-0.1413 0.0125,-0.3075 0.0375,-0.4988 0.0237,-0.1912 0.065,-0.3887 0.11875,-0.5925 0.0562,-0.205 0.13,-0.4075 0.2175,-0.6075 0.0888,-0.2012 0.2025,-0.38 0.3375,-0.5375 0.13625,-0.1587 0.295,-0.2862 0.47875,-0.385 0.185,-0.099 0.395,-0.1475 0.63375,-0.1475 0.215,0 0.39125,0.028 0.5325,0.084 0.14,0.055 0.25375,0.1163 0.345,0.1838 l 0.21875,0.1812 0.16125,0.08 0.12,-0.061 0.0925,-0.1525 0.0588,-0.1975 0.02,-0.2062 -0.02,-0.1113 z m -6.52875,1.13 c -0.065,0.1125 -0.1775,0.21 -0.33625,0.2925 -0.15625,0.084 -0.36625,0.15 -0.6275,0.1987 -0.26375,0.047 -0.58875,0.072 -0.97875,0.072 l -0.56875,0 c 0.0625,-0.2087 0.14625,-0.4062 0.24875,-0.5937 0.1025,-0.1875 0.225,-0.3525 0.36625,-0.4938 0.14375,-0.1412 0.3075,-0.2525 0.495,-0.3362 0.18375,-0.084 0.39875,-0.1263 0.64,-0.1263 0.27375,0 0.48625,0.059 0.635,0.1763 0.14875,0.1162 0.2225,0.27 0.2225,0.46 0,0.1225 -0.0325,0.2387 -0.0962,0.35 m 0.9425,-0.8825 c -0.06,-0.15 -0.16375,-0.2875 -0.3025,-0.41 -0.13875,-0.1225 -0.3175,-0.2225 -0.535,-0.3 -0.21625,-0.079 -0.4825,-0.1175 -0.795,-0.1175 -0.36375,0 -0.68875,0.057 -0.98,0.1725 -0.29,0.115 -0.54375,0.2675 -0.76625,0.4575 -0.22,0.1887 -0.41,0.4087 -0.57125,0.6575 -0.15875,0.2487 -0.29,0.5087 -0.39,0.78 -0.1,0.2712 -0.17375,0.545 -0.22,0.8212 -0.0462,0.2763 -0.0687,0.5363 -0.0687,0.7775 0,0.3125 0.0412,0.5825 0.1225,0.8138 0.0825,0.23 0.205,0.4225 0.37125,0.5762 0.16375,0.1538 0.37125,0.2688 0.62,0.3425 0.24875,0.074 0.53875,0.1113 0.86875,0.1113 0.18625,0 0.37125,-0.011 0.55875,-0.034 0.18375,-0.021 0.355,-0.05 0.51125,-0.086 0.15625,-0.035 0.29,-0.074 0.405,-0.1163 0.1125,-0.043 0.1925,-0.086 0.23625,-0.1312 l 0.0813,-0.1225 0.0588,-0.1538 0.0337,-0.1587 0.01,-0.1338 -0.025,-0.1025 -0.075,-0.036 -0.18375,0.053 c -0.09,0.036 -0.2025,0.074 -0.34375,0.115 -0.1375,0.04 -0.3025,0.079 -0.49125,0.1138 -0.19,0.035 -0.405,0.053 -0.64125,0.053 -0.41375,0 -0.71125,-0.098 -0.89375,-0.295 -0.18375,-0.1963 -0.27625,-0.4813 -0.27625,-0.8538 0,-0.099 0.005,-0.2062 0.0125,-0.3212 0.01,-0.115 0.0288,-0.235 0.0537,-0.3575 l 0.59,0 c 0.55,0 1.02125,-0.039 1.41625,-0.1163 0.39375,-0.079 0.7175,-0.19 0.97,-0.335 0.25125,-0.145 0.43625,-0.3187 0.55625,-0.5237 0.12,-0.2038 0.17875,-0.4338 0.17875,-0.69 0,-0.1488 -0.0325,-0.2988 -0.0962,-0.4488 m -6.95,1.6125 c -0.0275,0.2088 -0.0713,0.4188 -0.1325,0.63 -0.0613,0.2113 -0.13875,0.4163 -0.22875,0.6125 -0.0913,0.1975 -0.1975,0.3738 -0.3225,0.53 -0.125,0.155 -0.26875,0.28 -0.43,0.3725 -0.16125,0.094 -0.34125,0.14 -0.5375,0.14 -0.25125,0 -0.48,-0.065 -0.68,-0.1925 -0.20125,-0.1287 -0.38875,-0.3225 -0.5625,-0.5825 l 0.18375,-0.9187 c 0.0637,-0.3238 0.16375,-0.6213 0.305,-0.895 0.13875,-0.2725 0.2975,-0.5088 0.47625,-0.71 0.1775,-0.2 0.37125,-0.3563 0.57875,-0.4675 0.2075,-0.1125 0.4125,-0.1675 0.6125,-0.1675 0.14625,0 0.26625,0.026 0.36625,0.077 l 0.23875,0.2237 c 0.0613,0.096 0.105,0.2113 0.1325,0.345 0.0288,0.1338 0.0437,0.28 0.0437,0.44 0,0.1675 -0.015,0.355 -0.0437,0.5625 m 0.9275,-1.3337 c -0.0512,-0.2213 -0.13625,-0.4125 -0.25625,-0.5738 -0.1175,-0.1625 -0.27375,-0.2912 -0.46375,-0.3875 -0.19125,-0.096 -0.4275,-0.145 -0.71125,-0.145 -0.21875,0 -0.43375,0.039 -0.64625,0.1175 -0.21,0.077 -0.4025,0.1763 -0.57625,0.2975 -0.17375,0.1213 -0.3225,0.2513 -0.445,0.39 -0.12625,0.14 -0.21125,0.27 -0.265,0.3925 l 0.19,-0.9525 -0.007,-0.077 -0.0538,-0.054 -0.1175,-0.027 -0.19,-0.01 c -0.15625,0 -0.26625,0.014 -0.335,0.04 l -0.11125,0.1275 -1.40875,7.0088 0.009,0.079 0.0637,0.055 0.1375,0.034 0.21375,0.011 0.23,-0.011 0.14875,-0.034 0.0813,-0.055 0.0362,-0.079 0.47375,-2.4063 0.26625,0.2638 c 0.0975,0.08 0.2025,0.15 0.3175,0.21 0.11625,0.059 0.24125,0.105 0.38,0.1387 0.1375,0.034 0.28875,0.05 0.455,0.05 0.32875,0 0.62,-0.06 0.87875,-0.1812 0.25875,-0.12 0.485,-0.2813 0.68125,-0.4813 0.1975,-0.2012 0.36625,-0.43 0.505,-0.6887 0.13875,-0.2575 0.25375,-0.5238 0.34375,-0.7988 0.0888,-0.275 0.15375,-0.5475 0.19375,-0.8162 0.0412,-0.27 0.0625,-0.5125 0.0625,-0.7275 0,-0.2525 -0.0263,-0.4888 -0.08,-0.71 m -5.86625,-2.4963 -0.0713,-0.1037 -0.19,-0.125 c -0.0937,-0.05 -0.205,-0.096 -0.335,-0.1388 -0.12875,-0.043 -0.27375,-0.079 -0.4375,-0.1087 -0.16,-0.03 -0.33125,-0.045 -0.5075,-0.045 -0.37375,0 -0.7075,0.056 -1.01,0.1675 -0.30125,0.1112 -0.5575,0.2637 -0.7675,0.4562 -0.2125,0.1938 -0.375,0.4188 -0.49,0.675 -0.1175,0.2563 -0.17375,0.5313 -0.17375,0.8238 0,0.2425 0.0362,0.4525 0.1075,0.6325 0.0737,0.18 0.16625,0.34 0.28125,0.48 0.11625,0.1387 0.24875,0.2612 0.3975,0.3675 0.14875,0.105 0.3,0.205 0.45375,0.2975 0.15375,0.094 0.305,0.1825 0.45625,0.2675 0.15,0.086 0.28375,0.1787 0.39875,0.2787 0.115,0.1 0.2075,0.2125 0.27875,0.3375 0.07,0.1225 0.10625,0.27 0.10625,0.4375 0,0.1888 -0.0388,0.3675 -0.11125,0.535 -0.0762,0.1663 -0.18125,0.3125 -0.3225,0.4363 -0.1375,0.1237 -0.31,0.2237 -0.515,0.2962 -0.2025,0.072 -0.435,0.1088 -0.69625,0.1088 -0.24375,0 -0.45875,-0.03 -0.64,-0.09 -0.1825,-0.059 -0.33875,-0.1238 -0.47125,-0.1925 -0.13125,-0.067 -0.24125,-0.1325 -0.33125,-0.1913 l -0.2225,-0.09 -0.0875,0.036 -0.0662,0.095 -0.0488,0.1288 -0.0362,0.1412 -0.0275,0.1338 -0.007,0.095 0.0737,0.2112 0.23375,0.165 c 0.1075,0.061 0.24,0.12 0.39375,0.1775 0.15625,0.059 0.33375,0.1063 0.5275,0.145 0.195,0.04 0.405,0.059 0.63375,0.059 0.41375,0 0.79125,-0.06 1.12875,-0.1812 0.33875,-0.12 0.6275,-0.2838 0.86625,-0.49 0.24,-0.2063 0.425,-0.4475 0.555,-0.7238 0.13125,-0.2775 0.195,-0.5737 0.195,-0.8887 0,-0.2375 -0.035,-0.4475 -0.1075,-0.6275 -0.0738,-0.18 -0.16875,-0.34 -0.28375,-0.4788 -0.11875,-0.1387 -0.25375,-0.2625 -0.405,-0.3675 -0.15125,-0.1062 -0.3075,-0.205 -0.46125,-0.2987 -0.15625,-0.093 -0.31,-0.1838 -0.46125,-0.2725 -0.14875,-0.089 -0.28375,-0.1838 -0.40125,-0.2838 -0.11625,-0.1012 -0.21125,-0.2125 -0.2825,-0.335 -0.0737,-0.1225 -0.11,-0.265 -0.11,-0.4287 0,-0.16 0.0288,-0.3138 0.0875,-0.4625 0.0562,-0.1488 0.1425,-0.2813 0.25875,-0.3988 0.115,-0.1162 0.25875,-0.21 0.4275,-0.2787 0.17125,-0.068 0.37125,-0.1025 0.59625,-0.1025 0.205,0 0.385,0.024 0.54125,0.072 0.15625,0.049 0.29125,0.099 0.40375,0.1525 0.11375,0.055 0.2075,0.105 0.28,0.1537 l 0.16875,0.072 0.08,-0.034 0.0637,-0.086 0.0487,-0.1225 0.0325,-0.1337 0.0212,-0.1225 0.005,-0.1025 -0.0237,-0.1313 z m -12.86125,3.6563 c 0.009,-0.2025 0.0437,-0.3988 0.10625,-0.5863 0.0637,-0.1875 0.155,-0.3525 0.26875,-0.4937 0.1175,-0.1413 0.26125,-0.2538 0.4325,-0.34 0.17125,-0.085 0.37125,-0.1275 0.60125,-0.1275 0.44375,0 0.78125,0.1375 1.005,0.4125 0.225,0.275 0.3325,0.6537 0.3225,1.135 l -2.73625,0 z m 3.66125,0.1075 c 0,-0.3275 -0.0412,-0.635 -0.12625,-0.9225 -0.0838,-0.2875 -0.215,-0.5388 -0.39125,-0.7525 -0.18,-0.2125 -0.4075,-0.3825 -0.68375,-0.51 -0.2775,-0.125 -0.6125,-0.1888 -1.005,-0.1888 -0.36875,0 -0.70125,0.064 -0.99875,0.1925 -0.29625,0.1275 -0.55,0.3113 -0.76,0.5513 -0.21,0.24 -0.36875,0.5312 -0.4825,0.875 -0.11,0.3437 -0.16625,0.73 -0.16625,1.1612 0,0.4538 0.0537,0.8513 0.16125,1.1925 0.1075,0.3413 0.26875,0.6263 0.47875,0.8525 0.21375,0.2263 0.4725,0.3975 0.785,0.5125 0.31125,0.115 0.67,0.1725 1.0825,0.1725 0.23875,0 0.46125,-0.018 0.67125,-0.053 0.21,-0.035 0.395,-0.075 0.55375,-0.12 0.16125,-0.045 0.29125,-0.09 0.39125,-0.1362 l 0.18,-0.1 0.0513,-0.065 0.0275,-0.075 0.0137,-0.095 0.005,-0.125 -0.007,-0.17 -0.0263,-0.1088 -0.0462,-0.059 -0.0712,-0.019 -0.1975,0.059 c -0.0875,0.039 -0.2,0.083 -0.3375,0.13 -0.13625,0.049 -0.2975,0.092 -0.4825,0.1313 -0.18625,0.039 -0.40125,0.059 -0.64,0.059 -0.3025,0 -0.55625,-0.043 -0.76625,-0.1288 -0.21,-0.085 -0.37875,-0.2075 -0.5075,-0.3675 -0.1325,-0.1587 -0.225,-0.3512 -0.28125,-0.5737 -0.0563,-0.2225 -0.085,-0.4738 -0.085,-0.7525 l 3.3025,0 0.24875,-0.091 c 0.0737,-0.061 0.11,-0.1663 0.11,-0.31 l 0,-0.1663 z m -5.96375,1.9362 -0.0275,-0.1337 -0.0487,-0.075 -0.0662,-0.022 -0.1875,0.097 c -0.08,0.065 -0.17625,0.1375 -0.295,0.2175 -0.1175,0.079 -0.25375,0.1525 -0.415,0.22 -0.15875,0.066 -0.345,0.1 -0.5575,0.1 -0.22125,0 -0.42,-0.04 -0.5925,-0.12 -0.17375,-0.08 -0.3175,-0.2013 -0.4375,-0.365 -0.1175,-0.1638 -0.21,-0.3663 -0.27125,-0.61 -0.06,-0.2438 -0.09,-0.5263 -0.09,-0.85 0,-0.6463 0.1175,-1.1388 0.35375,-1.4788 0.235,-0.34 0.57375,-0.51 1.01625,-0.51 0.215,0 0.4025,0.031 0.55875,0.092 0.15875,0.061 0.2925,0.1288 0.405,0.2025 l 0.27625,0.2025 0.1925,0.092 0.1225,-0.086 c 0.0337,-0.058 0.0488,-0.16 0.0488,-0.3037 l -0.005,-0.1663 -0.0213,-0.12 -0.0425,-0.092 -0.0925,-0.1062 -0.215,-0.1613 c -0.0975,-0.062 -0.21,-0.1187 -0.33625,-0.1662 -0.125,-0.049 -0.26375,-0.089 -0.415,-0.1175 -0.15125,-0.03 -0.305,-0.045 -0.46625,-0.045 -0.33,0 -0.6375,0.055 -0.92125,0.165 -0.285,0.11 -0.53,0.2775 -0.74125,0.5037 -0.21,0.2275 -0.37375,0.5175 -0.49625,0.8725 -0.12,0.355 -0.18,0.7788 -0.18,1.2725 0,0.435 0.0488,0.8188 0.14625,1.1513 0.1,0.3325 0.24125,0.6125 0.43125,0.8412 0.18625,0.2288 0.42,0.4025 0.69875,0.5213 0.27875,0.1187 0.59625,0.1775 0.9575,0.1775 0.175,0 0.34375,-0.016 0.5075,-0.05 0.16375,-0.034 0.315,-0.077 0.45375,-0.1313 0.14,-0.054 0.26375,-0.115 0.37625,-0.1837 l 0.23625,-0.1725 0.0888,-0.1063 0.0337,-0.082 0.02,-0.1175 0.005,-0.165 -0.008,-0.1912 z m -5.73,-2.1037 c 0,-0.3563 -0.03,-0.6625 -0.09,-0.9163 -0.0637,-0.255 -0.16375,-0.4762 -0.30625,-0.6662 -0.14125,-0.1888 -0.32625,-0.34 -0.55375,-0.4538 -0.2275,-0.1137 -0.51,-0.17 -0.845,-0.17 -0.285,0 -0.56875,0.074 -0.84875,0.22 -0.28125,0.1463 -0.5625,0.3775 -0.845,0.6938 l 0,-0.6625 -0.02,-0.076 -0.0637,-0.055 -0.12375,-0.034 -0.205,-0.01 -0.205,0.01 -0.1275,0.034 -0.0688,0.055 -0.0162,0.076 0,5.0137 0.0212,0.074 0.0713,0.055 0.14125,0.033 0.2225,0.011 0.23,-0.011 0.13875,-0.033 0.0725,-0.055 0.0225,-0.074 0,-3.505 c 0.25125,-0.315 0.49625,-0.555 0.725,-0.7175 0.23,-0.1637 0.45875,-0.2462 0.69125,-0.2462 0.1775,0 0.33375,0.034 0.46875,0.1012 0.13625,0.066 0.24625,0.1625 0.33125,0.2888 0.0863,0.1262 0.1525,0.2775 0.19625,0.4512 0.0438,0.175 0.0675,0.405 0.0675,0.6913 l 0,2.9362 0.0225,0.074 0.0713,0.055 0.13875,0.033 0.23,0.011 0.22125,-0.011 0.14,-0.033 0.0725,-0.055 0.0225,-0.074 0,-3.0587 z m -7.37625,1.8387 c -0.22625,0.2525 -0.44375,0.44 -0.64875,0.5625 -0.2075,0.1225 -0.43,0.1838 -0.67125,0.1838 -0.29875,0 -0.53,-0.077 -0.69375,-0.2325 -0.16625,-0.1538 -0.24875,-0.36 -0.24875,-0.62 0,-0.1525 0.0288,-0.2863 0.0875,-0.4038 0.0562,-0.1162 0.14625,-0.2175 0.26875,-0.3012 0.1225,-0.082 0.27625,-0.1463 0.46375,-0.1888 0.18375,-0.043 0.405,-0.064 0.65625,-0.064 l 0.78625,0 0,1.0638 z m 0.91375,-2.1562 c 0,-0.3125 -0.0362,-0.585 -0.105,-0.8188 -0.0713,-0.2337 -0.18625,-0.43 -0.34,-0.5875 -0.15625,-0.1587 -0.36125,-0.2787 -0.615,-0.36 -0.25125,-0.081 -0.55875,-0.1225 -0.9175,-0.1225 -0.195,0 -0.38625,0.017 -0.57375,0.053 -0.19125,0.036 -0.36375,0.08 -0.525,0.1338 -0.15875,0.054 -0.3,0.1137 -0.4225,0.1787 -0.1225,0.065 -0.21,0.1213 -0.25875,0.17 l -0.095,0.1525 -0.02,0.2213 0.01,0.1525 0.0363,0.1137 0.0587,0.067 0.0787,0.023 0.2025,-0.081 c 0.0925,-0.054 0.205,-0.1125 0.34125,-0.1775 0.135,-0.065 0.29375,-0.125 0.47375,-0.1787 0.17875,-0.054 0.38375,-0.081 0.61,-0.081 0.21,0 0.38875,0.025 0.535,0.075 0.14375,0.051 0.26125,0.125 0.35375,0.2237 0.0913,0.098 0.15625,0.2213 0.19625,0.37 0.0413,0.1488 0.0625,0.32 0.0625,0.5125 l 0,0.39 -0.69,0 c -0.39125,0 -0.7425,0.035 -1.055,0.1038 -0.31,0.069 -0.57625,0.1712 -0.79125,0.3087 -0.215,0.1375 -0.37875,0.31 -0.495,0.5188 -0.115,0.2075 -0.17375,0.4525 -0.17375,0.735 0,0.2412 0.0438,0.4562 0.12625,0.6462 0.0837,0.1888 0.20125,0.3488 0.35,0.4788 0.15125,0.13 0.33375,0.23 0.54625,0.2987 0.215,0.069 0.4525,0.1025 0.71625,0.1025 0.3025,0 0.5875,-0.065 0.85625,-0.195 0.26875,-0.13 0.5125,-0.3112 0.7325,-0.5462 l 0,0.5025 0.0387,0.1 0.125,0.05 0.23125,0.016 0.23,-0.016 0.1225,-0.05 0.0437,-0.1 0,-3.3825 z m -5.05125,-1.5125 -0.01,-0.115 -0.02,-0.064 -0.0438,-0.053 -0.115,-0.056 -0.18,-0.05 -0.1925,-0.03 -0.16625,-0.01 -0.32,0.041 -0.32,0.1512 c -0.1075,0.072 -0.2225,0.1713 -0.34125,0.2975 -0.1225,0.1263 -0.25,0.29 -0.38875,0.49 l 0,-0.7287 -0.02,-0.076 -0.0625,-0.055 -0.125,-0.034 -0.205,-0.01 -0.205,0.01 -0.1275,0.034 -0.0675,0.055 -0.0175,0.076 0,5.0137 0.02,0.074 0.0725,0.055 0.1425,0.033 0.22125,0.011 0.23,-0.011 0.13875,-0.033 0.0712,-0.055 0.0238,-0.074 0,-3.2987 c 0.13,-0.2038 0.2475,-0.3775 0.3575,-0.5175 0.10625,-0.1413 0.20875,-0.255 0.3075,-0.34 l 0.2825,-0.1838 0.27125,-0.056 0.2175,0.023 0.1825,0.048 0.145,0.05 0.10875,0.025 0.0687,-0.025 0.0413,-0.072 0.0225,-0.1312 0.005,-0.205 -0.002,-0.2038 z m -5.08375,-0.125 -0.0238,-0.076 -0.0763,-0.055 -0.13875,-0.034 -0.2225,-0.01 -0.22625,0.01 -0.1425,0.034 -0.075,0.055 -0.02,0.076 0,3.5037 c -0.25625,0.3163 -0.4975,0.555 -0.725,0.7188 -0.22875,0.1637 -0.45875,0.245 -0.68875,0.245 -0.18,0 -0.33375,-0.034 -0.46875,-0.1025 -0.13375,-0.069 -0.24375,-0.165 -0.33125,-0.29 -0.0863,-0.1238 -0.15125,-0.275 -0.19625,-0.4513 -0.0412,-0.1762 -0.0625,-0.4112 -0.0625,-0.705 l 0,-2.9187 -0.0225,-0.076 -0.075,-0.055 -0.1425,-0.034 -0.22375,-0.01 -0.2225,0.01 -0.14375,0.034 -0.0763,0.055 -0.02,0.076 0,3.0412 c 0,0.3638 0.0325,0.6738 0.0937,0.9275 0.06,0.255 0.16375,0.4775 0.3025,0.6688 0.14125,0.19 0.3275,0.3425 0.55375,0.4537 0.23,0.1125 0.51,0.1675 0.845,0.1675 0.28625,0 0.56875,-0.072 0.8475,-0.2175 0.2775,-0.145 0.56125,-0.375 0.84625,-0.69 l 0,0.6625 0.0175,0.074 0.0638,0.055 0.12875,0.033 0.2075,0.011 0.19875,-0.011 0.13125,-0.033 0.0688,-0.055 0.0187,-0.074 0,-5.0137 z m -6.17375,3.0912 c -0.0738,-0.155 -0.16875,-0.2887 -0.2875,-0.4012 -0.12,-0.1113 -0.255,-0.2063 -0.40875,-0.2838 -0.15625,-0.079 -0.3125,-0.1487 -0.46875,-0.2112 -0.15875,-0.064 -0.3125,-0.125 -0.46625,-0.1838 -0.15125,-0.06 -0.2875,-0.1262 -0.4075,-0.2012 -0.1175,-0.074 -0.215,-0.16 -0.2875,-0.2588 -0.0763,-0.099 -0.1125,-0.22 -0.1125,-0.365 l 0.0587,-0.29 0.1725,-0.2312 c 0.0763,-0.065 0.17375,-0.115 0.29375,-0.15 0.11875,-0.035 0.25625,-0.053 0.41,-0.053 0.175,0 0.33125,0.02 0.46625,0.061 0.13625,0.04 0.25375,0.084 0.35375,0.13 l 0.24625,0.1312 0.145,0.061 0.06,-0.02 0.0475,-0.064 0.0288,-0.1137 0.007,-0.165 -0.007,-0.15 -0.0175,-0.1025 -0.0288,-0.076 -0.0763,-0.078 -0.1725,-0.1038 -0.27625,-0.1075 c -0.1075,-0.034 -0.23,-0.061 -0.36375,-0.084 -0.1325,-0.023 -0.26625,-0.034 -0.4,-0.034 -0.30375,0 -0.57125,0.041 -0.79875,0.1225 -0.23,0.081 -0.42,0.19 -0.57125,0.3263 -0.15375,0.135 -0.26625,0.2937 -0.3425,0.4737 -0.0775,0.18 -0.11625,0.3688 -0.11625,0.565 0,0.2225 0.0363,0.4138 0.11,0.5738 0.0725,0.16 0.1675,0.2975 0.2875,0.4125 0.1175,0.115 0.25375,0.2125 0.4025,0.2925 0.15125,0.08 0.305,0.1512 0.46375,0.215 0.15625,0.062 0.31,0.1225 0.46,0.18 0.14625,0.059 0.28,0.1237 0.4,0.1987 0.12,0.074 0.215,0.1588 0.2875,0.2563 0.0712,0.096 0.1075,0.215 0.1075,0.3562 0,0.1375 -0.0237,0.2563 -0.075,0.3563 l -0.215,0.2487 c -0.0925,0.065 -0.2025,0.1138 -0.3275,0.1475 -0.12625,0.033 -0.26875,0.05 -0.4225,0.05 -0.21,0 -0.3925,-0.025 -0.55375,-0.075 -0.15875,-0.05 -0.2975,-0.105 -0.415,-0.165 -0.115,-0.059 -0.215,-0.1137 -0.295,-0.1637 l -0.18125,-0.075 -0.0687,0.019 -0.0463,0.064 -0.0288,0.1175 -0.0125,0.1787 c 0,0.115 0.01,0.2063 0.03,0.2725 l 0.0875,0.1563 0.195,0.125 c 0.09,0.046 0.1975,0.091 0.3275,0.1337 0.12625,0.043 0.27375,0.077 0.43375,0.1063 0.16125,0.026 0.33,0.041 0.50875,0.041 0.29,0 0.55625,-0.035 0.7975,-0.1063 0.2425,-0.07 0.45,-0.1737 0.625,-0.3112 0.17375,-0.1375 0.3075,-0.3063 0.40375,-0.5075 0.095,-0.2 0.14125,-0.4288 0.14125,-0.685 0,-0.215 -0.0363,-0.4013 -0.1075,-0.5575 m -5.17375,-1.1363 c 0,-0.3562 -0.0312,-0.6625 -0.0925,-0.9162 -0.0613,-0.255 -0.16125,-0.4763 -0.3025,-0.6663 -0.14125,-0.1887 -0.3275,-0.34 -0.55625,-0.4537 -0.2275,-0.1138 -0.50875,-0.17 -0.8425,-0.17 -0.28625,0 -0.56875,0.074 -0.85,0.22 -0.28125,0.1462 -0.56125,0.3775 -0.845,0.6937 l 0,-0.6625 -0.0187,-0.076 -0.0637,-0.055 -0.125,-0.034 -0.205,-0.01 -0.205,0.01 -0.12875,0.034 -0.0663,0.055 -0.0175,0.076 0,5.0138 0.02,0.074 0.0725,0.055 0.1425,0.033 0.22375,0.011 0.2275,-0.011 0.13875,-0.033 0.0738,-0.055 0.0225,-0.074 0,-3.505 c 0.25125,-0.315 0.4925,-0.555 0.7225,-0.7175 0.23125,-0.1638 0.46125,-0.2463 0.6925,-0.2463 0.17625,0 0.335,0.034 0.46875,0.1013 0.1375,0.066 0.2475,0.1625 0.3325,0.2887 0.085,0.1263 0.15125,0.2775 0.195,0.4513 0.0438,0.175 0.0663,0.405 0.0663,0.6912 l 0,2.9363 0.0225,0.074 0.0725,0.055 0.13875,0.033 0.23,0.011 0.2225,-0.011 0.13875,-0.033 0.0738,-0.055 0.0213,-0.074 0,-3.0588 z m -6.58625,-3.8662 -0.0225,-0.079 -0.0775,-0.053 -0.14625,-0.034 -0.2325,-0.014 -0.22,0.014 -0.14875,0.034 -0.085,0.053 -0.025,0.079 0,6.92 0.0225,0.077 0.0775,0.053 0.15125,0.034 0.2275,0.014 0.2325,-0.014 0.14625,-0.034 0.0775,-0.053 0.0225,-0.077 0,-6.92 z m -6.285,3.8725 c 0,-0.3613 -0.0312,-0.6688 -0.0925,-0.9225 -0.0613,-0.255 -0.16375,-0.4763 -0.305,-0.6663 -0.14125,-0.1887 -0.325,-0.34 -0.55375,-0.4537 -0.2275,-0.1138 -0.50875,-0.17 -0.845,-0.17 -0.27125,0 -0.54,0.068 -0.80625,0.2037 -0.267496,0.135 -0.533746,0.3425 -0.797496,0.6213 l 0,-3.0038 -0.0225,-0.077 -0.0725,-0.056 -0.14,-0.034 -0.22625,-0.01 -0.225,0.01 -0.14125,0.034 -0.0713,0.056 -0.02,0.077 0,7.4438 0.02,0.074 0.0713,0.055 0.14125,0.033 0.225,0.011 0.22625,-0.011 0.14,-0.033 0.0725,-0.055 0.0225,-0.074 0,-3.505 c 0.25375,-0.315 0.495,-0.555 0.724996,-0.7175 0.22875,-0.1638 0.45875,-0.2463 0.69125,-0.2463 0.1775,0 0.33375,0.034 0.47,0.1013 0.135,0.066 0.245,0.1625 0.3325,0.2887 0.085,0.1263 0.14875,0.2775 0.195,0.4513 0.045,0.175 0.0663,0.405 0.0663,0.6912 l 0,2.9363 0.0225,0.074 0.0725,0.055 0.1375,0.033 0.22875,0.011 0.2225,-0.011 0.14125,-0.033 0.0712,-0.055 0.0238,-0.074 0,-3.0525 z m -6.002496,2.5175 -0.025,-0.1063 -0.0387,-0.053 -0.0513,-0.014 -0.1,0.025 -0.135,0.053 -0.1775,0.054 -0.23,0.025 c -0.26375,0 -0.44625,-0.089 -0.54875,-0.265 -0.1025,-0.1762 -0.15125,-0.4375 -0.15125,-0.7825 l 0,-2.7975 1.28625,0 0.13375,-0.089 c 0.0325,-0.06 0.0487,-0.1562 0.0487,-0.29 l -0.0113,-0.1775 -0.035,-0.12 -0.0588,-0.068 -0.0775,-0.019 -1.28625,0 0,-1.1925 -0.0225,-0.072 -0.0725,-0.059 -0.14,-0.036 -0.22625,-0.011 -0.225,0.011 -0.14125,0.036 -0.0738,0.059 -0.02,0.072 0,1.1925 -0.695,0 -0.0813,0.019 -0.0588,0.068 -0.0362,0.12 -0.0125,0.1775 c 0,0.1338 0.015,0.23 0.0487,0.29 l 0.135,0.089 0.7,0 0,2.9313 c 0,0.2887 0.0275,0.5412 0.0812,0.755 0.0538,0.2137 0.14125,0.39 0.25875,0.5287 0.12,0.14 0.27125,0.2438 0.45875,0.3125 0.185,0.069 0.4075,0.1025 0.66625,0.1025 l 0.25875,-0.016 0.24,-0.043 0.205,-0.064 0.13375,-0.084 0.0662,-0.1387 0.0213,-0.2563 -0.0113,-0.1675 z m -4.75125,-6.9088 -0.0225,-0.077 -0.0725,-0.056 -0.1375,-0.034 -0.22875,-0.01 -0.2225,0.01 -0.14375,0.034 -0.0712,0.056 -0.0188,0.077 0,7.4438 0.0188,0.074 0.0712,0.055 0.14375,0.033 0.2225,0.011 0.22875,-0.011 0.1375,-0.033 0.0725,-0.055 0.0225,-0.074 0,-7.4438 z m -3.9775,6.2238 c -0.22625,0.2525 -0.44375,0.44 -0.64875,0.5625 -0.2075,0.1225 -0.43,0.1837 -0.67125,0.1837 -0.29875,0 -0.53,-0.078 -0.69375,-0.2325 -0.16625,-0.1537 -0.24875,-0.36 -0.24875,-0.62 0,-0.1525 0.0288,-0.2862 0.0875,-0.4037 0.0563,-0.1163 0.14625,-0.2175 0.26875,-0.3013 0.12375,-0.082 0.27875,-0.1462 0.46375,-0.1887 0.185,-0.043 0.405,-0.064 0.65625,-0.064 l 0.78625,0 0,1.0637 z m 0.91375,-2.1563 c 0,-0.3125 -0.035,-0.585 -0.105,-0.8187 -0.0713,-0.2338 -0.18375,-0.43 -0.34,-0.5875 -0.15625,-0.1588 -0.36125,-0.2788 -0.6125,-0.36 -0.25375,-0.081 -0.55875,-0.1225 -0.92,-0.1225 -0.19375,0 -0.38375,0.018 -0.57375,0.053 -0.18875,0.036 -0.36375,0.08 -0.525,0.1337 -0.15875,0.054 -0.3,0.1138 -0.4225,0.1788 -0.1225,0.065 -0.21,0.1212 -0.25875,0.17 l -0.095,0.1525 -0.02,0.2212 0.0125,0.1525 0.0363,0.1138 0.0587,0.067 0.0763,0.023 0.205,-0.081 c 0.09,-0.054 0.2025,-0.1125 0.33875,-0.1775 0.135,-0.065 0.2925,-0.125 0.47375,-0.1788 0.17875,-0.054 0.38375,-0.081 0.61,-0.081 0.2125,0 0.38875,0.025 0.535,0.075 0.14375,0.051 0.26375,0.125 0.35375,0.2238 0.0913,0.098 0.15625,0.2212 0.1975,0.37 0.04,0.1487 0.0612,0.32 0.0612,0.5125 l 0,0.39 -0.69,0 c -0.39125,0 -0.7425,0.035 -1.0525,0.1037 -0.3125,0.069 -0.57625,0.1713 -0.79125,0.3088 -0.2175,0.1375 -0.38125,0.31 -0.49625,0.5187 -0.11625,0.2075 -0.1725,0.4525 -0.1725,0.735 0,0.2413 0.0412,0.4563 0.12375,0.6463 0.0838,0.1887 0.20125,0.3487 0.3525,0.4787 0.14875,0.13 0.33125,0.23 0.54625,0.2988 0.2125,0.069 0.45125,0.1025 0.715,0.1025 0.30125,0 0.58625,-0.065 0.855,-0.195 0.26875,-0.13 0.5125,-0.3113 0.7325,-0.5463 l 0,0.5025 0.0387,0.1 0.125,0.05 0.23125,0.016 0.23,-0.016 0.1225,-0.05 0.0437,-0.1 0,-3.3825 z m -9.2925,0.3775 c 0.007,-0.2025 0.0437,-0.3987 0.105,-0.5862 0.0638,-0.1875 0.15375,-0.3525 0.27125,-0.4938 0.115,-0.1412 0.25875,-0.2537 0.43,-0.34 0.1725,-0.085 0.37375,-0.1275 0.6,-0.1275 0.445,0 0.78125,0.1375 1.00625,0.4125 0.22625,0.275 0.33375,0.6538 0.3225,1.135 l -2.735,0 z m 3.66,0.1075 c 0,-0.3275 -0.0412,-0.635 -0.125,-0.9225 -0.0825,-0.2875 -0.215,-0.5387 -0.3925,-0.7525 -0.17875,-0.2125 -0.405,-0.3825 -0.68375,-0.51 -0.27625,-0.125 -0.61,-0.1887 -1.00375,-0.1887 -0.36875,0 -0.7025,0.064 -0.99875,0.1925 -0.2975,0.1275 -0.55125,0.3112 -0.76125,0.5512 -0.21,0.24 -0.36875,0.5313 -0.48125,0.875 -0.11,0.3438 -0.16625,0.73 -0.16625,1.1613 0,0.4537 0.0538,0.8512 0.16125,1.1925 0.1075,0.3412 0.26625,0.6262 0.47875,0.8525 0.2125,0.2262 0.47375,0.3975 0.78375,0.5125 0.31,0.115 0.67125,0.1725 1.08375,0.1725 0.2375,0 0.46125,-0.018 0.67125,-0.053 0.21,-0.035 0.39375,-0.075 0.5525,-0.12 0.16125,-0.045 0.29,-0.09 0.39,-0.1363 l 0.18125,-0.1 0.0512,-0.065 0.0288,-0.075 0.0125,-0.095 0.005,-0.125 -0.007,-0.17 -0.0263,-0.1087 -0.0463,-0.059 -0.0712,-0.019 -0.1975,0.059 c -0.0888,0.039 -0.19875,0.082 -0.335,0.13 -0.13625,0.049 -0.3,0.092 -0.48625,0.1312 -0.185,0.039 -0.3975,0.059 -0.63625,0.059 -0.30375,0 -0.56,-0.043 -0.7675,-0.1287 -0.21,-0.085 -0.38,-0.2075 -0.51,-0.3675 -0.13125,-0.1588 -0.225,-0.3513 -0.28,-0.5738 -0.0562,-0.2225 -0.0837,-0.4737 -0.0837,-0.7525 l 3.30125,0 0.24875,-0.091 c 0.0738,-0.061 0.11,-0.1662 0.11,-0.31 l 0,-0.1662 z m -6.545,-4.0337 -0.0225,-0.079 -0.0788,-0.053 -0.14875,-0.034 -0.22375,-0.014 -0.235,0.014 -0.14375,0.034 -0.0788,0.053 -0.0213,0.079 0,2.8862 -3.28375,0 0,-2.8862 -0.0225,-0.079 -0.0775,-0.053 -0.14625,-0.034 -0.2325,-0.014 -0.2275,0.014 -0.15125,0.034 -0.0775,0.053 -0.0225,0.079 0,6.92 0.0225,0.077 0.0775,0.053 0.15125,0.034 0.2275,0.014 0.2325,-0.014 0.14625,-0.034 0.0775,-0.053 0.0225,-0.077 0,-3.1988 3.28375,0 0,3.1988 0.0213,0.077 0.0788,0.053 0.14375,0.034 0.235,0.014 0.22375,-0.014 0.14875,-0.034 0.0788,-0.053 0.0225,-0.077 0,-6.92 z m -13.90375,3.9262 c 0.006,-0.2025 0.0413,-0.3987 0.10625,-0.5862 0.0637,-0.1875 0.1525,-0.3525 0.26875,-0.4938 0.115,-0.1412 0.25875,-0.2537 0.4325,-0.34 0.17125,-0.085 0.37125,-0.1275 0.6,-0.1275 0.4425,0 0.78,0.1375 1.00625,0.4125 0.225,0.275 0.3325,0.6538 0.32,1.135 l -2.73375,0 z m 3.65875,0.1075 c 0,-0.3275 -0.0412,-0.635 -0.12375,-0.9225 -0.0838,-0.2875 -0.215,-0.5387 -0.39375,-0.7525 -0.1775,-0.2125 -0.405,-0.3825 -0.68125,-0.51 -0.2775,-0.125 -0.6125,-0.1887 -1.0075,-0.1887 -0.36625,0 -0.69875,0.064 -0.99625,0.1925 -0.29625,0.1275 -0.55,0.3112 -0.76,0.5512 -0.21,0.24 -0.37125,0.5313 -0.4825,0.875 -0.1125,0.3438 -0.16625,0.73 -0.16625,1.1613 0,0.4537 0.0538,0.8512 0.16125,1.1925 0.1075,0.3412 0.26625,0.6262 0.47875,0.8525 0.21125,0.2262 0.4725,0.3975 0.7825,0.5125 0.31125,0.115 0.6725,0.1725 1.085,0.1725 0.23625,0 0.46125,-0.018 0.67125,-0.053 0.2075,-0.035 0.3925,-0.075 0.55375,-0.12 0.15875,-0.045 0.28875,-0.09 0.38875,-0.1363 l 0.1825,-0.1 0.0487,-0.065 0.0275,-0.075 0.0163,-0.095 0.005,-0.125 -0.01,-0.17 -0.0238,-0.1087 -0.0487,-0.059 -0.0688,-0.019 -0.2,0.059 c -0.0875,0.039 -0.2,0.082 -0.335,0.13 -0.13625,0.049 -0.2975,0.092 -0.485,0.1312 -0.18625,0.039 -0.39875,0.059 -0.6375,0.059 -0.3025,0 -0.55875,-0.043 -0.76625,-0.1287 -0.21,-0.085 -0.37875,-0.2075 -0.51,-0.3675 -0.1325,-0.1588 -0.225,-0.3513 -0.28125,-0.5738 -0.0563,-0.2225 -0.0825,-0.4737 -0.0825,-0.7525 l 3.3025,0 0.24875,-0.091 c 0.0712,-0.061 0.1075,-0.1662 0.1075,-0.31 l 0,-0.1662 z m -6.41125,-0.1612 c 0,-0.3613 -0.0312,-0.6688 -0.0925,-0.9225 -0.0613,-0.255 -0.16125,-0.4763 -0.3025,-0.6663 -0.14125,-0.1887 -0.3275,-0.34 -0.55625,-0.4537 -0.2275,-0.1138 -0.50875,-0.17 -0.8425,-0.17 -0.27125,0 -0.54,0.068 -0.80875,0.2037 -0.26625,0.135 -0.53375,0.3425 -0.7975,0.6213 l 0,-3.0038 -0.02,-0.077 -0.0738,-0.056 -0.13875,-0.034 -0.2275,-0.01 -0.22375,0.01 -0.1425,0.034 -0.0725,0.056 -0.02,0.077 0,7.4438 0.02,0.074 0.0725,0.055 0.1425,0.033 0.22375,0.011 0.2275,-0.011 0.13875,-0.033 0.0738,-0.055 0.02,-0.074 0,-3.505 c 0.25375,-0.315 0.495,-0.555 0.725,-0.7175 0.23125,-0.1638 0.46125,-0.2463 0.6925,-0.2463 0.17625,0 0.335,0.034 0.46875,0.1013 0.1375,0.066 0.2475,0.1625 0.3325,0.2887 0.085,0.1263 0.15125,0.2775 0.195,0.4513 0.0437,0.175 0.0663,0.405 0.0663,0.6912 l 0,2.9363 0.025,0.074 0.07,0.055 0.14,0.033 0.22875,0.011 0.2225,-0.011 0.13875,-0.033 0.0738,-0.055 0.0212,-0.074 0,-3.0525 z m -5.7225,-3.7925 -0.0362,-0.13 -0.0613,-0.072 -0.08,-0.023 -5.015,0 -0.0813,0.023 -0.0575,0.072 -0.035,0.13 -0.0162,0.1875 0.0162,0.1837 0.035,0.125 0.0575,0.069 0.0813,0.024 2.02875,0 0,6.2513 0.0225,0.077 0.0775,0.053 0.15125,0.034 0.2275,0.014 0.23125,-0.014 0.14875,-0.034 0.0763,-0.053 0.025,-0.077 0,-6.2513 2.02625,0 0.08,-0.024 0.0613,-0.069 0.0362,-0.125 0.0125,-0.1837 -0.0125,-0.1875 z"
       id="path1086"
       style="fill:#1c63b7;fill-opacity:1;fill-rule:nonzero;stroke:none" />
    <path
       d="m 135.63859,1030.9429 -0.195,0.24 c -0.09,0.07 -0.21,0.1262 -0.35625,0.1687 -0.14875,0.043 -0.33,0.062 -0.55,0.062 -0.34375,0 -0.6125,-0.049 -0.805,-0.1462 -0.1925,-0.097 -0.28875,-0.2413 -0.28875,-0.43 l 0.02,-0.18 0.0737,-0.1775 0.14125,-0.1875 0.23,-0.2075 1.02,0.035 c 0.23625,0 0.4225,0.054 0.56125,0.1462 0.13875,0.091 0.2075,0.2225 0.2075,0.3913 l -0.0588,0.285 z m -0.35375,-3.0763 -0.15375,0.2788 -0.26125,0.1875 c -0.105,0.045 -0.2275,0.067 -0.37125,0.067 -0.26625,0 -0.47125,-0.074 -0.62,-0.2225 -0.14625,-0.1488 -0.22,-0.3538 -0.22,-0.6125 0,-0.1163 0.0175,-0.2288 0.0513,-0.335 l 0.15125,-0.2825 0.25875,-0.1913 c 0.105,-0.048 0.225,-0.071 0.36625,-0.071 0.27125,0 0.47875,0.076 0.6275,0.2263 0.1475,0.15 0.22,0.3587 0.22,0.6275 0,0.1137 -0.015,0.2225 -0.0488,0.3275 m 1.14,-1.585 -0.11,-0.073 -1.19125,0 -0.29,-0.055 c -0.1025,-0.013 -0.215,-0.019 -0.335,-0.019 -0.2225,0 -0.4275,0.032 -0.615,0.097 -0.1875,0.066 -0.34875,0.16 -0.48375,0.2825 -0.13375,0.1225 -0.23875,0.2725 -0.315,0.45 -0.075,0.1787 -0.1125,0.38 -0.1125,0.6037 0,0.1925 0.025,0.3575 0.0788,0.4925 0.0513,0.1363 0.1225,0.2575 0.215,0.365 -0.11,0.1113 -0.2,0.2363 -0.27125,0.3763 -0.0737,0.14 -0.11,0.2987 -0.11,0.4775 0,0.1275 0.0337,0.2475 0.1025,0.3587 0.0687,0.11 0.17375,0.2025 0.3175,0.275 l -0.24875,0.2213 -0.17875,0.2337 -0.1075,0.2588 -0.0337,0.28 c 0,0.1512 0.0312,0.2912 0.095,0.4212 0.0662,0.13 0.16875,0.2413 0.3125,0.335 0.14125,0.094 0.325,0.1675 0.5475,0.2213 0.22375,0.054 0.495,0.08 0.8125,0.08 0.33,0 0.615,-0.035 0.8575,-0.1063 0.24125,-0.071 0.44125,-0.17 0.5975,-0.2937 0.15375,-0.1238 0.27125,-0.2675 0.34625,-0.43 0.0762,-0.1638 0.115,-0.3363 0.115,-0.5163 0,-0.1725 -0.0337,-0.3237 -0.1025,-0.4537 -0.065,-0.1288 -0.15875,-0.2388 -0.28,-0.3275 -0.1175,-0.089 -0.25875,-0.1575 -0.4225,-0.2063 -0.16375,-0.048 -0.3425,-0.075 -0.5375,-0.08 l -1.03,-0.044 c -0.15625,-0.01 -0.28375,-0.043 -0.37875,-0.11 l -0.14125,-0.2537 0.0513,-0.2313 0.12875,-0.18 c 0.0787,0.065 0.18875,0.1175 0.335,0.16 0.14375,0.043 0.295,0.064 0.45625,0.064 0.2275,0 0.435,-0.033 0.6225,-0.096 0.18625,-0.065 0.3475,-0.1575 0.48125,-0.2775 0.13625,-0.1212 0.24125,-0.27 0.3125,-0.4462 0.0737,-0.1738 0.11,-0.375 0.11,-0.6025 0,-0.1363 -0.02,-0.2688 -0.0613,-0.395 -0.0412,-0.1275 -0.1125,-0.2438 -0.215,-0.3488 l 0.56625,0 0.1075,-0.067 0.0412,-0.22 -0.0387,-0.2212 z m -5.7325,1.5762 c 0,-0.28 -0.0237,-0.5187 -0.0725,-0.7187 -0.0462,-0.2 -0.1275,-0.375 -0.2375,-0.5225 -0.1125,-0.1488 -0.25625,-0.2688 -0.43625,-0.3575 -0.17875,-0.089 -0.40125,-0.1325 -0.6625,-0.1325 -0.22375,0 -0.44625,0.058 -0.66625,0.1725 -0.2225,0.115 -0.44125,0.2962 -0.66375,0.5437 l 0,-0.52 -0.015,-0.059 -0.0513,-0.044 -0.0975,-0.026 -0.16125,-0.01 -0.16125,0.01 -0.1,0.026 -0.0537,0.044 -0.0125,0.059 0,3.9375 0.015,0.059 0.0588,0.041 0.11,0.026 0.175,0.01 0.17875,-0.01 0.11,-0.026 0.0563,-0.041 0.0187,-0.059 0,-2.7525 c 0.19875,-0.2475 0.38875,-0.435 0.5675,-0.5637 0.1825,-0.1288 0.36375,-0.1925 0.54375,-0.1925 0.13875,0 0.26375,0.026 0.36875,0.079 l 0.26125,0.2275 c 0.0662,0.099 0.1175,0.2175 0.15375,0.3537 0.0337,0.1375 0.0512,0.3188 0.0512,0.5425 l 0,2.3063 0.0175,0.059 0.0563,0.041 0.11,0.026 0.18,0.01 0.17375,-0.01 0.11,-0.026 0.0563,-0.041 0.0187,-0.059 0,-2.4025 z m -5.9,-3.2037 c -0.0637,-0.06 -0.17875,-0.09 -0.3475,-0.09 -0.1725,0 -0.29,0.031 -0.35375,0.093 -0.0662,0.061 -0.0975,0.1762 -0.0975,0.345 0,0.1662 0.0312,0.28 0.095,0.3387 0.0613,0.06 0.17875,0.089 0.34625,0.089 0.17375,0 0.29125,-0.029 0.355,-0.09 0.065,-0.061 0.095,-0.1775 0.095,-0.3462 0,-0.1663 -0.03,-0.2788 -0.0925,-0.3388 m 0.0113,1.6688 -0.0187,-0.056 -0.0563,-0.044 -0.11,-0.026 -0.17875,-0.01 -0.175,0.01 -0.1125,0.026 -0.0562,0.044 -0.015,0.056 0,3.9375 0.015,0.059 0.0562,0.041 0.1125,0.026 0.175,0.01 0.17875,-0.01 0.11,-0.026 0.0563,-0.041 0.0187,-0.059 0,-3.9375 z m -2.7125,0.099 -0.006,-0.09 -0.0175,-0.05 -0.0337,-0.041 -0.0913,-0.044 -0.14125,-0.04 -0.15125,-0.024 -0.13,-0.01 -0.25125,0.033 -0.25125,0.1175 -0.26875,0.235 c -0.095,0.099 -0.195,0.2262 -0.3025,0.3837 l 0,-0.5725 -0.0175,-0.059 -0.0487,-0.044 -0.1,-0.026 -0.15875,-0.01 -0.16125,0.01 -0.1,0.026 -0.0538,0.044 -0.0138,0.059 0,3.9375 0.0162,0.059 0.0563,0.041 0.1125,0.026 0.17375,0.01 0.18,-0.01 0.11,-0.026 0.0562,-0.041 0.0175,-0.059 0,-2.59 c 0.1025,-0.16 0.195,-0.2962 0.28,-0.4075 l 0.2425,-0.2662 0.22125,-0.145 0.215,-0.044 0.16875,0.017 0.14375,0.038 0.1125,0.04 0.085,0.019 0.0562,-0.019 0.0325,-0.058 0.0162,-0.1025 0.005,-0.1625 -0.003,-0.1588 z m -5.505,2.88 c -0.1775,0.1987 -0.34875,0.345 -0.51,0.4425 -0.16125,0.096 -0.3375,0.1437 -0.5275,0.1437 -0.2325,0 -0.415,-0.06 -0.545,-0.1812 -0.12875,-0.1213 -0.195,-0.2838 -0.195,-0.4875 0,-0.12 0.0225,-0.225 0.0688,-0.3175 l 0.2125,-0.2363 c 0.095,-0.065 0.2175,-0.115 0.36375,-0.1487 0.14375,-0.034 0.3175,-0.05 0.515,-0.05 l 0.6175,0 0,0.835 z m 0.7175,-1.6925 c 0,-0.245 -0.0288,-0.46 -0.0825,-0.6438 -0.0563,-0.1825 -0.14625,-0.3375 -0.26875,-0.4612 -0.1225,-0.1238 -0.28125,-0.2175 -0.48125,-0.2813 -0.1975,-0.065 -0.43875,-0.096 -0.72,-0.096 -0.15375,0 -0.3025,0.014 -0.45125,0.041 -0.14875,0.028 -0.28625,0.062 -0.4125,0.105 -0.125,0.043 -0.235,0.089 -0.3325,0.14 l -0.2025,0.1338 -0.0738,0.12 -0.0162,0.1725 0.01,0.12 0.0288,0.09 0.0438,0.053 0.0613,0.018 0.16125,-0.064 0.26625,-0.14 c 0.1075,-0.051 0.23125,-0.098 0.37125,-0.14 0.14125,-0.043 0.3025,-0.064 0.48,-0.064 0.16625,0 0.30625,0.019 0.42,0.06 0.1125,0.039 0.205,0.098 0.27625,0.175 0.0738,0.077 0.125,0.1737 0.15625,0.29 0.0312,0.1175 0.0487,0.2512 0.0487,0.4025 l 0,0.3062 -0.54375,0 c -0.30625,0 -0.58125,0.027 -0.82625,0.081 -0.24375,0.054 -0.45125,0.135 -0.62,0.2425 -0.17,0.1088 -0.3,0.2438 -0.39,0.4075 -0.09,0.1625 -0.135,0.355 -0.135,0.5775 0,0.1888 0.0325,0.3588 0.0975,0.5075 0.0663,0.1488 0.15875,0.2738 0.27625,0.3763 0.1175,0.1012 0.26125,0.18 0.4275,0.2337 0.16875,0.054 0.35625,0.081 0.56375,0.081 0.235,0 0.45875,-0.051 0.67125,-0.1537 0.21,-0.1025 0.40375,-0.245 0.57375,-0.4288 l 0,0.3938 0.0325,0.079 0.0975,0.04 0.1825,0.013 0.17875,-0.013 0.095,-0.04 0.0362,-0.079 0,-2.655 z m -5.05125,1.7937 -0.0213,-0.1037 -0.035,-0.05 -0.0512,-0.013 -0.18,0.082 c -0.0763,0.056 -0.17375,0.1175 -0.29375,0.1862 -0.11875,0.069 -0.26125,0.13 -0.43125,0.1863 -0.16875,0.055 -0.36625,0.082 -0.59125,0.082 -0.26625,0 -0.505,-0.048 -0.7175,-0.1425 -0.21,-0.094 -0.38875,-0.2338 -0.5325,-0.42 -0.14625,-0.1863 -0.25875,-0.415 -0.33625,-0.69 -0.0763,-0.2763 -0.115,-0.5938 -0.115,-0.9525 0,-0.3613 0.0388,-0.6825 0.12125,-0.9638 0.0787,-0.2812 0.19375,-0.52 0.34,-0.715 0.14625,-0.1962 0.3225,-0.3437 0.53,-0.445 0.2075,-0.1 0.43625,-0.15 0.68875,-0.15 0.23125,0 0.42875,0.028 0.595,0.085 0.16625,0.056 0.3075,0.12 0.4225,0.1875 0.115,0.069 0.21,0.1313 0.28375,0.1888 l 0.1725,0.085 0.0588,-0.02 0.0412,-0.061 0.0275,-0.1025 0.008,-0.1488 -0.005,-0.135 -0.0175,-0.099 -0.0288,-0.072 -0.0762,-0.09 -0.2125,-0.15 c -0.1025,-0.061 -0.22,-0.115 -0.35125,-0.1625 -0.13,-0.046 -0.27375,-0.085 -0.4275,-0.1162 -0.15625,-0.03 -0.315,-0.045 -0.47875,-0.045 -0.36875,0 -0.7075,0.066 -1.0125,0.2012 -0.305,0.1338 -0.56625,0.3275 -0.78375,0.5838 -0.22,0.255 -0.38875,0.5662 -0.51,0.9337 -0.12,0.3675 -0.18125,0.7863 -0.18125,1.255 0,0.4588 0.0563,0.8625 0.16875,1.2138 0.1125,0.3512 0.27125,0.6475 0.48125,0.8862 0.21,0.24 0.46125,0.42 0.75625,0.5425 0.295,0.1225 0.6275,0.1838 0.99375,0.1838 0.215,0 0.41,-0.02 0.58875,-0.059 0.18,-0.04 0.33875,-0.088 0.4775,-0.145 0.1375,-0.056 0.255,-0.115 0.3475,-0.175 l 0.185,-0.1325 0.0613,-0.075 0.03,-0.07 0.0138,-0.091 0.002,-0.1225 -0.005,-0.1663 z m -13.69625,-0.8925 0.1275,-0.2775 0.23625,-0.2762 c 0.0975,-0.091 0.22,-0.185 0.36625,-0.2775 0.1075,0.1337 0.2275,0.2712 0.35625,0.4137 0.13,0.1413 0.26375,0.2838 0.40375,0.4263 0.14125,0.1425 0.285,0.285 0.43625,0.4262 0.15125,0.1413 0.30125,0.2775 0.4525,0.4088 l -0.25875,0.1887 -0.29375,0.155 c -0.105,0.042 -0.2125,0.076 -0.3275,0.1 -0.11375,0.025 -0.22875,0.038 -0.34875,0.038 -0.195,0 -0.36875,-0.025 -0.5175,-0.076 -0.1488,-0.051 -0.2713,-0.1225 -0.3713,-0.2162 -0.0975,-0.09 -0.1725,-0.1988 -0.22375,-0.3238 -0.0513,-0.1262 -0.0763,-0.2637 -0.0763,-0.4162 l 0.0387,-0.2925 z m 0.515,-3.0225 0.15125,-0.23 0.26375,-0.1575 c 0.105,-0.04 0.235,-0.059 0.39125,-0.059 0.14125,0 0.26375,0.018 0.36625,0.053 l 0.25375,0.1413 0.14625,0.2062 0.0463,0.2425 -0.0588,0.2975 -0.19,0.28 c -0.0875,0.094 -0.2025,0.19 -0.34875,0.2913 -0.1425,0.1 -0.3225,0.21 -0.535,0.33 -0.09,-0.125 -0.16875,-0.2388 -0.23375,-0.3413 l -0.16625,-0.2862 -0.1,-0.2563 -0.0325,-0.24 0.0462,-0.2712 z m -1.2738,3.8538 c 0.0413,0.1425 0.1025,0.2712 0.1775,0.3862 0.0788,0.1163 0.17125,0.2188 0.28375,0.3088 0.11,0.091 0.23625,0.1662 0.37625,0.225 0.13875,0.06 0.2925,0.1062 0.45625,0.1387 0.16375,0.031 0.33875,0.048 0.5225,0.048 0.195,0 0.37625,-0.016 0.54625,-0.05 0.16625,-0.034 0.3275,-0.08 0.48125,-0.14 0.15125,-0.06 0.29875,-0.1325 0.4325,-0.2162 0.13375,-0.085 0.26375,-0.1763 0.3875,-0.2763 0.16625,0.135 0.31125,0.245 0.435,0.3325 0.1225,0.087 0.2325,0.1575 0.325,0.2075 l 0.24625,0.1075 0.1925,0.031 0.18375,-0.018 0.095,-0.04 0.0362,-0.055 0.0175,-0.098 0.002,-0.175 -0.0125,-0.1625 -0.0362,-0.07 -0.0637,-0.013 -0.0825,0 -0.1125,-0.026 -0.17125,-0.092 -0.24875,-0.17 c -0.0975,-0.07 -0.2125,-0.1575 -0.34375,-0.2625 0.0875,-0.1162 0.1675,-0.245 0.23875,-0.38 0.0713,-0.1375 0.13125,-0.2812 0.17875,-0.4312 0.0488,-0.15 0.0875,-0.3038 0.11375,-0.4613 0.0275,-0.1575 0.0425,-0.3175 0.0425,-0.4825 l 0,-0.1087 -0.02,-0.089 -0.0637,-0.049 -0.1125,-0.02 -0.16375,0 -0.1775,0.01 -0.1025,0.029 -0.0487,0.048 -0.015,0.072 0,0.1575 c 0,0.12 -0.01,0.2375 -0.0262,0.3537 -0.0175,0.1175 -0.045,0.2313 -0.0787,0.3438 l -0.1225,0.32 -0.1575,0.2687 c -0.13,-0.1175 -0.26,-0.2387 -0.39125,-0.365 -0.13375,-0.1275 -0.26375,-0.2562 -0.39,-0.3875 -0.1275,-0.1312 -0.25,-0.2625 -0.36625,-0.3912 -0.115,-0.13 -0.225,-0.255 -0.3225,-0.375 0.27125,-0.145 0.5025,-0.285 0.6925,-0.4175 0.19125,-0.1325 0.3475,-0.2663 0.47125,-0.4 0.1225,-0.1338 0.21,-0.2725 0.26625,-0.415 0.0563,-0.1438 0.0838,-0.3013 0.0838,-0.4725 0,-0.1788 -0.0325,-0.34 -0.0937,-0.4838 -0.065,-0.145 -0.15625,-0.2675 -0.28,-0.37 -0.125,-0.1012 -0.28125,-0.18 -0.46875,-0.2362 -0.18875,-0.055 -0.41,-0.082 -0.66875,-0.082 -0.30125,0 -0.56,0.038 -0.77375,0.1112 -0.2125,0.074 -0.38625,0.175 -0.52,0.3 -0.1375,0.1288 -0.235,0.275 -0.29625,0.4388 -0.0612,0.165 -0.0925,0.3375 -0.0925,0.5187 l 0.0339,0.3037 0.1175,0.3175 c 0.0538,0.1113 0.1225,0.23 0.205,0.3588 0.0838,0.1287 0.18375,0.2712 0.3,0.4287 -0.2125,0.1288 -0.395,0.2563 -0.54625,0.3825 -0.14875,0.1275 -0.27125,0.2588 -0.36375,0.3938 -0.095,0.1362 -0.16125,0.2762 -0.205,0.42 -0.0437,0.145 -0.0662,0.2962 -0.0662,0.4575 0,0.1662 0.02,0.32 0.0637,0.4637 m -5.555,-4.9262 -0.0187,-0.061 -0.0563,-0.044 -0.11,-0.026 -0.17875,-0.01 -0.175,0.01 -0.1125,0.026 -0.0563,0.044 -0.015,0.061 0,5.845 0.015,0.059 0.0563,0.041 0.1125,0.026 0.175,0.01 0.17875,-0.01 0.11,-0.026 0.0563,-0.041 0.0187,-0.059 0,-5.845 z m -3.929996,4.8862 c -0.17875,0.1988 -0.34875,0.345 -0.51,0.4425 -0.16125,0.096 -0.3375,0.1438 -0.5275,0.1438 -0.2325,0 -0.415,-0.06 -0.545,-0.1813 -0.12875,-0.1212 -0.195,-0.2837 -0.195,-0.4875 0,-0.12 0.0225,-0.225 0.0688,-0.3175 l 0.2125,-0.2362 c 0.095,-0.065 0.2175,-0.115 0.36375,-0.1488 0.14375,-0.034 0.3175,-0.05 0.515,-0.05 l 0.6175,0 0,0.835 z m 0.7175,-1.6925 c 0,-0.245 -0.0288,-0.46 -0.0825,-0.6437 -0.0563,-0.1825 -0.14375,-0.3375 -0.26875,-0.4613 -0.1225,-0.1237 -0.28125,-0.2175 -0.48125,-0.2812 -0.1975,-0.065 -0.43875,-0.096 -0.72,-0.096 -0.15375,0 -0.3025,0.014 -0.45125,0.041 -0.14875,0.028 -0.28625,0.062 -0.4125,0.105 -0.125,0.043 -0.235,0.089 -0.3325,0.14 l -0.2025,0.1337 -0.0737,0.12 -0.0138,0.1725 0.006,0.12 0.03,0.09 0.0437,0.053 0.0613,0.018 0.16125,-0.064 0.26625,-0.14 c 0.1075,-0.051 0.23125,-0.098 0.3725,-0.14 0.14,-0.043 0.30125,-0.064 0.47875,-0.064 0.16625,0 0.305,0.019 0.42,0.06 0.1125,0.039 0.205,0.098 0.27625,0.175 0.0725,0.077 0.12375,0.1738 0.15625,0.29 0.0312,0.1175 0.0487,0.2513 0.0487,0.4025 l 0,0.3063 -0.5425,0 c -0.3075,0 -0.5825,0.028 -0.8275,0.081 -0.24375,0.054 -0.45125,0.135 -0.62,0.2425 -0.16875,0.1087 -0.3,0.2437 -0.39,0.4075 -0.0913,0.1625 -0.135,0.355 -0.135,0.5775 0,0.1887 0.0325,0.3587 0.0975,0.5075 0.0662,0.1487 0.15875,0.2737 0.27625,0.3762 0.1175,0.1013 0.26125,0.18 0.4275,0.2338 0.16875,0.054 0.35625,0.081 0.56375,0.081 0.23625,0 0.45875,-0.051 0.67125,-0.1538 0.21,-0.1025 0.4025,-0.245 0.57375,-0.4287 l 0,0.3937 0.0325,0.079 0.0975,0.04 0.1825,0.013 0.17875,-0.013 0.095,-0.04 0.0362,-0.079 0,-2.655 z m -5.44875,0.2488 c 0,-0.28 -0.0225,-0.5188 -0.0712,-0.7188 -0.0488,-0.2 -0.12875,-0.375 -0.23875,-0.5225 -0.11,-0.1487 -0.25625,-0.2687 -0.435,-0.3575 -0.1775,-0.089 -0.4,-0.1325 -0.66375,-0.1325 -0.2225,0 -0.445,0.058 -0.66625,0.1725 -0.22,0.115 -0.44,0.2963 -0.6625,0.5438 l 0,-0.52 -0.0163,-0.059 -0.0487,-0.044 -0.0988,-0.026 -0.16,-0.01 -0.16125,0.01 -0.1,0.026 -0.0537,0.044 -0.0125,0.059 0,3.9375 0.015,0.059 0.0575,0.041 0.11,0.026 0.17625,0.01 0.18,-0.01 0.1075,-0.026 0.0587,-0.041 0.0175,-0.059 0,-2.7525 c 0.1975,-0.2475 0.38875,-0.435 0.56625,-0.5638 0.18125,-0.1287 0.36375,-0.1925 0.5425,-0.1925 0.14125,0 0.26375,0.026 0.37125,0.079 l 0.25875,0.2275 c 0.0675,0.099 0.11875,0.2175 0.15375,0.3538 0.0362,0.1375 0.0537,0.3187 0.0537,0.5425 l 0,2.3062 0.0163,0.059 0.0562,0.041 0.11,0.026 0.17875,0.01 0.175,-0.01 0.11,-0.026 0.0562,-0.041 0.0175,-0.059 0,-2.4025 z m -6.43625,1.0637 c -0.0462,0.1888 -0.11875,0.3525 -0.22125,0.49 -0.1,0.1363 -0.2275,0.2438 -0.38375,0.3188 -0.15375,0.076 -0.34,0.1137 -0.55125,0.1137 -0.2325,0 -0.425,-0.041 -0.58125,-0.125 -0.15625,-0.083 -0.28125,-0.195 -0.37375,-0.3362 -0.0925,-0.1413 -0.15875,-0.3088 -0.1975,-0.4963 -0.04,-0.19 -0.0612,-0.3925 -0.0612,-0.6087 0,-0.2238 0.0238,-0.4313 0.0725,-0.6213 0.05,-0.1887 0.1225,-0.3537 0.2225,-0.4912 0.1,-0.1388 0.2275,-0.2463 0.38375,-0.3225 0.15375,-0.075 0.33875,-0.1125 0.55375,-0.1125 0.2325,0 0.425,0.041 0.58125,0.1237 0.15625,0.084 0.28125,0.1963 0.37125,0.3388 0.0925,0.1437 0.15625,0.31 0.1975,0.4987 0.0387,0.19 0.0588,0.3913 0.0588,0.6038 0,0.2275 -0.0225,0.4362 -0.0713,0.6262 m 0.69875,-1.5625 c -0.0788,-0.2625 -0.2,-0.485 -0.36125,-0.6687 -0.15875,-0.1838 -0.36125,-0.325 -0.60125,-0.42 -0.24125,-0.096 -0.5225,-0.1438 -0.84625,-0.1438 -0.335,0 -0.6275,0.054 -0.87875,0.1613 -0.25,0.1075 -0.46,0.26 -0.6275,0.455 -0.16875,0.195 -0.29375,0.4275 -0.37625,0.6975 -0.0838,0.27 -0.125,0.565 -0.125,0.8862 0,0.3325 0.0387,0.63 0.1175,0.8925 0.08,0.2625 0.2,0.485 0.35875,0.6688 0.16125,0.1837 0.36125,0.3237 0.6025,0.42 0.24,0.096 0.5225,0.145 0.845,0.145 0.3325,0 0.625,-0.055 0.87875,-0.165 0.2525,-0.1088 0.4625,-0.2613 0.63,-0.4563 0.16625,-0.1962 0.29375,-0.4287 0.37875,-0.6987 0.0825,-0.2688 0.125,-0.565 0.125,-0.885 0,-0.33 -0.04,-0.6263 -0.12,-0.8888 m -5.8225,1.3913 c -0.0562,-0.1225 -0.1325,-0.2275 -0.225,-0.315 -0.095,-0.087 -0.2025,-0.1613 -0.3225,-0.2225 -0.12125,-0.061 -0.24375,-0.1163 -0.36625,-0.1663 -0.12625,-0.05 -0.24625,-0.098 -0.36625,-0.145 -0.11875,-0.046 -0.22625,-0.099 -0.32,-0.1575 l -0.22625,-0.2025 c -0.0588,-0.077 -0.0888,-0.1737 -0.0888,-0.2887 l 0.0475,-0.2263 0.13375,-0.1812 0.23,-0.1175 c 0.095,-0.028 0.2025,-0.043 0.32375,-0.043 0.1375,0 0.25875,0.016 0.36625,0.048 l 0.27625,0.1025 0.1925,0.1037 0.115,0.049 0.0487,-0.015 0.0375,-0.051 0.0212,-0.089 0.005,-0.1287 -0.005,-0.1188 -0.0125,-0.081 -0.0238,-0.059 -0.0612,-0.061 -0.13375,-0.081 -0.2175,-0.085 -0.28375,-0.065 -0.315,-0.026 c -0.23875,0 -0.44875,0.031 -0.6275,0.096 -0.18,0.064 -0.32875,0.1488 -0.44875,0.255 -0.12,0.1063 -0.21,0.2313 -0.26875,0.3725 -0.0612,0.14 -0.09,0.2888 -0.09,0.4438 0,0.175 0.0288,0.325 0.085,0.45 0.0563,0.1262 0.1325,0.2337 0.225,0.3237 0.0925,0.091 0.2,0.1675 0.3175,0.23 0.11875,0.062 0.23875,0.1188 0.36375,0.1688 0.12375,0.049 0.24375,0.096 0.35875,0.1412 0.1175,0.046 0.225,0.097 0.315,0.1563 l 0.22625,0.2012 0.0862,0.28 -0.0587,0.28 -0.16875,0.1938 -0.25875,0.1162 c -0.1,0.026 -0.21,0.04 -0.33375,0.04 -0.16125,0 -0.30625,-0.02 -0.4325,-0.06 -0.125,-0.039 -0.2325,-0.081 -0.325,-0.1287 l -0.23125,-0.1288 -0.1425,-0.059 -0.0563,0.015 -0.0362,0.05 -0.0225,0.092 -0.009,0.14 0.0238,0.2138 0.0687,0.1225 0.15375,0.099 0.25625,0.105 c 0.1,0.034 0.2125,0.061 0.34125,0.082 0.125,0.022 0.25875,0.034 0.39875,0.034 0.22875,0 0.43625,-0.029 0.625,-0.084 0.19,-0.055 0.35375,-0.1363 0.49,-0.245 0.1375,-0.1075 0.245,-0.24 0.3175,-0.3975 0.0763,-0.1575 0.1125,-0.3375 0.1125,-0.5388 0,-0.1687 -0.0288,-0.315 -0.085,-0.4375 m -4.2237,-2.3287 -0.007,-0.09 -0.015,-0.05 -0.0362,-0.041 -0.09,-0.044 -0.1425,-0.04 -0.14875,-0.024 -0.13125,-0.01 -0.25125,0.033 -0.25,0.1175 -0.27,0.235 c -0.0937,0.099 -0.19625,0.2262 -0.30375,0.3837 l 0,-0.5725 -0.0163,-0.059 -0.0488,-0.044 -0.1,-0.026 -0.15875,-0.01 -0.16125,0.01 -0.1,0.026 -0.0537,0.044 -0.0125,0.059 0,3.9375 0.015,0.059 0.0562,0.041 0.11125,0.026 0.17625,0.01 0.17875,-0.01 0.11,-0.026 0.0575,-0.041 0.0175,-0.059 0,-2.59 c 0.1,-0.16 0.195,-0.2962 0.27875,-0.4075 l 0.24375,-0.2662 0.22,-0.145 0.215,-0.044 0.17,0.018 0.1425,0.038 0.11375,0.04 0.0838,0.019 0.0562,-0.019 0.0312,-0.058 0.0175,-0.1025 0.005,-0.1625 -0.002,-0.1588 z m -7.43375,1.485 c 0.006,-0.16 0.0337,-0.3138 0.0825,-0.4613 0.0513,-0.1475 0.12,-0.2762 0.2125,-0.3875 0.09,-0.1112 0.2025,-0.2 0.33875,-0.2675 0.135,-0.066 0.29125,-0.1 0.47125,-0.1 0.3475,0 0.61125,0.1075 0.78875,0.3238 0.17875,0.2162 0.26125,0.5137 0.25375,0.8925 l -2.1475,0 z m 2.8725,0.082 c 0,-0.2563 -0.0312,-0.4975 -0.0975,-0.7238 -0.065,-0.2262 -0.1675,-0.4225 -0.3075,-0.59 -0.14125,-0.1675 -0.32,-0.3012 -0.5375,-0.4 -0.21625,-0.1 -0.48,-0.1487 -0.79,-0.1487 -0.28875,0 -0.55,0.05 -0.78125,0.15 -0.235,0.1012 -0.4325,0.245 -0.59875,0.4337 -0.16375,0.1875 -0.29,0.4163 -0.37875,0.6863 -0.0875,0.27 -0.13125,0.5737 -0.13125,0.9125 0,0.355 0.0437,0.6675 0.12875,0.9362 0.0838,0.2675 0.21,0.4913 0.37625,0.6688 0.16625,0.1775 0.37125,0.3125 0.615,0.4025 0.2425,0.09 0.525,0.1362 0.85,0.1362 0.18625,0 0.36125,-0.015 0.5275,-0.043 0.16375,-0.027 0.31,-0.059 0.435,-0.094 0.12375,-0.035 0.22625,-0.07 0.305,-0.1075 l 0.14375,-0.079 0.0387,-0.05 0.0225,-0.059 0.01,-0.075 0.005,-0.097 -0.007,-0.1337 -0.02,-0.085 -0.0362,-0.046 -0.0563,-0.015 -0.15625,0.045 -0.26375,0.1037 c -0.105,0.038 -0.2325,0.071 -0.37875,0.1025 -0.14625,0.03 -0.315,0.046 -0.5025,0.046 -0.2375,0 -0.4375,-0.034 -0.60125,-0.1012 -0.165,-0.066 -0.2975,-0.1625 -0.4,-0.2888 -0.1025,-0.125 -0.17625,-0.275 -0.22,-0.4512 -0.0437,-0.1738 -0.065,-0.3713 -0.065,-0.59 l 2.5925,0 0.195,-0.071 c 0.0562,-0.049 0.085,-0.13 0.085,-0.2438 l 0,-0.1312 z m -6.28125,-1.0913 c -0.0537,0.145 -0.13,0.2688 -0.2325,0.3725 -0.1025,0.1038 -0.22875,0.1838 -0.3775,0.2413 -0.15125,0.06 -0.34,0.089 -0.56625,0.089 l -0.67875,0 0,-2.27 0.695,0 c 0.1275,0 0.26125,0.01 0.39625,0.03 0.13625,0.021 0.26875,0.067 0.3925,0.145 0.1275,0.075 0.235,0.19 0.32,0.345 0.085,0.155 0.13,0.3475 0.13,0.5775 0,0.1687 -0.0275,0.3262 -0.0788,0.47 m 0.78125,-1.115 c -0.0613,-0.1763 -0.14625,-0.3325 -0.25625,-0.4663 -0.1125,-0.1337 -0.24625,-0.2475 -0.405,-0.3387 -0.15875,-0.093 -0.315,-0.155 -0.46875,-0.1888 -0.15375,-0.033 -0.28625,-0.055 -0.39875,-0.065 -0.11125,-0.01 -0.22875,-0.015 -0.35125,-0.015 l -1.21125,0 -0.205,0.074 c -0.0613,0.05 -0.0925,0.1325 -0.0925,0.25 l 0,5.2225 0.0175,0.061 0.0613,0.041 0.11625,0.026 0.18125,0.011 0.18,-0.011 0.115,-0.026 0.0613,-0.041 0.02,-0.061 0,-2.0387 0.64375,0 c 0.3475,0 0.65,-0.044 0.90125,-0.1325 0.25375,-0.086 0.46625,-0.21 0.64,-0.37 0.1725,-0.16 0.3075,-0.355 0.4,-0.5825 0.0925,-0.2275 0.13875,-0.4825 0.13875,-0.7663 0,-0.2112 -0.0288,-0.4062 -0.0875,-0.5825"
       id="path1090"
       style="fill:#4f4c4d;fill-opacity:1;fill-rule:nonzero;stroke:none" />
    <path
       d="m 193.19981,1026.8541 c 0.007,-0.1825 0.0337,-0.355 0.0838,-0.5162 0.0487,-0.1613 0.11875,-0.3013 0.20875,-0.42 0.0913,-0.1188 0.2075,-0.2125 0.345,-0.2825 0.13875,-0.07 0.3,-0.105 0.48625,-0.105 0.37,0 0.64375,0.1175 0.82,0.3525 0.1775,0.235 0.26125,0.5587 0.24875,0.9712 l -2.1925,0 z m 3.61625,0.1863 c 0,-0.365 -0.0488,-0.7038 -0.14,-1.015 -0.095,-0.3113 -0.24125,-0.58 -0.43875,-0.8075 -0.1975,-0.2275 -0.4525,-0.405 -0.76,-0.5338 -0.31,-0.1287 -0.68125,-0.1937 -1.1175,-0.1937 -0.4125,0 -0.78375,0.07 -1.11125,0.205 -0.3275,0.1362 -0.6075,0.3337 -0.8375,0.5925 -0.22875,0.2587 -0.405,0.5737 -0.525,0.945 -0.12125,0.3712 -0.18,0.7887 -0.18,1.2512 0,0.4863 0.0563,0.91 0.1725,1.2713 0.115,0.3612 0.28875,0.6612 0.52,0.8975 0.235,0.2375 0.525,0.415 0.8725,0.5312 0.34875,0.1163 0.75375,0.175 1.2175,0.175 0.25625,0 0.49625,-0.016 0.7225,-0.05 0.225,-0.032 0.425,-0.071 0.60125,-0.1162 0.17375,-0.045 0.3175,-0.09 0.43,-0.1363 0.11375,-0.048 0.1825,-0.084 0.2075,-0.1112 l 0.0625,-0.085 0.035,-0.1075 0.0175,-0.1563 0.006,-0.2175 -0.009,-0.2412 -0.0325,-0.1488 -0.0588,-0.074 -0.0875,-0.02 -0.2275,0.055 c -0.0925,0.038 -0.21,0.077 -0.35375,0.1225 -0.14125,0.045 -0.31,0.086 -0.5025,0.1225 -0.195,0.038 -0.42,0.056 -0.67875,0.056 -0.25125,0 -0.46875,-0.034 -0.65,-0.1 -0.18,-0.066 -0.32875,-0.1625 -0.44375,-0.2887 -0.1125,-0.1263 -0.1975,-0.28 -0.24875,-0.46 -0.0538,-0.1813 -0.0788,-0.3825 -0.0788,-0.6038 l 3.16625,0 c 0.14,0 0.25,-0.043 0.33,-0.1287 0.08,-0.085 0.12,-0.2175 0.12,-0.3963 l 0,-0.2337 z m -5.88125,1.8437 -0.03,-0.2012 -0.0563,-0.1088 -0.0875,-0.029 -0.1875,0.09 -0.27375,0.2013 c -0.1075,0.074 -0.235,0.1412 -0.38125,0.2012 -0.14625,0.061 -0.32,0.09 -0.5225,0.09 -0.1975,0 -0.37125,-0.035 -0.5225,-0.1075 -0.14875,-0.071 -0.27375,-0.18 -0.37375,-0.3237 -0.0975,-0.1438 -0.1725,-0.3225 -0.22375,-0.5363 -0.0512,-0.2137 -0.0762,-0.4612 -0.0762,-0.7412 0,-0.5675 0.1025,-0.9975 0.305,-1.2913 0.2,-0.2937 0.49375,-0.44 0.87375,-0.44 0.19375,0 0.3625,0.026 0.50125,0.081 0.14125,0.055 0.26125,0.115 0.36125,0.18 l 0.26375,0.1813 0.21,0.083 0.15125,-0.1375 c 0.0388,-0.091 0.0588,-0.25 0.0588,-0.475 l -0.01,-0.2488 -0.0225,-0.1712 -0.0412,-0.1138 -0.09,-0.1087 -0.22,-0.1513 c -0.1025,-0.059 -0.2175,-0.1112 -0.34875,-0.1575 -0.13,-0.046 -0.27125,-0.084 -0.42,-0.1112 -0.14875,-0.026 -0.3025,-0.04 -0.45875,-0.04 -0.38125,0 -0.73,0.06 -1.05,0.18 -0.3175,0.1212 -0.59375,0.3062 -0.8275,0.555 -0.2325,0.2475 -0.415,0.5625 -0.545,0.9412 -0.13125,0.38 -0.195,0.83 -0.195,1.35 0,0.4513 0.0538,0.8525 0.15875,1.2025 0.1075,0.35 0.26625,0.6463 0.47625,0.8888 0.21,0.2437 0.46875,0.4275 0.77875,0.5512 0.31,0.125 0.66375,0.1863 1.06375,0.1863 0.17875,0 0.355,-0.015 0.5225,-0.046 0.16875,-0.031 0.325,-0.071 0.46875,-0.1225 0.145,-0.05 0.27375,-0.1075 0.38625,-0.1725 0.1125,-0.064 0.1925,-0.1175 0.23875,-0.1625 l 0.0913,-0.1113 0.0337,-0.1137 0.025,-0.1713 0.009,-0.2537 c 0,-0.1288 -0.005,-0.2338 -0.0137,-0.315 m -5.36375,-2.0713 c 0,-0.3762 -0.035,-0.7 -0.1,-0.9675 -0.0662,-0.2687 -0.17375,-0.5025 -0.325,-0.7037 -0.14875,-0.2 -0.345,-0.3588 -0.58875,-0.475 -0.24125,-0.1163 -0.54,-0.1763 -0.89375,-0.1763 -0.3225,0 -0.6325,0.079 -0.93,0.235 -0.2975,0.155 -0.59125,0.3888 -0.87875,0.7 l 0,-0.6012 -0.03,-0.1025 -0.095,-0.072 -0.19,-0.044 c -0.0825,-0.01 -0.185,-0.015 -0.31,-0.015 -0.12,0 -0.22,0 -0.3,0.015 l -0.19625,0.044 -0.105,0.072 -0.0288,0.1025 0,5.2025 0.0362,0.1025 0.12,0.072 0.2225,0.044 c 0.095,0.01 0.2125,0.015 0.35625,0.015 0.14375,0 0.26375,0 0.35625,-0.015 l 0.225,-0.044 0.11875,-0.072 0.035,-0.1025 0,-3.4588 c 0.2075,-0.26 0.405,-0.4587 0.595,-0.595 0.19125,-0.1362 0.37875,-0.2037 0.56625,-0.2037 0.1475,0 0.27625,0.029 0.38875,0.085 l 0.27125,0.2387 c 0.07,0.1025 0.12375,0.2263 0.15875,0.37 0.0387,0.1438 0.0563,0.3425 0.0563,0.595 l 0,2.9688 0.0337,0.1025 0.1175,0.072 0.22375,0.044 c 0.0962,0.01 0.215,0.015 0.36,0.015 0.13875,0 0.25625,0 0.35375,-0.015 l 0.2225,-0.044 0.11875,-0.072 0.035,-0.1025 0,-3.2138 z m -7.87625,1.89 c -0.17875,0.2025 -0.35375,0.3563 -0.5275,0.4613 -0.17125,0.105 -0.36125,0.1575 -0.56875,0.1575 -0.24375,0 -0.435,-0.062 -0.57375,-0.1875 -0.1375,-0.1238 -0.2075,-0.295 -0.2075,-0.5125 0,-0.1288 0.0238,-0.2425 0.0725,-0.3413 l 0.2325,-0.2537 c 0.105,-0.07 0.23875,-0.1225 0.4075,-0.1575 0.16625,-0.035 0.36875,-0.053 0.60625,-0.053 l 0.55875,0 0,0.8862 z m 1.4425,-2.1575 c 0,-0.3587 -0.0437,-0.6675 -0.12875,-0.9275 -0.0863,-0.2612 -0.2225,-0.4737 -0.40875,-0.6387 -0.1875,-0.165 -0.42375,-0.2875 -0.715,-0.3675 -0.29,-0.08 -0.6375,-0.1213 -1.045,-0.1213 -0.23125,0 -0.45375,0.02 -0.66875,0.056 -0.215,0.038 -0.415,0.085 -0.5975,0.1438 -0.18375,0.058 -0.3425,0.1212 -0.47875,0.1887 -0.1375,0.069 -0.2325,0.1313 -0.28625,0.1875 l -0.11,0.1888 c -0.0213,0.069 -0.0288,0.1662 -0.0288,0.2862 l 0.0175,0.245 0.0487,0.1863 0.0825,0.1175 0.1125,0.04 0.24125,-0.081 c 0.1,-0.055 0.2225,-0.115 0.37125,-0.1813 0.14875,-0.066 0.3175,-0.1275 0.51,-0.18 0.19375,-0.055 0.4125,-0.082 0.6575,-0.082 0.185,0 0.34125,0.02 0.46875,0.059 0.12625,0.039 0.22625,0.099 0.3025,0.1813 0.0775,0.081 0.13125,0.1837 0.16375,0.3062 0.0337,0.1225 0.0488,0.265 0.0488,0.4288 l 0,0.3137 -0.5075,0 c -0.4625,0 -0.8675,0.035 -1.21875,0.105 -0.34875,0.07 -0.6425,0.1788 -0.87625,0.3238 -0.235,0.1462 -0.4125,0.3312 -0.5325,0.555 -0.1175,0.2237 -0.17625,0.4862 -0.17625,0.79 0,0.28 0.0462,0.525 0.14,0.735 0.0925,0.21 0.22375,0.3862 0.3925,0.5275 0.16875,0.1425 0.37125,0.2487 0.60125,0.3212 0.23125,0.071 0.485,0.1075 0.76125,0.1075 0.335,0 0.64,-0.064 0.9125,-0.1925 0.27375,-0.1287 0.51875,-0.3075 0.7325,-0.5362 l 0,0.4137 0.0488,0.1288 0.16875,0.066 c 0.0813,0.014 0.2075,0.021 0.38375,0.021 0.16375,0 0.285,-0.01 0.36875,-0.021 l 0.185,-0.066 0.0588,-0.1288 0,-3.4987 z m -5.08,-1.57 -0.0175,-0.1837 -0.0275,-0.096 -0.0462,-0.064 -0.1025,-0.055 -0.16375,-0.048 -0.18,-0.029 -0.16375,-0.01 -0.325,0.045 -0.32875,0.155 c -0.1075,0.074 -0.2225,0.1737 -0.3425,0.3 -0.11875,0.125 -0.24875,0.285 -0.385,0.4812 l 0,-0.6475 -0.03,-0.1025 -0.095,-0.072 -0.19,-0.044 c -0.0813,-0.01 -0.18625,-0.015 -0.31,-0.015 -0.12,0 -0.22,0 -0.30125,0.015 l -0.195,0.044 -0.105,0.072 -0.0288,0.1025 0,5.2025 0.0362,0.1025 0.12,0.072 0.22375,0.044 c 0.0937,0.01 0.2125,0.015 0.355,0.015 0.14375,0 0.26375,0 0.35625,-0.015 l 0.22375,-0.044 0.12,-0.072 0.0362,-0.1025 0,-3.2425 c 0.1075,-0.1712 0.21,-0.315 0.30625,-0.4312 0.095,-0.1175 0.185,-0.21 0.2725,-0.28 l 0.25375,-0.155 0.245,-0.05 0.1925,0.021 0.16125,0.044 0.13125,0.044 0.105,0.02 0.0962,-0.029 0.06,-0.105 0.035,-0.21 c 0.007,-0.09 0.0125,-0.205 0.0125,-0.345 0,-0.14 -0.002,-0.25 -0.005,-0.3325 m -4.8125,-0.1513 -0.0362,-0.1025 -0.115,-0.072 -0.2225,-0.044 c -0.0925,-0.01 -0.2125,-0.015 -0.35625,-0.015 -0.14375,0 -0.26125,0 -0.35625,0.015 l -0.2225,0.044 -0.1175,0.072 -0.0312,0.1025 0,3.4588 c -0.215,0.26 -0.415,0.4587 -0.605,0.595 -0.18875,0.1362 -0.37625,0.2037 -0.5625,0.2037 -0.14875,0 -0.2775,-0.028 -0.3875,-0.084 l -0.27375,-0.24 c -0.0725,-0.1025 -0.12625,-0.2262 -0.16125,-0.37 -0.0337,-0.1437 -0.0513,-0.3512 -0.0513,-0.6237 l 0,-2.94 -0.0362,-0.1025 -0.12,-0.072 -0.22375,-0.044 c -0.0937,-0.01 -0.2125,-0.015 -0.355,-0.015 -0.14125,0 -0.25875,0 -0.35375,0.015 l -0.2275,0.044 -0.11625,0.072 -0.0325,0.1025 0,3.185 c 0,0.3962 0.0325,0.7275 0.0975,0.9937 0.0637,0.2663 0.16875,0.5013 0.32,0.7025 0.14875,0.2025 0.345,0.3625 0.58875,0.4788 0.24375,0.1162 0.5425,0.175 0.90125,0.175 0.3175,0 0.6275,-0.077 0.925,-0.2338 0.2975,-0.155 0.58875,-0.3887 0.87625,-0.6987 l 0,0.6 0.03,0.1025 0.1,0.072 0.1875,0.044 c 0.08,0.01 0.185,0.015 0.3125,0.015 0.12,0 0.2225,0 0.3,-0.015 l 0.19375,-0.044 0.1025,-0.072 0.0287,-0.1025 0,-5.2025 z m -6.1475,3.1175 c -0.0738,-0.1725 -0.17125,-0.3225 -0.2925,-0.4462 -0.12,-0.1238 -0.25625,-0.2288 -0.41,-0.315 -0.15375,-0.085 -0.30875,-0.16 -0.46625,-0.225 -0.15875,-0.064 -0.315,-0.1225 -0.4675,-0.1775 -0.15375,-0.054 -0.29,-0.1125 -0.41,-0.175 -0.12125,-0.061 -0.21875,-0.1338 -0.2925,-0.215 -0.0737,-0.082 -0.11,-0.1838 -0.11,-0.3038 l 0.0463,-0.2187 0.14,-0.1775 0.23875,-0.1175 c 0.0975,-0.026 0.2125,-0.04 0.34375,-0.04 0.18625,0 0.3525,0.02 0.49875,0.061 0.14625,0.04 0.275,0.084 0.385,0.1312 l 0.27625,0.1313 0.16375,0.061 0.0825,-0.021 0.0538,-0.079 0.03,-0.1575 0.01,-0.2563 -0.01,-0.225 -0.02,-0.1512 -0.0362,-0.105 -0.0788,-0.088 -0.1825,-0.105 c -0.0862,-0.041 -0.19125,-0.079 -0.315,-0.1138 -0.125,-0.035 -0.26375,-0.064 -0.4175,-0.087 -0.15375,-0.024 -0.3125,-0.036 -0.47375,-0.036 -0.3275,0 -0.6225,0.043 -0.88375,0.1238 -0.26375,0.081 -0.48625,0.1962 -0.66875,0.3437 -0.18375,0.1488 -0.3225,0.3263 -0.42,0.5338 -0.0975,0.2087 -0.14625,0.4375 -0.14625,0.6862 0,0.245 0.0362,0.455 0.1075,0.63 0.0725,0.1738 0.1675,0.3238 0.2875,0.4488 0.1175,0.1237 0.25125,0.2287 0.4025,0.315 0.14875,0.085 0.30125,0.1612 0.46,0.2275 0.1575,0.066 0.31,0.1262 0.46125,0.18 0.14875,0.055 0.2825,0.1137 0.4025,0.175 0.1175,0.062 0.2125,0.135 0.285,0.2187 0.0712,0.084 0.1075,0.1838 0.1075,0.3013 l -0.0575,0.2675 -0.17375,0.1925 -0.26625,0.1175 c -0.105,0.026 -0.2225,0.04 -0.35375,0.04 -0.21,0 -0.39875,-0.025 -0.56375,-0.075 -0.16375,-0.051 -0.30875,-0.105 -0.4325,-0.1638 -0.125,-0.059 -0.23,-0.1112 -0.3125,-0.16 l -0.19,-0.074 -0.0888,0.021 -0.0562,0.081 -0.0362,0.1638 c -0.008,0.067 -0.0125,0.1575 -0.0125,0.2712 0,0.17 0.0125,0.3 0.035,0.3875 l 0.1,0.1925 0.205,0.1313 c 0.0925,0.046 0.21,0.093 0.34875,0.1362 0.14125,0.045 0.3,0.082 0.47625,0.1113 0.1775,0.029 0.36125,0.044 0.55625,0.044 0.3225,0 0.6225,-0.038 0.89875,-0.1138 0.27625,-0.077 0.515,-0.1887 0.7175,-0.3412 0.2025,-0.1513 0.35875,-0.34 0.46875,-0.565 0.1125,-0.2263 0.16625,-0.4863 0.16625,-0.7825 0,-0.2363 -0.0362,-0.4413 -0.11,-0.615 m -4.9925,-1.1288 c 0,-0.3762 -0.0337,-0.7 -0.1,-0.9675 -0.0662,-0.2687 -0.17375,-0.5025 -0.3225,-0.7037 -0.15125,-0.2 -0.34625,-0.3588 -0.58875,-0.475 -0.24375,-0.1163 -0.54375,-0.1763 -0.8975,-0.1763 -0.3225,0 -0.6325,0.079 -0.92875,0.235 -0.2975,0.155 -0.59,0.3888 -0.87875,0.7 l 0,-0.6012 -0.0288,-0.1025 -0.095,-0.072 -0.19125,-0.044 c -0.08,-0.01 -0.185,-0.015 -0.3075,-0.015 -0.12125,0 -0.2225,0 -0.3025,0.015 l -0.195,0.044 -0.105,0.072 -0.0275,0.1025 0,5.2025 0.035,0.1025 0.11875,0.072 0.225,0.044 c 0.0925,0.01 0.2125,0.015 0.35625,0.015 0.14375,0 0.26125,0 0.35375,-0.015 l 0.225,-0.044 0.12,-0.072 0.0362,-0.1025 0,-3.4588 c 0.205,-0.26 0.4025,-0.4587 0.59375,-0.595 0.19,-0.1362 0.38,-0.2037 0.56625,-0.2037 0.14625,0 0.27625,0.029 0.3875,0.085 l 0.27125,0.2387 c 0.0687,0.1025 0.1225,0.2263 0.16125,0.37 0.0363,0.1438 0.0538,0.3425 0.0538,0.595 l 0,2.9688 0.0362,0.1025 0.115,0.072 0.225,0.044 c 0.095,0.01 0.215,0.015 0.35875,0.015 0.14125,0 0.25875,0 0.35375,-0.015 l 0.225,-0.044 0.115,-0.072 0.0362,-0.1025 0,-3.2138 z m -6.52625,-3.925 -0.0387,-0.105 -0.125,-0.076 -0.23375,-0.046 c -0.0975,-0.011 -0.2225,-0.018 -0.37375,-0.018 -0.14625,0 -0.26875,0.01 -0.36625,0.018 l -0.23625,0.046 -0.13,0.076 -0.0362,0.105 0,7.1263 0.0362,0.1062 0.1275,0.075 0.23625,0.048 c 0.0975,0.011 0.2225,0.018 0.36875,0.018 0.15125,0 0.27625,-0.01 0.37375,-0.018 l 0.23375,-0.048 0.125,-0.075 0.0387,-0.1062 0,-7.1263 z"
       id="path1094"
       style="fill:#1c63b7;fill-opacity:1;fill-rule:nonzero;stroke:none" />
    <path
       d="m 181.43981,1014.5629 c 0,-0.385 -0.0312,-0.7125 -0.0975,-0.9825 -0.0663,-0.27 -0.17625,-0.5063 -0.325,-0.7088 -0.14875,-0.2037 -0.34625,-0.3612 -0.58875,-0.4787 -0.24375,-0.1163 -0.54125,-0.175 -0.895,-0.175 -0.28375,0 -0.5575,0.061 -0.81875,0.1837 -0.26375,0.1225 -0.52,0.3088 -0.77375,0.5575 l 0,-2.8762 -0.0362,-0.105 -0.1175,-0.079 -0.225,-0.049 c -0.095,-0.012 -0.2125,-0.017 -0.35625,-0.017 -0.14375,0 -0.26125,0 -0.35625,0.017 l -0.225,0.049 -0.11875,0.079 -0.035,0.105 0,7.67 0.035,0.1025 0.11875,0.073 0.225,0.044 c 0.095,0.01 0.2125,0.015 0.35625,0.015 0.14375,0 0.26125,-0.01 0.35625,-0.015 l 0.225,-0.044 0.1175,-0.073 0.0362,-0.1025 0,-3.4588 c 0.205,-0.26 0.405,-0.4587 0.59375,-0.595 0.1925,-0.135 0.38,-0.2037 0.56625,-0.2037 0.14875,0 0.2775,0.029 0.3875,0.085 l 0.27125,0.2387 c 0.0712,0.1038 0.125,0.2263 0.16125,0.37 0.0362,0.1438 0.0563,0.3425 0.0563,0.595 l 0,2.9688 0.0337,0.1025 0.1175,0.073 0.225,0.044 c 0.095,0.01 0.215,0.015 0.35875,0.015 0.13875,0 0.25625,-0.01 0.35125,-0.015 l 0.225,-0.044 0.1175,-0.073 0.0337,-0.1025 0,-3.19 z m -6.045,2.4087 -0.0312,-0.1662 -0.0512,-0.081 -0.0663,-0.021 -0.09,0.021 -0.1225,0.046 -0.16625,0.046 -0.21,0.021 c -0.22875,0 -0.39,-0.071 -0.47875,-0.2138 -0.09,-0.1412 -0.13375,-0.3537 -0.13375,-0.6387 l 0,-2.4438 1.1375,0 0.16875,-0.1362 c 0.0387,-0.091 0.0588,-0.2438 0.0588,-0.4575 0,-0.1138 -0.005,-0.2088 -0.015,-0.2863 l -0.0437,-0.1837 -0.0738,-0.096 -0.1,-0.029 -1.1325,0 0,-1.1613 -0.0362,-0.105 -0.115,-0.079 -0.225,-0.046 c -0.095,-0.01 -0.215,-0.015 -0.35875,-0.015 -0.13875,0 -0.25875,0 -0.35375,0.015 l -0.2275,0.046 -0.115,0.079 -0.0337,0.105 0,1.1613 -0.6175,0 -0.1025,0.029 -0.0712,0.096 -0.044,0.1837 c -0.01,0.077 -0.015,0.1725 -0.015,0.2863 0,0.2137 0.02,0.3662 0.0588,0.4575 l 0.16875,0.1362 0.6225,0 0,2.6663 c 0,0.3187 0.0337,0.595 0.1,0.8275 0.0662,0.2337 0.16875,0.4275 0.31,0.58 0.13875,0.155 0.315,0.2687 0.53,0.3425 0.215,0.074 0.46625,0.11 0.75875,0.11 l 0.3225,-0.018 0.2975,-0.049 0.24,-0.076 0.15375,-0.099 0.085,-0.1925 c 0.0225,-0.091 0.0325,-0.2225 0.0325,-0.3938 l -0.015,-0.2687 z m -4.52875,-6.8887 -0.0362,-0.105 -0.1175,-0.079 -0.225,-0.049 c -0.0925,-0.012 -0.2125,-0.017 -0.35625,-0.017 -0.14375,0 -0.26125,0 -0.35625,0.017 l -0.225,0.049 -0.1175,0.079 -0.0362,0.105 0,7.67 0.0362,0.1025 0.1175,0.073 0.225,0.044 c 0.095,0.01 0.2125,0.015 0.35625,0.015 0.14375,0 0.26375,-0.01 0.35625,-0.015 l 0.225,-0.044 0.1175,-0.073 0.0362,-0.1025 0,-7.67 z m -4.375,6.3462 c -0.17875,0.2025 -0.35375,0.3563 -0.5275,0.46 -0.17375,0.1063 -0.36125,0.1588 -0.56875,0.1588 -0.24375,0 -0.4375,-0.062 -0.57375,-0.1875 -0.13875,-0.1238 -0.2075,-0.295 -0.2075,-0.5125 0,-0.1288 0.0238,-0.2425 0.0738,-0.3413 l 0.22875,-0.2537 c 0.105,-0.07 0.2425,-0.1225 0.41,-0.1575 0.16625,-0.035 0.36875,-0.053 0.60625,-0.053 l 0.55875,0 0,0.8862 z m 1.4425,-2.1575 c 0,-0.3575 -0.0437,-0.6675 -0.12875,-0.9275 -0.0862,-0.2612 -0.2225,-0.4737 -0.41,-0.6387 -0.18625,-0.165 -0.425,-0.2875 -0.71375,-0.3675 -0.29,-0.08 -0.6375,-0.12 -1.0475,-0.12 -0.22875,0 -0.45125,0.019 -0.66625,0.056 -0.2175,0.036 -0.415,0.084 -0.5975,0.1425 -0.18375,0.059 -0.3425,0.1212 -0.47875,0.19 -0.1375,0.067 -0.2325,0.13 -0.28625,0.1862 l -0.11,0.1875 c -0.0212,0.071 -0.0312,0.1675 -0.0312,0.2875 l 0.0175,0.245 0.0513,0.1863 0.08,0.1175 0.115,0.04 0.24125,-0.081 c 0.1,-0.054 0.2225,-0.1163 0.37125,-0.1813 0.14625,-0.065 0.3175,-0.1262 0.51,-0.18 0.19125,-0.055 0.41125,-0.082 0.655,-0.082 0.1875,0 0.34375,0.02 0.47125,0.059 0.12625,0.039 0.22625,0.099 0.3025,0.1813 0.0762,0.081 0.13125,0.1837 0.16375,0.3062 0.0337,0.1225 0.0487,0.265 0.0487,0.4288 l 0,0.315 -0.5075,0 c -0.46125,0 -0.8675,0.035 -1.21875,0.105 -0.34875,0.07 -0.6425,0.1775 -0.87625,0.3237 -0.2375,0.145 -0.4125,0.33 -0.5325,0.5538 -0.1175,0.2237 -0.17625,0.4875 -0.17625,0.79 0,0.28 0.045,0.525 0.14,0.735 0.0925,0.21 0.2225,0.3862 0.3925,0.5275 0.16875,0.1425 0.36875,0.2487 0.60125,0.3212 0.23125,0.071 0.485,0.1063 0.76125,0.1063 0.335,0 0.6375,-0.062 0.91125,-0.1913 0.275,-0.1275 0.52,-0.3062 0.7325,-0.5375 l 0,0.415 0.0512,0.1288 0.1675,0.067 c 0.0812,0.014 0.2075,0.02 0.38375,0.02 0.16125,0 0.285,-0.01 0.36875,-0.02 l 0.185,-0.067 0.0587,-0.1288 0,-3.4987 z m -9.2575,0.3088 c 0.007,-0.1825 0.0362,-0.355 0.085,-0.5163 0.0488,-0.1612 0.1175,-0.3025 0.21,-0.42 0.0913,-0.1187 0.205,-0.2125 0.3425,-0.2825 0.13875,-0.07 0.3025,-0.105 0.4875,-0.105 0.37125,0 0.6425,0.1175 0.82125,0.3513 0.175,0.2362 0.25875,0.56 0.24625,0.9725 l -2.1925,0 z m 3.61625,0.1862 c 0,-0.365 -0.0475,-0.7037 -0.14,-1.015 -0.0925,-0.31 -0.23875,-0.58 -0.43875,-0.8075 -0.19625,-0.2275 -0.45,-0.405 -0.76,-0.5337 -0.31,-0.1275 -0.68125,-0.1925 -1.1175,-0.1925 -0.4125,0 -0.78125,0.069 -1.11125,0.205 -0.3275,0.135 -0.6075,0.3325 -0.835,0.5912 -0.23,0.2588 -0.405,0.5738 -0.525,0.945 -0.1225,0.3713 -0.1825,0.7888 -0.1825,1.2513 0,0.4862 0.0588,0.91 0.1725,1.2712 0.115,0.3613 0.28875,0.6613 0.5225,0.8988 0.2325,0.235 0.5225,0.4137 0.8725,0.53 0.34625,0.1175 0.75125,0.1737 1.215,0.1737 0.25625,0 0.49875,-0.015 0.7225,-0.047 0.2275,-0.034 0.4275,-0.072 0.60125,-0.1175 0.175,-0.044 0.32,-0.09 0.4325,-0.1362 0.11125,-0.047 0.1825,-0.084 0.2075,-0.1113 l 0.06,-0.085 0.035,-0.1075 0.0188,-0.155 0.005,-0.2187 -0.01,-0.2413 -0.0312,-0.1487 -0.0588,-0.074 -0.0875,-0.02 -0.2275,0.055 c -0.0925,0.038 -0.21,0.079 -0.35125,0.1225 -0.14375,0.045 -0.31,0.086 -0.505,0.1225 -0.19375,0.037 -0.42,0.056 -0.67625,0.056 -0.2525,0 -0.47125,-0.034 -0.65,-0.1 -0.1825,-0.065 -0.33,-0.1613 -0.44375,-0.2888 -0.115,-0.1262 -0.19875,-0.28 -0.2525,-0.46 -0.0513,-0.1812 -0.0775,-0.3825 -0.0775,-0.6037 l 3.16625,0 c 0.14125,0 0.25125,-0.043 0.33,-0.1288 0.08,-0.085 0.12,-0.2175 0.12,-0.3962 l 0,-0.2338 z m -6.3625,-4.1525 -0.04,-0.105 -0.12375,-0.076 -0.235,-0.046 c -0.095,-0.011 -0.21625,-0.018 -0.36625,-0.018 -0.15125,0 -0.2775,0.01 -0.375,0.018 l -0.235,0.046 -0.1225,0.076 -0.0362,0.105 0,2.77 -2.825,0 0,-2.77 -0.0337,-0.105 -0.1225,-0.076 -0.23375,-0.046 c -0.0975,-0.011 -0.2225,-0.018 -0.37375,-0.018 -0.14625,0 -0.27125,0.01 -0.36875,0.018 l -0.23625,0.046 -0.1275,0.076 -0.0362,0.105 0,7.1275 0.0362,0.105 0.1275,0.076 0.23625,0.046 c 0.0975,0.011 0.2225,0.017 0.36875,0.017 0.15125,0 0.27625,-0.01 0.37375,-0.017 l 0.23375,-0.046 0.1225,-0.076 0.0337,-0.105 0,-3.05 2.825,0 0,3.05 0.0362,0.105 0.1225,0.076 0.235,0.046 c 0.0975,0.011 0.22375,0.017 0.375,0.017 0.15,0 0.27125,-0.01 0.36625,-0.017 l 0.235,-0.046 0.12375,-0.076 0.04,-0.105 0,-7.1275 z"
       id="path1098"
       style="fill:#1c63b7;fill-opacity:1;fill-rule:nonzero;stroke:none" />
    <path
       d="m 128.49984,1009.0604 c 1.10875,-0.2525 1.98,-0.57 2.6175,-0.9537 0.63,-0.3813 1.17625,-0.835 1.63625,-1.3638 l -20.18125,0 0,2.4288 16.25,0 -0.3225,-0.1113 z m -2.11375,-4.7787 c -0.3125,0.405 -0.7175,0.6575 -1.21375,0.7562 -0.64125,0.1438 -1.1425,0.24 -1.51125,0.29 l 10.0325,0 c 0.34375,-0.7187 0.54625,-1.5287 0.61,-2.4287 l -7.44875,0 c -0.005,0.52 -0.15875,0.9812 -0.46875,1.3825 m -6.3425,-3.8175 3.28375,0 c 1.36375,0 2.2925,0.2087 2.7875,0.625 0.1375,0.1162 0.25375,0.2487 0.35375,0.3937 l 7.8175,0 c -0.0825,-0.8987 -0.31,-1.70749 -0.67875,-2.42749 l -21.035,0 0,2.42749 7.47125,0 0,-1.0187 z m -34.384996,-1.40879 -22.64625,0 0,2.42749 22.64625,0 0,-2.42749 z m -38.115,1.17379 c 0.43625,-0.36629 1.08875,-0.55004 1.955,-0.55004 1.05,0 1.875,0.24625 2.47125,0.73874 0.3225,0.2675 0.585,0.625 0.78875,1.065 l 7.2675,0 c -0.1825,-0.9137 -0.46875,-1.72124 -0.8525,-2.42749 l -18.295,0 c -0.45,0.77625 -0.725,1.58499 -0.825,2.42749 l 6.8375,0 c 0.0225,-0.4887 0.2375,-0.9075 0.6525,-1.2537 m 23.06375,16.6312 7.45375,0 0,-2.4288 -7.45375,0 0,2.4288 z m 41.964996,0 7.47125,0 0,-2.4288 -7.47125,0 0,2.4288 z m 20.99125,-2.4288 -8.54,0 1.31875,2.4288 8.48125,0 -1.26,-2.4288 z m -3.29875,-18.24369 c -1.215,-0.395 -2.975,-0.5925 -5.2775,-0.5925 l -12.415,0 0,2.04375 20.0275,0 c -0.645,-0.6725 -1.42375,-1.15625 -2.335,-1.45125 m -17.6925,23.49749 7.47125,0 0,-1.41 -7.47125,0 0,1.41 z m 22.98375,-1.41 -8.4475,0 0.76375,1.41 8.41625,0 -0.7325,-1.41 z m -33.4475,0 0.4275,1.41 7.7975,0 -0.5275,-1.41 -7.6975,0 z m -31.501246,1.41 7.45375,0 0,-1.41 -7.45375,0 0,1.41 z m 15.05125,-24.08999 -22.64625,0 0,2.04375 22.64625,0 0,-2.04375 z m -28.37375,1.30875 c -1.61625,-1.145 -3.965,-1.71875 -7.04375,-1.71875 -2.5075,0 -4.4825,0.315 -5.925,0.945 -0.92625,0.405 -1.7,0.90875 -2.3275,1.50875 l 16.14,0 c -0.26125,-0.26625 -0.53625,-0.5175 -0.84375,-0.735 m 44.001246,-1.30875 -8.1225,0 -0.76875,2.04375 9.6575,0 -0.76625,-2.04375 z m -17.197496,24.08999 7.602496,0 0.425,-1.41 -7.497496,0 -0.53,1.41 z m -33.80125,0.41 c 2.33375,0 4.2675,-0.3375 5.80125,-1.01 0.5275,-0.2325 1.0125,-0.5038 1.4575,-0.81 l -15.1325,0 c 1.6575,1.2137 4.28,1.82 7.87375,1.82 m 56.631246,-9.5075 -19.402496,0 -0.915,2.4275 21.227496,0 -0.91,-2.4275 z m 5.65375,2.4275 7.47125,0 0,-2.4275 -7.47125,0 0,2.4275 z m -14.3775,-7.6875 6.74625,0 -0.91125,-2.4287 -6.5775,0 0.7425,2.4287 z m -45.343746,9.2775 c -0.57375,0.4975 -1.39375,0.7462 -2.45625,0.7462 -1.1275,0 -2.04625,-0.31 -2.76125,-0.92 l -7.95375,0 c 0.32375,0.8863 0.76875,1.695 1.3375,2.4288 l 18.09625,0 c 0.2,-0.2363 0.3875,-0.48 0.55875,-0.7413 0.35375,-0.5412 0.6325,-1.105 0.84,-1.6875 l -7.47625,0 -0.185,0.1738 z m 79.821246,-1.8913 c -0.175,-0.35 -0.5225,-0.85 -1.0425,-1.4975 -0.195,-0.2412 -0.37125,-0.45 -0.53,-0.6287 l -8.425,0 c 0.36125,0.32 0.765,0.9 1.20875,1.74 l 0.37375,0.6875 8.57125,0 -0.15625,-0.3013 z m -12.62875,-9.8149 -7.47125,0 0,2.4287 7.47125,0 0,-2.4287 z m -11.6825,11.5324 -22.294996,0 -0.9125,2.4288 7.384996,0 0.34625,-1.1513 8.4475,0 0.34875,1.1513 7.5925,0 -0.9125,-2.4288 z m -5.77625,-15.37619 -10.725,0 -0.91375,2.42749 12.55125,0 -0.9125,-2.42749 z m -46.277496,6.27249 c -1.4325,-0.62 -3.55875,-1.2337 -6.37875,-1.8412 -0.89375,-0.1863 -1.5575,-0.3813 -2.005,-0.5875 l -7.89,0 c 0.085,0.8912 0.33875,1.7 0.76625,2.4287 l 15.5075,0 z m -4.49625,5.26 c 0.4925,0.1987 0.85625,0.4037 1.08625,0.6125 0.54375,0.4925 0.8175,1.05 0.8175,1.6737 l -0.007,0.1413 7.16125,0 c 0.0562,-0.3813 0.085,-0.77 0.085,-1.1675 0,-0.435 -0.0387,-0.8538 -0.1075,-1.26 l -9.035,0 z m 18.79625,-5.26 7.45375,0 0,-2.4287 -7.45375,0 0,2.4287 z m 28.757496,3.8438 7.02125,0 -0.91375,-2.4288 -6.8475,0 0.74,2.4288 z m -28.757496,3.8437 7.45375,0 0,-2.4275 -7.45375,0 0,2.4275 z m -24.22625,-1.3275 -7.2875,0.024 c 0.0387,0.4512 0.11,0.8825 0.195,1.3037 l 7.3225,0 c -0.20125,-0.4875 -0.14,-0.6487 -0.23,-1.3275 m 24.22625,-2.5162 7.45375,0 0,-2.4287 -7.45375,0 0,2.4287 z m 25.028746,-2.4287 -6.672496,0 -0.915,2.4287 6.848746,0 0.73875,-2.4287 z m -36.984996,0 -16.69625,0 0.15125,0.1387 c 1.0225,0.8938 2.55375,1.6575 4.59,2.29 l 13.7425,0 c -0.12625,-0.3062 -0.27375,-0.6025 -0.44625,-0.8887 -0.34,-0.5625 -0.78875,-1.0738 -1.34125,-1.54 m 38.157496,-3.8438 -6.39625,0 -0.913746,2.4288 6.569996,0 0.74,-2.4288 z"
       id="path1102"
       style="fill:#1c63b7;fill-opacity:1;fill-rule:nonzero;stroke:none" />
    <path
       d="m 35.577344,962.66166 -11.655,23.72375 -23.40000014,3.04 15.24625014,18.05879 -3.68375,26.3499 21.42,-11.3787 16.72125,11.5162 2.4875,-1.105 -19.255,-16.0775 -16.2625,8.7525 4.23875,-19.3012 -11.6550001,-13.77499 17.0925001,-2.395 8.56625,-17.13625 10.59625,19.1175 1.38125,-1.33625 -11.83875,-28.05375 z"
       id="path1106"
       style="fill:#1c63b7;fill-opacity:1;fill-rule:nonzero;stroke:none" />
    <path
       d="m 143.64234,993.46541 0,38.82119"
       id="path1110"
       style="fill:none;stroke:#4f4c4d;stroke-width:1.14499998;stroke-linecap:butt;stroke-linejoin:miter;stroke-miterlimit:4;stroke-opacity:1;stroke-dasharray:none" />
  </g>
</svg>
