<svg width="283" height="77" viewBox="0 0 283 77" fill="none" xmlns="http://www.w3.org/2000/svg">
<rect width="283" height="77" rx="25" fill="#FFFEFE"/>
<path d="M231.997 65.8983C231.02 65.8038 230.153 65.6115 229.093 65.2543C227.634 64.7631 226.629 64.3609 226.361 64.1598C226.201 64.0411 225.943 63.9103 225.788 63.8719C225.632 63.8323 225.505 63.7554 225.505 63.7015C225.505 63.6477 225.452 63.6037 225.387 63.6037C225.252 63.6037 225.057 63.4598 223.766 62.4015C223.258 61.985 222.607 61.3938 222.321 61.0861C222.034 60.7784 221.765 60.5256 221.723 60.5245C221.5 60.519 219.981 58.4398 219.029 56.8365C217.952 55.0233 217.012 52.3694 216.758 50.4165C216.654 49.6198 216.616 49.5956 215.815 49.7957C215.435 49.8913 214.561 50.0001 213.873 50.0385C211.994 50.1429 210.532 49.9484 208.372 49.3044C207.746 49.1176 207.605 49.2099 207.463 49.899C207.142 51.4638 206.268 53.0287 204.926 54.4419C203.018 56.4508 201.04 57.6673 198.544 58.3662C196.714 58.8783 195.406 59.0289 192.782 59.0267C189.949 59.0245 189.61 58.9871 184.846 58.1475C183.438 57.8992 181.365 57.409 177.128 56.3233C169.606 54.3969 169.419 54.3584 167.398 54.3474C165.926 54.3386 165.673 54.3661 164.808 54.632C164.281 54.7936 163.655 55.0266 163.417 55.1485C162.808 55.4628 161.665 56.6903 161.322 57.4003C161.073 57.9146 160.988 57.9992 160.725 57.9992C160.383 57.9992 159.678 57.5277 159.308 57.0519C158.754 56.3409 159.485 54.9354 160.929 53.9375C162.504 52.8485 164.041 52.5188 166.582 52.7265C168.148 52.8551 170.349 53.254 171.42 53.6034C171.779 53.721 173.124 54.087 174.41 54.4178C175.696 54.7496 177.041 55.0991 177.399 55.1969C177.758 55.2936 178.614 55.5255 179.302 55.7123C180.589 56.0618 181.166 56.1892 184.127 56.7783C189.547 57.8563 193.512 57.7827 197.358 56.531C200.916 55.3716 204.095 52.4419 205.192 49.3066C205.363 48.8209 205.502 48.3154 205.502 48.1835C205.501 48.0033 205.24 47.767 204.447 47.2297C203.869 46.8373 203.257 46.3835 203.089 46.2219C202.921 46.0604 202.784 45.9428 202.784 45.9604C202.784 46.0076 201.731 45.0626 201.168 44.5109C200.906 44.2548 200.65 44.0724 200.597 44.1054C200.544 44.1384 200.501 44.0966 200.501 44.0131C200.501 43.8658 198.211 41.4976 197.997 41.424C197.94 41.4031 197.892 41.3174 197.892 41.2317C197.892 41.146 197.854 41.0756 197.808 41.0756C197.761 41.0756 197.199 40.5064 196.558 39.8108C195.61 38.7822 195.391 38.4844 195.391 38.2151C195.391 37.9569 195.456 37.8591 195.682 37.7712C196.075 37.6206 196.449 37.7206 197.197 38.1756C198.041 38.6888 198.291 38.6492 198.647 37.9448C198.92 37.4041 198.925 37.3657 198.891 35.259C198.872 34.0831 198.833 33.0809 198.803 33.0326C198.773 32.9831 197.918 32.9436 196.904 32.9436C194.849 32.9436 194.6 32.8853 193.797 32.2194C193.306 31.8139 193.191 31.4611 193.516 31.3622C193.62 31.3303 196.274 31.3105 199.414 31.3193C203.609 31.3303 205.244 31.2985 205.583 31.2006C205.929 31.1006 206.149 31.0974 206.453 31.1875C206.736 31.271 208.334 31.2919 211.644 31.2545C214.275 31.2248 216.574 31.205 216.754 31.2116C217.369 31.2347 231.539 31.2358 232.028 31.2127C232.296 31.1996 233.527 31.216 234.761 31.249C236.897 31.305 238.047 31.2127 237.518 31.027C237.398 30.9853 237.154 30.8809 236.974 30.7951C235.61 30.1413 231.601 29.316 227.408 28.8259C226.57 28.7281 225.641 28.6028 225.342 28.5467C225.043 28.4918 224.481 28.3918 224.092 28.3247C221.375 27.8588 218.209 26.6368 216.699 25.473C216.491 25.3115 216.035 24.9653 215.688 24.7027C214.417 23.7433 212.816 21.7004 212.347 20.4421C211.954 19.3828 211.673 17.7124 211.751 16.8827C211.953 14.6958 212.654 13.0628 214.083 11.4419C214.888 10.5276 215.211 10.255 216.167 9.68029C218.233 8.4363 219.844 8.00442 222.426 8.00003C225.319 7.99563 227.313 8.5451 228.383 9.64293C228.838 10.11 228.874 10.1814 228.69 10.2407C228.575 10.277 228.239 10.232 227.945 10.1407C225.268 9.30995 222.774 9.37039 220.09 10.332C218.235 10.9968 216.888 11.9639 215.644 13.5276C214.542 14.9101 213.874 16.72 213.809 18.4926C213.703 21.3564 215.169 23.9994 217.545 25.2291C217.86 25.3917 218.252 25.5961 218.415 25.6818C219.171 26.0829 222.131 26.8247 223.44 26.9434C224.201 27.0115 225.789 27.206 226.701 27.3434C227.09 27.4027 227.946 27.528 228.603 27.6236C230.21 27.8555 232.201 28.2061 232.735 28.35C235.096 28.9874 237.171 29.8424 238.659 30.7896L239.366 31.2402H247.411C256.362 31.2402 256.371 31.2402 258.581 30.5116C259.748 30.1281 260.627 29.3984 260.844 28.6346C260.998 28.0918 260.966 27.2863 260.773 26.7972C260.594 26.3445 260.39 26.2258 259.526 26.0719C258.988 25.9763 258.013 26.2544 256.742 26.8654C255.853 27.2918 255.542 27.3863 254.889 27.4258C254.154 27.4698 254.051 27.4456 253.204 27.0368C252.068 26.4873 251.27 25.773 250.95 25.0192C250.711 24.4609 250.71 24.4433 250.904 24.0103C251.103 23.5653 251.599 23.1642 251.953 23.1631C252.278 23.1631 253.369 23.7807 253.748 24.1796C254.141 24.595 254.119 24.6576 253.467 24.9181C253.104 25.0642 252.901 25.3181 252.901 25.628C252.901 25.9016 253.258 25.8346 254.365 25.3565C255.598 24.8247 256.797 24.4884 257.475 24.484C257.946 24.4818 259.203 24.8466 259.763 25.1477C260.328 25.4521 261.732 26.5796 262.104 27.028C262.922 28.0159 263.233 29.4358 262.813 30.2677C262.229 31.4248 261.258 32.0325 259.206 32.5227C258.349 32.7271 257.705 32.7512 250.297 32.8479C245.905 32.9051 242.293 32.9699 242.271 32.993C242.177 33.0875 242.61 33.582 243.235 34.0974C243.935 34.6744 245.84 36.803 246.485 37.7305C248.382 40.4591 249.532 43.3065 249.966 46.3505C250.095 47.2582 250.093 50.2176 249.963 51.2957C249.599 54.3079 248.163 57.7376 246.284 60.086C245.828 60.6564 243.883 62.6147 243.772 62.6147C243.732 62.6147 243.335 62.8905 242.892 63.2279C241.987 63.9136 240.762 64.5411 239.34 65.0455C237.807 65.5906 236.852 65.795 235.289 65.9104C233.648 66.0324 233.359 66.0313 231.997 65.8983Z" fill="#0F3A24"/>
<path d="M241.364 61.3444C239.321 62.8972 236.292 64.1049 233.931 64.3094C231.04 64.5599 229.586 64.3797 226.701 63.4126C225.875 63.1357 225.077 62.7258 224.459 62.2631C223.58 61.6027 222.478 60.4158 221.981 59.5927C221.871 59.4114 221.669 59.14 221.532 58.9883C221.082 58.4905 219.654 55.5135 219.292 54.3179C218.885 52.9728 218.401 49.2023 218.607 48.9936C218.707 48.8925 220.298 48.0507 222.248 47.0671C223.416 46.4781 224.61 46.0704 225.829 45.8451C226.697 45.6847 226.852 45.6836 227.608 45.8418C228.37 46.0012 228.988 46.2715 230.126 46.9419C230.644 47.2474 231.121 47.3792 231.206 47.2397C231.308 47.0726 229.961 45.9198 229.095 45.4341C227.838 44.7286 227.173 44.4857 226.01 44.3077C225.063 44.1638 224.795 44.1638 223.702 44.3077C223.021 44.3967 222.306 44.544 222.11 44.6341C221.914 44.7242 221.576 44.8704 221.359 44.9594C221.141 45.0484 220.517 45.3693 219.972 45.6737C218.644 46.4144 218.591 46.4275 218.493 46.0517C218.409 45.7275 218.4 33.1668 218.483 33.081C218.511 33.0536 221.46 33.0239 225.036 33.0151L231.539 32.9986L231.57 34.1404C231.6 35.236 231.589 35.3009 231.299 35.7262C230.463 36.9504 228.798 38.2999 227.24 39.0175C225.805 39.679 224.018 40.0032 223.132 39.7625C222.633 39.6263 222.544 39.3878 222.694 38.5779C222.947 37.2075 224.502 36.0229 226.784 35.4602C227.436 35.2998 228.435 35.4229 229.572 35.8053C230.576 36.1427 230.723 36.0767 230.246 35.5075C229.83 35.0097 228.575 34.4009 227.232 34.0426C225.879 33.6833 225.243 33.6316 225.015 33.8624C224.934 33.9448 224.607 34.047 224.29 34.0899C223.383 34.2107 222.022 34.9723 221.345 35.7361C220.546 36.6394 220.374 37.8548 220.913 38.7911C221.224 39.3329 222.405 40.3691 223.165 40.7681C223.84 41.123 224.952 41.4054 225.668 41.4043C227.055 41.4032 228.687 40.9692 230.06 40.2373C231.093 39.6867 231.105 39.7087 230.341 40.7856C230.044 41.2043 229.962 41.4252 229.962 41.8087C229.962 42.5571 230.131 42.789 231.205 43.5209C231.53 43.7418 231.782 43.822 232.156 43.8231C232.611 43.8231 232.7 43.7802 232.998 43.4143C233.181 43.189 233.36 42.8308 233.395 42.6176C233.429 42.4044 233.5 42.0945 233.552 41.9296C233.61 41.745 233.604 41.6043 233.538 41.5626C233.473 41.5219 233.47 41.4461 233.529 41.3681C233.584 41.2977 233.661 41.1054 233.7 40.9395C233.844 40.3296 235.662 38.8164 236.667 38.4702C237.38 38.224 238.448 38.3284 239.174 38.7142C239.66 38.9724 239.789 39.1142 240.066 39.6889C240.746 41.0977 241.138 43.0835 240.991 44.3682C240.766 46.3473 240.165 47.8056 239.126 48.8958C238.368 49.6903 237.858 50.0167 236.766 50.4046C235.924 50.7035 234.048 50.7101 232.94 50.4189C232.206 50.2255 231.129 49.7397 230.678 49.3969C230.495 49.2584 230.071 49.2551 230.071 49.3925C230.071 49.7551 231.068 50.4716 232.626 51.2299C234.206 51.998 234.753 52.1156 236.757 52.1167C238.478 52.1178 238.505 52.1145 239.312 51.7629C240.298 51.3343 241.374 50.3925 241.908 49.4947C242.294 48.843 242.784 47.5979 242.848 47.099C242.87 46.9375 242.941 46.5089 243.005 46.1473C243.257 44.7429 242.762 42.1153 241.989 40.7461C241.06 39.1021 238.737 37.2954 237.041 36.8976C236.411 36.7504 235.212 36.8053 234.366 37.0207C233.529 37.2339 233.482 37.1295 233.982 36.1921C234.557 35.113 234.571 34.6569 234.039 34.1822C233.639 33.8239 233.529 33.3382 233.789 33.0755C233.997 32.8656 240.498 32.8909 241 33.103C241.208 33.1909 241.377 33.3129 241.377 33.3745C241.377 33.4371 241.512 33.5591 241.676 33.6459C242.009 33.8217 244.149 35.9657 244.349 36.324C244.418 36.4493 244.713 36.8866 245.003 37.2954C245.292 37.7053 245.669 38.29 245.84 38.5966C246.673 40.0922 247.66 43.0648 247.906 44.822C248.172 46.7254 248.055 49.6232 247.638 51.4101C247.128 53.6025 246.084 56.0806 245.05 57.5542C244.219 58.7389 242.591 60.4136 241.364 61.3444Z" fill="white"/>
<path d="M216.176 47.4561C215.891 47.689 214.786 48.0418 213.656 48.2605C213.208 48.3473 212.668 48.4363 212.46 48.4583C211.732 48.5341 208.923 48.3649 208.41 48.2143L207.894 48.0638V40.5647C207.894 36.4404 207.931 33.0502 207.975 33.0304C208.02 33.0106 208.499 33.0117 209.041 33.0315L210.025 33.0678L210.019 34.5173C210.014 35.8349 210.037 36.0107 210.271 36.4602C211.153 38.1514 213.406 39.6185 215.26 39.7086C215.703 39.7306 216.147 39.7745 216.246 39.8064C216.412 39.8592 216.427 40.2042 216.421 43.5626C216.415 47.2374 216.414 47.2605 216.176 47.4561Z" fill="white"/>
<path d="M205.805 42.2876C205.823 44.4316 205.808 46.346 205.773 46.5427C205.729 46.7899 205.649 46.8998 205.514 46.8998C205.249 46.8998 204.167 46.1789 203.436 45.5152C203.107 45.2163 202.57 44.7701 202.241 44.524C201.197 43.7437 198.378 40.8195 198.491 40.6348C198.523 40.5832 198.914 40.4579 199.36 40.3579C200.032 40.2063 200.227 40.1106 200.498 39.7996C200.866 39.3744 200.898 39.2656 200.995 38.0809L201.063 37.2292L201.354 37.3007C201.512 37.3391 201.911 37.5095 202.241 37.6787C202.979 38.0578 203.12 38.093 204.591 38.2578L205.774 38.3897L205.805 42.2876Z" fill="white"/>
<path d="M216.247 36.3657C216.07 36.9624 215.495 37.5987 214.83 37.9338C214.174 38.2646 213.455 38.3031 212.923 38.0382C211.85 37.5031 211.759 35.5547 212.73 33.8777C213.261 32.9612 213.299 32.9436 214.699 32.9436C215.388 32.9436 216.047 32.9953 216.163 33.0579C216.354 33.1601 216.373 33.2997 216.373 34.5557C216.373 35.3173 216.317 36.1316 216.247 36.3657Z" fill="white"/>
<path d="M203.606 36.6336C203.145 36.5841 202.996 36.5973 203.111 36.6753C203.246 36.7676 203.237 36.7841 203.056 36.7742C202.11 36.7215 201.128 36.4083 200.907 36.0874C200.809 35.9456 200.904 34.8017 201.054 34.3115C201.11 34.1269 201.378 33.7555 201.648 33.4873L202.141 32.9983L203.686 32.9631C204.588 32.9423 205.355 32.9763 205.529 33.0434L205.828 33.1577V34.3082C205.828 35.7456 205.665 36.0951 204.826 36.4599C204.365 36.6599 204.15 36.6907 203.606 36.6336Z" fill="white"/>
<path d="M153.362 53.7991C153.662 54.398 153.84 54.5782 154.516 54.9672C154.917 55.198 155.147 55.2496 155.796 55.2507C156.26 55.2518 156.751 55.1826 156.982 55.0859C157.545 54.8474 157.368 54.7793 156.744 54.9936C155.93 55.2749 154.909 55.0826 154.232 54.5222C153.951 54.2892 153.584 53.8771 153.414 53.6045C153.037 52.9979 153.011 53.099 153.362 53.7991Z" fill="#171A1F"/>
<path d="M157.834 54.5035C157.8 54.4705 157.712 54.5035 157.638 54.5793C157.532 54.687 157.545 54.7002 157.699 54.6408C157.807 54.5991 157.867 54.5375 157.834 54.5035Z" fill="#171A1F"/>
<path d="M158.32 53.7683C158.26 53.8056 158.211 53.8859 158.211 53.9463C158.211 54.0067 158.26 54.0254 158.32 53.9881C158.38 53.9507 158.429 53.8705 158.429 53.81C158.429 53.7496 158.38 53.7309 158.32 53.7683Z" fill="#171A1F"/>
<path d="M157.734 52.4617C158.103 52.6178 158.579 53.2266 158.471 53.4035C158.341 53.6167 158.589 53.4683 158.826 53.1914C159.363 52.565 159.547 50.9881 159.136 50.5232C158.792 50.1331 158.305 49.9682 157.863 50.0924C157.33 50.2408 157.102 50.5441 157.041 51.1826C156.978 51.8485 157.184 52.2298 157.734 52.4617Z" fill="#171A1F"/>
<path d="M153.486 50.6572C153.236 50.4056 152.863 52.2529 153.06 52.7705C153.18 53.0891 153.305 52.9496 153.208 52.6045C153.105 52.2419 153.228 51.343 153.435 50.9539C153.501 50.8298 153.524 50.6957 153.486 50.6572Z" fill="#171A1F"/>
<path d="M153.75 49.9254C153.692 49.9605 153.646 50.0363 153.646 50.0935C153.646 50.3858 153.9 50.1232 154.176 49.5462C154.348 49.188 154.582 48.755 154.696 48.5847C154.926 48.2385 155.297 47.4495 155.229 47.4495C155.204 47.4495 155.076 47.6352 154.944 47.8616C154.551 48.5319 154.148 49.1385 153.942 49.3682C153.836 49.488 153.773 49.6462 153.801 49.7221C153.83 49.7979 153.806 49.8891 153.75 49.9254Z" fill="#171A1F"/>
<path d="M155.494 46.8449C155.434 46.8823 155.385 46.9625 155.385 47.023C155.385 47.0834 155.434 47.1021 155.494 47.0647C155.554 47.0274 155.602 46.9471 155.602 46.8867C155.602 46.8263 155.554 46.8076 155.494 46.8449Z" fill="#171A1F"/>
<path d="M156.82 44.5582C156.335 45.2659 155.711 46.355 155.716 46.4857C155.719 46.566 155.79 46.5319 155.883 46.4055C156.551 45.5033 156.816 45.1176 157.022 44.745C157.153 44.5099 157.878 43.2889 158.632 42.0329C159.388 40.7757 160.112 39.4087 160.36 39.068C161.5 37.5 161.349 36.9286 161 37.5C160.354 38.5583 159.24 40.3306 159.061 40.4273C158.568 40.6944 158.403 40.4779 157.039 37.7789C156.504 36.7217 155.742 35.2712 155.345 34.5557C154.948 33.8414 154.595 33.1381 154.559 32.9942C154.523 32.8502 154.428 32.6777 154.349 32.6106C154.19 32.4777 154.023 31.8897 154.068 31.6249C154.119 31.3249 154.44 31.1853 155.08 31.1853C155.44 31.1853 155.711 31.137 155.711 31.0721C155.711 30.9974 154.652 30.9633 152.558 30.971C150.655 30.9776 149.428 31.0227 149.466 31.0831C149.499 31.1392 149.592 31.1853 149.67 31.1853C149.915 31.1853 150.77 31.6073 150.943 31.8128C151.181 32.0974 152.246 34.0447 152.952 35.4887C153.287 36.1745 153.745 37.0569 153.97 37.4492C154.398 38.1976 155.124 39.579 156.392 42.057C157.209 43.656 157.255 43.923 156.82 44.5582Z" fill="#171A1F"/>
<path d="M63.0165 44.2964C63.6633 45.0481 64.1145 45.313 65.3158 45.6459C66.2116 45.8943 67.6379 46.0042 67.327 45.8009C67.2367 45.7426 67.0171 45.6932 66.8378 45.6932C66.4366 45.691 65.1592 45.2316 64.5613 44.8745C63.3013 44.1228 62.9719 43.1722 63.6438 42.2272C64.0917 41.5964 64.109 40.9216 63.6851 40.5535C63.3524 40.2634 63.0882 40.2436 62.649 40.4733C62.1859 40.715 62 41.1634 62 42.0338C62 42.9184 62.1848 43.3294 63.0165 44.2964Z" fill="#171A1F"/>
<path d="M113.381 45.6548C113.645 45.6922 113.888 45.7647 113.92 45.8164C113.952 45.868 114.329 45.9076 114.76 45.9032C115.601 45.8944 115.504 45.7131 114.651 45.6988C114.4 45.6944 114.165 45.6416 114.128 45.5812C114.091 45.5207 113.97 45.4713 113.859 45.4713C113.58 45.4713 112.238 44.7438 111.863 44.3888C111.147 43.713 111.027 42.7976 111.573 42.1921C111.842 41.8943 111.899 41.7371 111.899 41.2965C111.899 40.8503 111.853 40.7239 111.614 40.5338C110.506 39.6536 109.536 41.2613 110.108 43.0284C110.493 44.2163 112.056 45.4713 113.381 45.6548Z" fill="#171A1F"/>
<path d="M66.5995 45.479C66.7898 45.4834 67.0442 45.5295 67.1637 45.5812C67.467 45.713 67.7377 45.7108 68.1889 45.5702C69.4761 45.1713 70.6719 44.2866 71.0709 43.4383C71.1677 43.2317 71.2938 43.0338 71.3503 42.9976C71.4079 42.9624 71.5601 42.5833 71.6884 42.1558C71.9363 41.3316 71.9308 40.2898 71.6754 39.403C71.346 38.2568 69.9903 37.2271 67.7399 36.4106C65.2526 35.5084 64.2926 34.9226 63.8447 34.0347C63.4403 33.2358 63.6642 32.238 64.3785 31.6478C65.1406 31.0181 66.8691 30.7071 67.9465 31.0061C68.8205 31.2478 69.5152 31.7621 69.9414 32.4819C70.1458 32.827 70.373 33.1578 70.4469 33.2182C70.5252 33.2819 70.5969 33.6732 70.6176 34.1523C70.6371 34.6051 70.6632 34.1776 70.6752 33.2006L70.6969 31.4258L70.3197 31.5423C69.9751 31.6489 69.8859 31.6248 69.3087 31.2654C68.4074 30.7028 67.8693 30.594 66.3049 30.6621C64.7188 30.7313 64.173 30.9522 63.3794 31.8445C62.5619 32.7643 62.2999 33.4501 62.2423 34.8248C62.1879 36.1337 62.2477 36.3392 62.9522 37.2798C63.4783 37.981 64.5318 38.5535 67.0278 39.4953C69.0825 40.2711 69.7707 40.658 70.1979 41.2822C70.5436 41.7855 70.6708 42.6338 70.486 43.1998C70.336 43.658 69.4489 44.702 69.2097 44.702C69.1195 44.702 68.9216 44.8009 68.7694 44.9218C68.6172 45.0427 68.4085 45.1416 68.3041 45.1416C68.1998 45.1416 67.9313 45.2196 67.7062 45.3141C67.417 45.4361 67.2648 45.4526 67.1822 45.3691C67.0333 45.2185 66.0929 45.2108 66.1853 45.3614C66.2223 45.4218 66.4082 45.4746 66.5995 45.479Z" fill="#171A1F"/>
<path d="M114.892 45.2888C113.826 45.1976 113.801 45.3987 114.862 45.535C115.85 45.6614 116.593 45.5097 117.398 45.0163C117.999 44.6482 118.749 43.9811 118.749 43.8141C118.749 43.7635 118.837 43.6327 118.945 43.525C119.053 43.4174 119.283 42.9844 119.456 42.5635C119.723 41.9162 119.772 41.6437 119.776 40.8052C119.783 39.3315 119.387 38.5106 118.26 37.6699C117.493 37.0963 116.947 36.8326 115.382 36.2776C114.633 36.0117 113.769 35.671 113.463 35.5215C112.802 35.1974 111.956 34.471 111.733 34.0358C111.542 33.6621 111.532 32.7841 111.715 32.3731C111.882 31.9962 112.813 31.2555 113.336 31.0841C113.941 30.8851 115.177 30.8511 115.797 31.0159C116.098 31.0961 116.364 31.1401 116.391 31.1148C116.417 31.0885 116.554 31.1654 116.696 31.2852C117.647 32.0863 117.818 32.2643 117.953 32.5885C118.035 32.7885 118.145 32.9259 118.197 32.894C118.359 32.7929 118.422 33.1478 118.422 34.1545C118.422 34.6907 118.471 35.1589 118.531 35.1963C118.602 35.2402 118.64 34.483 118.64 33.005C118.64 31.572 118.6 30.7456 118.531 30.7456C118.471 30.7456 118.422 30.7961 118.422 30.8588C118.422 30.9214 118.35 31.1489 118.26 31.3654L118.098 31.7577L117.703 31.5214C117.485 31.3918 117.286 31.3071 117.26 31.3335C117.234 31.3599 117.099 31.2665 116.96 31.1258C116.558 30.7192 115.917 30.6049 114.346 30.6599C113.098 30.7038 112.868 30.7423 112.384 30.9928C111.813 31.2874 111.134 31.9555 110.739 32.6138C110.369 33.227 110.16 34.1204 110.16 35.0853C110.16 35.8325 110.208 36.0732 110.45 36.5666C110.611 36.8919 110.934 37.3458 111.169 37.5765C111.64 38.0381 112.976 38.7678 114.074 39.1623C117.397 40.359 117.92 40.6601 118.327 41.6063C118.737 42.5624 118.504 43.4338 117.607 44.2976C117.345 44.5504 116.895 44.8471 116.608 44.957C116.32 45.0668 116.001 45.2031 115.898 45.2581C115.795 45.3141 115.343 45.3273 114.892 45.2888Z" fill="#171A1F"/>
<path d="M117.546 31.7346C117.609 31.7346 117.66 31.7841 117.66 31.8445C117.66 31.905 117.639 31.9544 117.613 31.9544C117.587 31.9544 117.535 31.905 117.498 31.8445C117.461 31.7841 117.483 31.7346 117.546 31.7346Z" fill="#171A1F"/>
<path d="M97.1233 43.4942C97.557 44.4272 98.5235 45.2569 99.4334 45.4756C99.6226 45.5217 100.224 45.5635 100.768 45.5701C101.681 45.58 101.812 45.5536 102.434 45.2283C102.806 45.0349 103.153 44.7954 103.206 44.6964C103.258 44.5975 103.591 44.2173 103.944 43.8514C104.582 43.1931 104.589 43.1887 104.779 43.4129C104.883 43.5371 104.984 43.8591 105.002 44.1283C105.056 44.9316 105.228 45.225 105.691 45.3042C106.177 45.3877 108.746 45.3338 108.747 45.2404C108.747 45.2042 108.551 45.0855 108.311 44.9767C108.072 44.8668 107.815 44.7041 107.74 44.6129C107.639 44.4899 107.59 43.2283 107.543 39.6029C107.475 34.3489 107.485 34.4291 106.813 33.0983C106.527 32.5313 105.659 31.7499 104.864 31.3422C104.259 31.0323 104.18 31.0203 102.768 31.0258C101.32 31.0302 101.29 31.0356 100.539 31.4082C99.6606 31.8456 98.9236 32.5423 98.5104 33.328C98.2115 33.8962 98.1691 34.1028 98.1897 34.8896C98.1995 35.2698 98.2789 35.4336 98.6333 35.8105C99.0431 36.2468 99.091 36.2666 99.5639 36.2127C99.8759 36.1775 100.163 36.0611 100.328 35.9039C100.559 35.6863 100.593 35.5566 100.589 34.9303C100.587 34.5116 100.521 34.0918 100.43 33.9324C99.9574 33.0972 100.614 31.8379 101.746 31.4104C102.721 31.0411 103.585 31.162 104.544 31.8016C105.076 32.1566 105.591 33.2225 105.672 34.1368C105.786 35.3984 105.283 36.2193 104.18 36.5754C103.971 36.6424 103.703 36.7369 103.583 36.7842C103.463 36.8314 102.534 37.1017 101.517 37.3864C99.1258 38.0545 98.2137 38.4457 97.6755 39.0359C97.0374 39.7359 96.8428 40.3667 96.8428 41.7348C96.8428 42.7458 96.8776 42.9634 97.1233 43.4942Z" fill="#171A1F"/>
<path d="M103.995 43.1349C103.369 44.0997 103 44.447 102.221 44.8041C101.616 45.0811 101.388 45.0855 100.969 44.8272C100.508 44.5437 100.065 43.9854 99.7332 43.2733C99.4864 42.7426 99.4517 42.5283 99.4517 41.515C99.4517 40.57 99.493 40.2711 99.681 39.8667C100.237 38.6699 101.223 37.96 103.11 37.3985C104.254 37.0589 104.675 37.0424 104.829 37.3314C104.892 37.449 104.942 38.2303 104.942 39.0765C104.942 41.1777 104.76 41.9568 103.995 43.1349Z" fill="white"/>
<path d="M123.835 44.3251C124.003 44.646 124.693 45.1064 125.388 45.3581C125.87 45.5339 126.264 45.5735 127.554 45.5724C129.06 45.5724 129.113 45.5647 128.75 45.4053C128.541 45.313 128.063 45.1724 127.689 45.0933C126.591 44.8592 125.842 44.1855 125.664 43.2734C125.417 42.0064 125.265 33.2962 125.469 32.1193C125.541 31.7017 125.575 31.6698 126.142 31.4885C126.47 31.383 126.972 31.2687 127.255 31.2346C127.991 31.1445 127.897 30.9753 127.147 31.0401C126.66 31.083 126.407 31.0434 126.005 30.8599L125.489 30.6258L125.488 28.9544C125.486 26.8873 125.38 26.3873 125.085 27.0367C124.898 27.4466 123.747 28.6928 123.271 28.9994C123.025 29.1577 122.732 29.3928 122.619 29.5214C122.505 29.6511 122.361 29.7566 122.299 29.7566C122.106 29.7566 121.273 30.1994 121.123 30.3819C120.97 30.5698 120.945 30.5698 122.195 30.3566C122.615 30.2852 122.656 30.2994 122.711 30.5401C122.745 30.683 122.788 33.2732 122.809 36.2952C122.832 39.5909 122.894 42.0316 122.963 42.3943C123.073 42.9624 123.466 43.9207 123.638 44.0427C123.682 44.0723 123.77 44.1998 123.835 44.3251Z" fill="#171A1F"/>
<path d="M168.225 43.9712C168.642 44.6063 169.099 44.9712 169.923 45.3217C170.472 45.5547 170.687 45.5844 171.638 45.5547C172.629 45.5239 172.778 45.4899 173.323 45.1734C174.001 44.7778 174.806 43.9865 174.863 43.658C174.892 43.492 175.001 43.4294 175.308 43.4041L175.715 43.37V43.8745C175.715 44.5503 175.959 45.1195 176.278 45.1866C176.417 45.2162 177.197 45.2701 178.013 45.3086C179.538 45.38 179.989 45.2789 179.25 45.0327C179.041 44.9624 178.772 44.7789 178.652 44.6239C178.441 44.3536 178.432 44.1854 178.43 40.2095C178.427 34.7248 178.318 34.0137 177.268 32.617C176.796 31.9917 175.932 31.3708 175.187 31.1247C174.713 30.9686 174.382 30.9455 173.394 30.9994C172.031 31.073 171.443 31.2422 170.785 31.7521C169.929 32.4159 169.605 32.7796 169.343 33.372C168.822 34.55 168.896 35.2962 169.596 35.9171C169.933 36.216 170.047 36.2567 170.416 36.2061C171.302 36.0863 171.635 35.3731 171.326 34.2511C170.924 32.7873 171.259 31.9335 172.415 31.4818C173.235 31.162 173.852 31.14 174.555 31.406C175.835 31.8928 176.36 32.6807 176.449 34.25C176.511 35.3489 176.382 35.727 175.796 36.1611C175.401 36.4545 174.371 36.8995 174.088 36.8995C173.988 36.8995 173.664 36.9754 173.37 37.0688C172.842 37.2347 172.5 37.338 171.203 37.7204C169.166 38.3216 168.483 38.7853 167.93 39.9447C167.669 40.4919 167.626 40.7194 167.621 41.57C167.614 42.7107 167.749 43.2437 168.225 43.9712Z" fill="#171A1F"/>
<path d="M175.354 42.2294C174.747 43.5536 174.087 44.3174 173.16 44.7668C172.45 45.1097 172.143 45.0998 171.615 44.713C170.763 44.0877 170.262 42.9031 170.258 41.4964C170.255 40.3942 170.484 39.7601 171.23 38.8117C171.577 38.3722 171.818 38.1919 172.361 37.9722C173.515 37.5029 174.835 37.1194 175.295 37.1194H175.731L175.693 39.3447C175.657 41.5074 175.647 41.5887 175.354 42.2294Z" fill="white"/>
<path d="M78.9604 43.956C79.2605 45.0099 79.367 45.2495 79.5507 45.2868C79.9878 45.3748 80.1095 45.3594 80.3487 45.1901C80.4813 45.0967 80.59 44.9121 80.59 44.7824C80.59 44.6517 80.6574 44.3451 80.7401 44.1011C80.8227 43.8582 80.9379 43.4604 80.9966 43.2186C81.0553 42.9769 81.2369 42.334 81.401 41.79C81.5641 41.2461 81.7848 40.4504 81.8913 40.023C81.9968 39.5955 82.1392 39.1416 82.2066 39.0141C82.3479 38.7482 82.3719 38.2185 82.2425 38.2185C82.1251 38.2185 81.9316 38.8009 81.7968 39.5647C81.6424 40.434 81.5076 40.6702 81.2467 40.5285C81.1347 40.468 80.9945 40.257 80.9368 40.0603C80.8792 39.8636 80.7455 39.4054 80.639 39.0427C80.5335 38.6801 80.2345 37.7218 79.9747 36.913C79.7149 36.1042 79.5018 35.3877 79.5018 35.3195C79.5007 35.2514 79.305 34.5866 79.067 33.8415C78.481 32.014 78.4397 31.7107 78.7299 31.4172C78.8941 31.2513 79.0963 31.1854 79.442 31.1854C79.7073 31.1854 79.9552 31.1359 79.9921 31.0755C80.0367 31.0029 78.8876 30.9656 76.6285 30.9656C74.414 30.9656 73.1975 31.004 73.1975 31.0755C73.1975 31.137 73.4878 31.1854 73.8509 31.1854C74.439 31.1854 74.5434 31.2216 74.8815 31.5425C75.2141 31.8579 75.3446 32.1733 76.0056 34.2624C76.4176 35.5613 77.0829 37.7625 77.4841 39.1526C77.8863 40.5428 78.3005 41.9021 78.4049 42.1747C78.5103 42.4472 78.7604 43.2483 78.9604 43.956Z" fill="#171A1F"/>
<path d="M87.887 42.3373C88.3241 43.8374 88.7372 45.1528 88.81 45.2704C88.8774 45.3824 89.6047 45.2737 89.7917 45.1242C89.8602 45.0693 89.9396 44.9154 89.9689 44.7813C89.9983 44.6473 90.2526 43.7461 90.5364 42.7791C90.819 41.812 91.0984 40.8076 91.1571 40.5461C91.2169 40.2845 91.33 39.9449 91.4094 39.79C91.4887 39.6361 91.5289 39.4471 91.4996 39.3702C91.4702 39.2933 91.4996 39.1966 91.5648 39.1559C91.6975 39.0735 91.6159 38.8779 91.4485 38.8779C91.3887 38.8779 91.3713 38.9295 91.4104 38.9922C91.4485 39.0559 91.4028 39.2273 91.3083 39.3735C91.2126 39.5197 91.1354 39.7175 91.1354 39.8131C91.1354 39.9098 91.056 40.1427 90.9593 40.3329C90.7908 40.6603 90.7745 40.668 90.6321 40.4713C90.4907 40.2746 89.758 38.0328 89.1253 35.8558C88.9677 35.3119 88.5654 34.0349 88.2317 33.0173C87.7153 31.4425 87.5859 31.1524 87.362 31.0667C87.2174 31.0106 86.4922 30.9656 85.7508 30.9656C84.2016 30.9656 84.318 30.8865 84.0179 32.148C83.9136 32.5865 83.7831 32.9733 83.7287 33.0074C83.6755 33.0415 83.6559 33.1096 83.6863 33.1601C83.7168 33.2096 83.669 33.392 83.5798 33.5646C83.4907 33.7371 83.4178 34.0041 83.4178 34.158C83.4167 34.3118 83.3624 34.4931 83.295 34.5613C83.2276 34.6294 83.133 34.8734 83.0852 35.1053C83.0362 35.3371 82.9166 35.7734 82.8199 36.0756C82.6209 36.691 82.4785 37.2339 82.3872 37.724C82.335 38.0042 82.347 38.0273 82.4633 37.8779C82.6057 37.6965 82.6514 37.5592 83.4222 35.0316C83.6711 34.2151 83.9277 33.4052 83.9918 33.2305C84.056 33.0557 84.1136 32.7964 84.119 32.6535C84.1255 32.5118 84.2125 32.3118 84.3136 32.2096C84.4854 32.0359 84.5104 32.037 84.718 32.2272C84.8398 32.3381 84.9898 32.6316 85.0507 32.8788C85.1866 33.4294 85.6725 35.0657 86.2455 36.8998C86.7477 38.5086 87.4359 40.7889 87.887 42.3373Z" fill="#171A1F"/>
<path d="M131.142 44.9219C130.696 44.9219 130.598 44.957 130.598 45.1142C130.598 45.2933 130.826 45.3065 133.887 45.3021C137.012 45.2966 137.882 45.2351 137.882 45.0186C137.882 44.8889 136.83 44.8955 136.589 45.0263C136.29 45.1878 135.949 45.0416 135.709 44.6493C135.498 44.3043 135.491 44.1086 135.491 39.2646V34.2381L135.835 33.5633C136.32 32.6127 137.142 31.9072 138.263 31.4797C140.508 30.6226 142.142 30.8929 142.76 32.2237C142.987 32.7116 142.992 32.8325 142.992 38.5667V44.4131L142.756 44.668C142.549 44.89 142.414 44.9219 141.696 44.9241C140.924 44.9252 140.457 45.0394 140.671 45.1724C140.795 45.2504 146.683 45.3219 147.423 45.2548C147.747 45.2263 147.98 45.1548 147.958 45.09C147.905 44.9252 147.376 44.8878 146.993 45.023C146.599 45.1614 146.002 44.9285 145.788 44.5504C145.69 44.379 145.648 42.9735 145.628 39.2074C145.613 36.3975 145.554 33.8402 145.497 33.5248C145.439 33.2106 145.265 32.7578 145.108 32.5193C144.695 31.8874 143.46 31.0852 142.542 30.8512C141.98 30.7083 139.214 30.6984 139.038 30.8391C138.97 30.8929 138.645 31.0237 138.317 31.1303C137.989 31.2358 137.646 31.383 137.556 31.4567C137.298 31.6688 136.494 31.9545 136.157 31.9545C135.499 31.9545 135.496 31.9369 135.464 27.717L135.436 23.8773L134.578 23.8455L133.72 23.8125L132.73 24.8895C132.186 25.4807 131.581 26.1225 131.387 26.3148C131.192 26.5071 131.033 26.6928 131.033 26.7269C131.033 26.884 131.26 26.7576 131.609 26.4049C132.025 25.9851 132.428 25.9082 132.711 26.1928C132.863 26.3466 132.881 27.3269 132.881 35.3249C132.881 45.3812 132.928 44.7999 132.102 45.0109C131.864 45.0724 131.686 45.0757 131.686 45.0197C131.686 44.9658 131.441 44.9219 131.142 44.9219Z" fill="#171A1F"/>
<path d="M128.811 44.9219C128.433 44.9219 128.362 45.1175 128.721 45.1724C128.886 45.1977 129.034 45.2263 129.049 45.2351C129.064 45.2439 129.076 45.1768 129.076 45.0867C129.076 44.9856 128.974 44.9219 128.811 44.9219Z" fill="#171A1F"/>
<path d="M91.9039 37.203C91.7843 37.4316 91.4614 38.4855 91.4614 38.6514C91.4614 38.9327 91.7767 38.7349 91.8463 38.4107C91.9235 38.0481 92.2648 36.9151 92.716 35.526C93.0443 34.5139 93.1356 34.0425 93.003 34.0425C92.8834 34.0425 92.6257 34.7062 92.7116 34.793C92.7421 34.8238 92.7008 34.9271 92.6214 35.0227C92.4562 35.2183 92.005 36.5414 92.005 36.8261C92.005 36.9294 91.9593 37.0986 91.9039 37.203Z" fill="#171A1F"/>
<path d="M160.93 37.7241C160.87 37.7614 160.821 37.8417 160.821 37.9021C160.821 37.9625 160.87 37.9812 160.93 37.9439C160.989 37.9065 161.038 37.8263 161.038 37.7658C161.038 37.7054 160.989 37.6867 160.93 37.7241Z" fill="#171A1F"/>
<path d="M161.968 36.0149C161.797 36.1589 161 37.3824 161 37.5C161 37.7 161.38 37.2974 161.539 36.982C161.639 36.7853 161.86 36.4622 162.032 36.2644C162.203 36.0655 162.343 35.8523 162.343 35.7919C162.343 35.7303 162.525 35.3984 162.749 35.0534C162.973 34.7094 163.194 34.3358 163.24 34.2237C163.285 34.1105 163.42 33.8808 163.54 33.7116C163.658 33.5423 163.756 33.3401 163.756 33.2632C163.756 33.1863 163.863 33.0083 163.992 32.8687C164.121 32.7291 164.197 32.5841 164.161 32.5467C164.074 32.4577 163.546 33.0632 163.542 33.2566C163.54 33.339 163.383 33.6358 163.193 33.916C162.328 35.1951 162.125 35.5336 162.125 35.7017C162.125 35.8017 162.055 35.9424 161.968 36.0149Z" fill="#171A1F"/>
<path d="M93.3258 32.8337C93.179 32.8337 93.092 33.1206 93.0953 33.5843C93.0975 33.8612 93.1268 33.936 93.1899 33.8228C93.3388 33.5546 93.4378 32.8337 93.3258 32.8337Z" fill="#171A1F"/>
<path d="M93.364 31.2403L93.3977 31.8964C93.4205 32.3524 93.4619 32.503 93.5314 32.3909C93.5869 32.3019 93.6336 32.1184 93.6336 31.9821C93.6347 31.826 93.7021 31.7348 93.8163 31.7348C93.9152 31.7348 94.1565 31.6117 94.3522 31.4601C94.5501 31.3073 94.8545 31.1854 95.0349 31.1854C95.2154 31.1854 95.3926 31.1359 95.4296 31.0755C95.4731 31.004 94.8327 30.9656 93.588 30.9656C92.4432 30.9656 91.679 31.0073 91.679 31.0711C91.679 31.1282 92.0584 31.1909 92.5215 31.2084L93.364 31.2403Z" fill="#171A1F"/>
<path d="M164.153 31.6128C164.191 31.7699 164.243 31.9392 164.27 31.9875C164.321 32.0787 164.632 31.9051 165.243 31.4458C165.463 31.2809 165.739 31.1853 165.995 31.1853C166.218 31.1853 166.374 31.1578 166.34 31.1238C166.232 31.015 161.69 30.9754 161.69 31.0831C161.69 31.1392 162.001 31.1853 162.382 31.1853C162.762 31.1853 163.302 31.2172 163.58 31.2556C164.009 31.315 164.095 31.3688 164.153 31.6128Z" fill="#171A1F"/>
<path d="M199.018 27.8721C200.337 28.9259 201.721 29.7831 202.504 30.0326C203.525 30.3589 204.815 30.1523 205.421 29.5644C205.69 29.3051 206.045 28.4314 206.045 28.0336C206.045 27.7864 205.293 27.0336 204.808 26.7962C204.126 26.4621 204.016 26.4929 203.934 27.0468C203.847 27.6292 203.403 28.1006 202.621 28.4413C201.698 28.8424 200.985 28.6402 199.794 27.638C199.012 26.9797 198.481 26.6995 198.322 26.86C198.137 27.0479 198.318 27.3138 199.018 27.8721Z" fill="#0F3A24"/>
<path d="M200.379 26.2698C200.601 26.6313 200.802 26.7885 201.48 27.1357C202.071 27.438 202.206 27.3962 202.453 26.8302C202.575 26.5511 202.675 26.2489 202.675 26.1599C202.675 25.9291 202.069 25.3884 201.462 25.0774C200.823 24.75 200.741 24.7478 200.601 25.0588C200.54 25.195 200.415 25.4434 200.325 25.6104C200.174 25.8918 200.178 25.9445 200.379 26.2698Z" fill="#0F3A24"/>
<path d="M235.804 36.6143C235.768 36.5769 235.673 36.5736 235.595 36.6055C235.508 36.6407 235.534 36.6659 235.661 36.6714C235.775 36.6758 235.839 36.6506 235.804 36.6143Z" fill="#171A1F"/>
<g clip-path="url(#clip0_202_82)">
<path d="M54 37.5C54 48.5457 45.0457 57.5 34 57.5C22.9543 57.5 14 48.5457 14 37.5C14 26.4543 22.9543 17.5 34 17.5C45.0457 17.5 54 26.4543 54 37.5Z" fill="#175134"/>
<path d="M29.4992 27.5002C31.169 27.5521 32.7651 28.1994 33.9992 29.3252C35.2334 28.1994 36.8295 27.5521 38.4992 27.5002C39.3918 27.4934 40.2767 27.6651 41.102 28.005C41.9272 28.345 42.6763 28.8464 43.3051 29.4799C43.9339 30.1134 44.4298 30.8661 44.7636 31.6938C45.0975 32.5216 45.2626 33.4077 45.2493 34.3002C45.2469 34.958 45.1629 35.613 44.9993 36.2502H42.1743L40.0367 33.0627C39.9167 32.8798 39.7508 32.7316 39.5556 32.6329C39.3604 32.5342 39.1427 32.4884 38.9242 32.5002C38.7063 32.5142 38.4959 32.585 38.3138 32.7056C38.1318 32.8263 37.9846 32.9925 37.8867 33.1877L35.0992 38.7502L33.7867 36.8002C33.6721 36.6306 33.5175 36.4917 33.3366 36.3958C33.1557 36.2999 32.954 36.2499 32.7492 36.2502H30.2492C29.9177 36.2502 29.5998 36.3819 29.3654 36.6163C29.1309 36.8507 28.9992 37.1687 28.9992 37.5002C28.9992 37.8317 29.1309 38.1497 29.3654 38.3841C29.5998 38.6185 29.9177 38.7502 30.2492 38.7502H32.0742L34.2117 41.9377C34.325 42.1096 34.4789 42.251 34.6599 42.3491C34.8409 42.4472 35.0434 42.4991 35.2492 42.5002H35.3242C35.5422 42.4862 35.7526 42.4154 35.9346 42.2947C36.1167 42.1741 36.2639 42.0079 36.3617 41.8127L39.1492 36.2502L40.4617 38.2002C40.5764 38.3698 40.731 38.5087 40.9119 38.6046C41.0928 38.7005 41.2945 38.7505 41.4993 38.7502H43.9993C42.5618 41.4252 39.9117 44.1877 36.2742 47.5002L35.6617 48.0627C35.2009 48.4843 34.5989 48.7181 33.9742 48.7181C33.3496 48.7181 32.7476 48.4843 32.2867 48.0627L31.6742 47.5127C26.0367 42.3252 22.7492 38.5002 22.7492 34.3002C22.7359 33.4077 22.901 32.5216 23.2349 31.6938C23.5687 30.8661 24.0646 30.1134 24.6934 29.4799C25.3222 28.8464 26.0713 28.345 26.8965 28.005C27.7218 27.6651 28.6067 27.4934 29.4992 27.5002Z" fill="white"/>
</g>
<defs>
<clipPath id="clip0_202_82">
<rect width="40" height="40" fill="white" transform="matrix(-1 0 0 1 54 17.5)"/>
</clipPath>
</defs>
</svg>
