<svg width="80" height="20" viewBox="100 -10 100 100" fill="none" xmlns="http://www.w3.org/2000/svg">
<path d="M211.44 69.8772C210.224 69.7632 209.145 69.5311 207.827 69.1C206.012 68.5072 204.763 68.0218 204.429 67.779C204.23 67.6358 203.91 67.478 203.716 67.4315C203.523 67.3838 203.365 67.291 203.365 67.226C203.365 67.161 203.298 67.1079 203.217 67.1079C203.05 67.1079 202.808 66.9342 201.201 65.657C200.57 65.1543 199.76 64.4408 199.404 64.0694C199.047 63.698 198.713 63.393 198.661 63.3917C198.383 63.385 196.494 60.8757 195.31 58.9406C193.97 56.7522 192.802 53.5492 192.485 51.1924C192.355 50.2308 192.308 50.2016 191.313 50.443C190.84 50.5584 189.753 50.6897 188.897 50.7361C186.56 50.8621 184.741 50.6274 182.055 49.8502C181.276 49.6247 181.101 49.7361 180.924 50.5677C180.525 52.4563 179.438 54.345 177.768 56.0506C175.395 58.4751 172.936 59.9433 169.831 60.7868C167.555 61.4049 165.927 61.5866 162.665 61.5839C159.141 61.5813 158.719 61.5362 152.794 60.5229C151.043 60.2231 148.464 59.6316 143.194 58.3212C133.838 55.9962 133.605 55.9498 131.092 55.9365C129.261 55.9259 128.947 55.9591 127.871 56.2801C127.215 56.475 126.436 56.7562 126.14 56.9034C125.383 57.2827 123.962 58.7642 123.535 59.621C123.225 60.2417 123.119 60.3438 122.792 60.3438C122.368 60.3438 121.49 59.7748 121.03 59.2006C120.341 58.3424 121.251 56.6461 123.046 55.4418C125.006 54.1275 126.916 53.7296 130.078 53.9803C132.025 54.1354 134.763 54.6169 136.095 55.0386C136.541 55.1806 138.214 55.6222 139.813 56.0214C141.413 56.422 143.085 56.8437 143.532 56.9618C143.978 57.0785 145.042 57.3583 145.898 57.5838C147.499 58.0056 148.217 58.1594 151.899 58.8703C158.641 60.1714 163.572 60.0825 168.356 58.5719C172.782 57.1727 176.735 53.6367 178.1 49.8528C178.312 49.2666 178.485 48.6565 178.485 48.4974C178.484 48.2798 178.159 47.9947 177.173 47.3461C176.454 46.8726 175.693 46.3249 175.485 46.1299C175.275 45.9349 175.105 45.793 175.105 45.8143C175.105 45.8713 173.794 44.7307 173.095 44.0649C172.769 43.7558 172.45 43.5357 172.384 43.5755C172.319 43.6153 172.265 43.5649 172.265 43.4641C172.265 43.2863 169.417 40.4282 169.151 40.3393C169.079 40.3141 169.02 40.2107 169.02 40.1072C169.02 40.0038 168.973 39.9189 168.916 39.9189C168.858 39.9189 168.159 39.2319 167.361 38.3923C166.182 37.1509 165.91 36.7915 165.91 36.4665C165.91 36.1548 165.99 36.0368 166.271 35.9307C166.76 35.749 167.226 35.8697 168.156 36.4188C169.205 37.0382 169.516 36.9904 169.96 36.1403C170.299 35.4877 170.304 35.4413 170.262 32.8988C170.24 31.4797 170.191 30.2701 170.153 30.2117C170.116 30.152 169.052 30.1043 167.791 30.1043C165.235 30.1043 164.926 30.034 163.926 29.2303C163.316 28.7409 163.173 28.3151 163.577 28.1957C163.707 28.1573 167.008 28.1334 170.913 28.144C176.131 28.1573 178.165 28.1188 178.586 28.0008C179.016 27.8801 179.29 27.8761 179.668 27.9849C180.02 28.0857 182.007 28.1109 186.125 28.0658C189.397 28.03 192.257 28.0061 192.48 28.014C193.245 28.0419 210.869 28.0432 211.478 28.0154C211.812 27.9995 213.342 28.0194 214.877 28.0591C217.534 28.1268 218.965 28.0154 218.306 27.7912C218.157 27.7408 217.853 27.6148 217.63 27.5114C215.933 26.7222 210.946 25.7262 205.731 25.1347C204.69 25.0166 203.534 24.8654 203.162 24.7978C202.79 24.7315 202.091 24.6108 201.607 24.5299C198.228 23.9675 194.29 22.4927 192.412 21.0881C192.153 20.8932 191.586 20.4754 191.155 20.1584C189.574 19.0005 187.582 16.535 187 15.0164C186.51 13.7378 186.161 11.7218 186.257 10.7205C186.509 8.08115 187.381 6.11028 189.158 4.15399C190.16 3.05051 190.561 2.72159 191.75 2.02794C194.32 0.526571 196.324 0.00533676 199.535 3.15789e-05C203.133 -0.0052736 205.613 0.657874 206.944 1.98284C207.51 2.54652 207.555 2.63273 207.327 2.70435C207.183 2.74812 206.765 2.69374 206.399 2.58366C203.07 1.58098 199.968 1.65392 196.63 2.81443C194.323 3.61684 192.647 4.78398 191.099 6.6713C189.73 8.33978 188.898 10.5242 188.817 12.6635C188.686 16.1198 190.508 19.3096 193.464 20.7937C193.856 20.99 194.343 21.2367 194.546 21.3401C195.487 21.8242 199.168 22.7195 200.796 22.8627C201.742 22.9449 203.718 23.1797 204.852 23.3455C205.336 23.4171 206.4 23.5683 207.218 23.6837C209.217 23.9635 211.693 24.3866 212.357 24.5604C215.293 25.3296 217.875 26.3615 219.726 27.5047L220.605 28.0485H230.611C241.744 28.0485 241.755 28.0485 244.504 27.1692C245.955 26.7063 247.049 25.8257 247.318 24.9039C247.51 24.2487 247.471 23.2765 247.23 22.6863C247.007 22.1399 246.754 21.9966 245.679 21.811C245.01 21.6956 243.797 22.0311 242.216 22.7685C241.11 23.2832 240.724 23.3972 239.912 23.445C238.998 23.498 238.87 23.4688 237.816 22.9755C236.403 22.3123 235.411 21.4502 235.012 20.5404C234.716 19.8666 234.715 19.8454 234.955 19.3228C235.203 18.7857 235.819 18.3016 236.26 18.3003C236.664 18.3003 238.022 19.0456 238.492 19.5271C238.982 20.0284 238.954 20.104 238.144 20.4184C237.692 20.5947 237.439 20.9011 237.439 21.2751C237.439 21.6054 237.883 21.5245 239.26 20.9475C240.794 20.3056 242.285 19.8998 243.128 19.8945C243.714 19.8918 245.278 20.3321 245.974 20.6955C246.677 21.0629 248.423 22.4237 248.885 22.9648C249.903 24.1572 250.29 25.8708 249.768 26.8748C249.041 28.2713 247.833 29.0048 245.282 29.5963C244.215 29.843 243.414 29.8722 234.201 29.9889C228.738 30.0579 224.245 30.1361 224.218 30.164C224.101 30.278 224.64 30.8749 225.417 31.4969C226.288 32.1932 228.657 34.7622 229.459 35.8816C231.818 39.1748 233.249 42.6113 233.788 46.2851C233.949 47.3806 233.946 50.9523 233.786 52.2534C233.333 55.8888 231.546 60.0282 229.209 62.8625C228.642 63.5508 226.223 65.9143 226.085 65.9143C226.035 65.9143 225.541 66.2472 224.99 66.6543C223.865 67.4819 222.341 68.2393 220.572 68.848C218.666 69.5059 217.477 69.7526 215.534 69.8918C213.492 70.039 213.133 70.0377 211.44 69.8772ZM213.844 67.9594C216.781 67.7127 220.548 66.2551 223.09 64.3811C224.615 63.2577 226.641 61.2364 227.674 59.8067C228.96 58.0281 230.259 55.0373 230.893 52.3914C231.411 50.2348 231.557 46.7374 231.226 44.4402C230.92 42.3195 229.693 38.7318 228.657 36.9268C228.445 36.5567 227.975 35.8511 227.616 35.3564C227.255 34.863 226.888 34.3352 226.802 34.184C226.553 33.7516 223.892 31.164 223.478 30.9518C223.274 30.847 223.106 30.6998 223.106 30.6242C223.106 30.5499 222.895 30.4027 222.637 30.2966C222.012 30.0406 213.926 30.0101 213.668 30.2634C213.345 30.5804 213.482 31.1667 213.979 31.599C214.64 32.172 214.623 32.7224 213.907 34.0248C213.285 35.1561 213.345 35.2821 214.386 35.0248C215.438 34.7649 216.93 34.6986 217.712 34.8763C219.822 35.3564 222.711 37.5368 223.867 39.521C224.829 41.1735 225.444 44.3447 225.13 46.0397C225.051 46.4761 224.963 46.9933 224.936 47.1883C224.856 47.7904 224.246 49.2931 223.766 50.0796C223.102 51.1632 221.764 52.2998 220.537 52.8171C219.534 53.2415 219.5 53.2455 217.36 53.2442C214.868 53.2428 214.186 53.1009 212.221 52.1738C210.284 51.2587 209.044 50.394 209.044 49.9563C209.044 49.7905 209.571 49.7945 209.798 49.9616C210.359 50.3754 211.699 50.9616 212.612 51.195C213.99 51.5465 216.324 51.5386 217.37 51.1778C218.729 50.7096 219.363 50.3157 220.306 49.3568C221.599 48.0411 222.346 46.2811 222.626 43.8925C222.809 42.342 222.321 39.9454 221.476 38.2451C221.131 37.5514 220.97 37.3803 220.365 37.0687C219.462 36.6031 218.134 36.4771 217.247 36.7742C215.998 37.192 213.736 39.0183 213.557 39.7544C213.509 39.9547 213.413 40.1868 213.345 40.2717C213.271 40.3658 213.275 40.4573 213.356 40.5064C213.438 40.5568 213.445 40.7266 213.373 40.9494C213.308 41.1483 213.221 41.5224 213.177 41.7797C213.134 42.037 212.912 42.4693 212.684 42.7412C212.313 43.1829 212.202 43.2346 211.637 43.2346C211.172 43.2333 210.858 43.1365 210.454 42.8699C209.118 41.9866 208.909 41.7067 208.909 40.8035C208.909 40.3406 209.01 40.074 209.379 39.5687C210.33 38.269 210.315 38.2424 209.03 38.9069C207.322 39.7902 205.293 40.3141 203.568 40.3154C202.676 40.3168 201.293 39.9759 200.454 39.5475C199.508 39.0661 198.04 37.8154 197.653 37.1615C196.983 36.0315 197.196 34.5646 198.19 33.4744C199.032 32.5526 200.725 31.6335 201.853 31.4876C202.248 31.4359 202.655 31.3125 202.755 31.2131C203.039 30.9345 203.83 30.9969 205.512 31.4306C207.183 31.863 208.744 32.5977 209.261 33.1985C209.855 33.8856 209.671 33.9651 208.423 33.558C207.009 33.0964 205.766 32.9479 204.955 33.1415C202.117 33.8206 200.183 35.2503 199.868 36.9042C199.681 37.8817 199.792 38.1695 200.413 38.334C201.515 38.6244 203.738 38.2332 205.523 37.4347C207.46 36.5686 209.531 34.94 210.57 33.4625C210.931 32.9492 210.945 32.8709 210.908 31.5486L210.869 30.1706L202.781 30.1905C198.333 30.2011 194.665 30.2369 194.631 30.2701C194.527 30.3735 194.539 45.5331 194.643 45.9243C194.765 46.3779 194.831 46.362 196.482 45.4681C197.161 45.1007 197.937 44.7134 198.208 44.606C198.478 44.4986 198.899 44.3222 199.142 44.2134C199.385 44.1047 200.275 43.9269 201.121 43.8195C202.482 43.6458 202.814 43.6458 203.992 43.8195C205.439 44.0344 206.266 44.3275 207.83 45.179C208.907 45.7652 210.583 47.1565 210.455 47.3581C210.35 47.5265 209.756 47.3674 209.111 46.9986C207.697 46.1896 206.928 45.8633 205.98 45.671C205.04 45.48 204.847 45.4814 203.768 45.675C202.252 45.9469 200.766 46.4389 199.314 47.1498C196.888 48.3369 194.91 49.3528 194.785 49.4748C194.528 49.7268 195.13 54.2774 195.637 55.9007C196.087 57.3437 197.863 60.9367 198.423 61.5375C198.593 61.7205 198.844 62.0481 198.981 62.267C199.599 63.2603 200.97 64.6927 202.064 65.4899C202.832 66.0482 203.824 66.5429 204.852 66.8772C208.441 68.0443 210.249 68.2618 213.844 67.9594ZM188.626 48.5902C190.032 48.3263 191.406 47.9005 191.76 47.6193C192.057 47.3833 192.058 47.3554 192.066 42.9203C192.073 38.8671 192.054 38.4507 191.848 38.387C191.725 38.3485 191.172 38.2955 190.622 38.269C188.315 38.1602 185.514 36.3896 184.417 34.3484C184.125 33.806 184.096 33.5938 184.103 32.0035L184.11 30.2542L182.886 30.2104C182.213 30.1865 181.617 30.1852 181.561 30.2091C181.506 30.2329 181.46 34.3246 181.46 39.3021V48.3528L182.102 48.5345C182.74 48.7162 186.234 48.9204 187.139 48.8289C187.398 48.8024 188.069 48.695 188.626 48.5902ZM178.822 46.5172C178.865 46.2798 178.884 43.9694 178.862 41.3818L178.823 36.6774L177.352 36.5182C175.522 36.3193 175.347 36.2769 174.428 35.8193C174.019 35.615 173.523 35.4095 173.325 35.363L172.964 35.2768L172.879 36.3047C172.759 37.7345 172.719 37.8658 172.261 38.379C171.924 38.7544 171.681 38.8698 170.845 39.0528C170.291 39.1735 169.804 39.3247 169.765 39.387C169.624 39.6098 173.13 43.1391 174.428 44.0808C174.838 44.3779 175.506 44.9164 175.916 45.2771C176.825 46.0782 178.17 46.9482 178.5 46.9482C178.668 46.9482 178.768 46.8156 178.822 46.5172ZM190.087 36.127C190.914 35.7225 191.629 34.9546 191.85 34.2344C191.936 33.9519 192.007 32.9691 192.007 32.05C192.007 30.534 191.982 30.3656 191.746 30.2422C191.601 30.1666 190.782 30.1043 189.924 30.1043C188.183 30.1043 188.135 30.1255 187.475 31.2316C186.268 33.2556 186.38 35.6071 187.715 36.253C188.377 36.5726 189.271 36.5262 190.087 36.127ZM175.51 34.6084C175.368 34.5142 175.554 34.4983 176.127 34.558C176.803 34.627 177.071 34.5898 177.644 34.3484C178.688 33.9081 178.891 33.4863 178.891 31.7516V30.3629L178.519 30.225C178.302 30.1441 177.348 30.103 176.226 30.1282L174.304 30.1706L173.692 30.7608C173.355 31.0844 173.022 31.5327 172.952 31.7555C172.765 32.3471 172.648 33.7277 172.769 33.8988C173.044 34.2861 174.266 34.6641 175.443 34.7278C175.667 34.7397 175.679 34.7198 175.51 34.6084ZM115.069 56.6846C114.229 56.2151 114.007 55.9976 113.634 55.2747C113.197 54.4299 113.23 54.3079 113.699 55.04C113.91 55.3689 114.367 55.8662 114.716 56.1474C115.558 56.8238 116.828 57.0559 117.841 56.7164C118.617 56.4578 118.837 56.54 118.137 56.8278C117.849 56.9445 117.239 57.0281 116.662 57.0268C115.854 57.0254 115.568 56.9631 115.069 56.6846ZM118.953 56.2164C119.045 56.1249 119.155 56.0851 119.197 56.1249C119.237 56.166 119.163 56.2403 119.029 56.2907C118.837 56.3623 118.821 56.3464 118.953 56.2164ZM119.666 55.4524C119.666 55.3795 119.727 55.2827 119.801 55.2376C119.876 55.1925 119.937 55.215 119.937 55.288C119.937 55.3609 119.876 55.4578 119.801 55.5028C119.727 55.5479 119.666 55.5254 119.666 55.4524ZM119.989 54.7973C120.123 54.5837 119.531 53.849 119.072 53.6606C118.388 53.3808 118.131 52.9206 118.21 52.1168C118.286 51.3462 118.569 50.9802 119.232 50.8011C119.782 50.6513 120.388 50.8502 120.815 51.321C121.327 51.8821 121.098 53.7853 120.43 54.5413C120.135 54.8755 119.827 55.0546 119.989 54.7973ZM113.258 54.0333C113.013 53.4086 113.477 51.1791 113.788 51.4828C113.836 51.5293 113.807 51.6911 113.725 51.8409C113.468 52.3105 113.315 53.3954 113.442 53.833C113.564 54.2495 113.408 54.4179 113.258 54.0333ZM113.987 50.8025C113.987 50.7335 114.045 50.642 114.117 50.5995C114.187 50.5558 114.217 50.4457 114.18 50.3542C114.145 50.2627 114.224 50.0717 114.356 49.9271C114.612 49.6499 115.113 48.9178 115.601 48.1087C115.766 47.8355 115.926 47.6114 115.957 47.6114C116.041 47.6114 115.58 48.5637 115.293 48.9814C115.151 49.187 114.86 49.7096 114.647 50.142C114.303 50.8383 113.987 51.1553 113.987 50.8025ZM116.15 47.0968C116.15 47.0238 116.211 46.927 116.286 46.8819C116.36 46.8368 116.421 46.8594 116.421 46.9323C116.421 47.0053 116.36 47.1021 116.286 47.1472C116.211 47.1923 116.15 47.1697 116.15 47.0968ZM116.562 46.4482C116.556 46.2904 117.332 44.976 117.935 44.1219C118.476 43.3553 118.419 43.033 117.403 41.1033C115.826 38.1125 114.923 36.4453 114.39 35.5421C114.11 35.0686 113.541 34.0036 113.124 33.176C112.245 31.4332 110.922 29.083 110.626 28.7395C110.411 28.4915 109.346 27.9822 109.042 27.9822C108.945 27.9822 108.83 27.9265 108.788 27.8589C108.741 27.7859 110.267 27.7315 112.633 27.7236C115.239 27.7143 116.556 27.7554 116.556 27.8456C116.556 27.9239 116.218 27.9822 115.77 27.9822C114.975 27.9822 114.575 28.1507 114.512 28.5127C114.456 28.8324 114.664 29.5419 114.862 29.7024C114.961 29.7833 115.078 29.9916 115.123 30.1653C115.167 30.339 115.607 31.1879 116.1 32.05C116.594 32.9134 117.542 34.6641 118.207 35.94C119.904 39.1974 120.11 39.4586 120.722 39.1364C120.945 39.0196 121.636 38.082 122.439 36.8047C122.873 36.1151 122.796 36.6416 122.338 37.4957C122.096 37.9467 121.129 39.5568 120.189 41.0741C119.251 42.59 118.349 44.0635 118.187 44.3474C117.93 44.797 117.6 45.2625 116.77 46.3514C116.653 46.5039 116.566 46.545 116.562 46.4482ZM4.12408 45.4349C2.62995 45.0331 2.0688 44.7134 1.26427 43.8062C0.229867 42.6391 0 42.1431 0 41.0754C0 40.025 0.231219 39.4838 0.807239 39.1921C1.35351 38.9149 1.68209 38.9387 2.09585 39.2889C2.62319 39.7332 2.60155 40.5475 2.04446 41.3088C1.20883 42.4494 1.61853 43.5967 3.18569 44.5039C3.92937 44.9349 5.51816 45.4893 6.01711 45.492C6.24021 45.492 6.51335 45.5517 6.62558 45.6219C7.0123 45.8673 5.23826 45.7347 4.12408 45.4349ZM64.5778 45.6405C64.5372 45.5782 64.2357 45.4906 63.9071 45.4455C62.2588 45.2241 60.3144 43.7094 59.8357 42.2757C59.1245 40.143 60.3306 38.2026 61.7085 39.265C62.006 39.4945 62.0641 39.647 62.0641 40.1855C62.0641 40.7173 61.9924 40.907 61.6584 41.2664C60.9783 41.9972 61.1284 43.102 62.0181 43.9177C62.4846 44.346 64.1545 45.2241 64.5007 45.2241C64.64 45.2241 64.79 45.2837 64.836 45.3567C64.882 45.4296 65.1741 45.4933 65.4864 45.4986C66.5479 45.5158 66.6682 45.7347 65.6216 45.7453C65.0862 45.7506 64.617 45.7029 64.5778 45.6405ZM6.42275 45.3567C6.27402 45.2943 5.95761 45.2386 5.72098 45.2333C5.483 45.228 5.25179 45.1644 5.20581 45.0914C5.09088 44.9097 6.2605 44.919 6.44574 45.1007C6.54851 45.2015 6.73781 45.1816 7.09748 45.0344C7.37738 44.9203 7.71136 44.8262 7.84117 44.8262C7.97098 44.8262 8.23059 44.7068 8.41989 44.5609C8.6092 44.415 8.85529 44.2957 8.96752 44.2957C9.26499 44.2957 10.3684 43.0357 10.555 42.4826C10.7848 41.7996 10.6266 40.7757 10.1966 40.1682C9.66523 39.4149 8.80932 38.948 6.25374 38.0117C3.14918 36.875 1.83894 36.184 1.18449 35.3378C0.308292 34.2025 0.233923 33.9545 0.301531 32.3749C0.373196 30.7157 0.699066 29.8881 1.71589 28.778C2.70297 27.701 3.38175 27.4345 5.35455 27.3509C7.30031 27.2687 7.96962 27.4 9.09056 28.079C9.80856 28.5127 9.91944 28.5419 10.3481 28.4133L10.8173 28.2727L10.7902 30.4146C10.7754 31.5937 10.7429 32.1096 10.7186 31.5632C10.6929 30.9849 10.6036 30.5128 10.5063 30.4359C10.4143 30.3629 10.1317 29.9637 9.87752 29.5472C9.34748 28.6785 8.48345 28.0578 7.39631 27.766C6.05632 27.4053 3.90639 27.7806 2.95852 28.5406C2.07016 29.2528 1.79161 30.4571 2.29461 31.4213C2.8517 32.4929 4.04566 33.1999 7.1394 34.2887C9.93837 35.2742 11.6245 36.5169 12.0342 37.9003C12.352 38.9706 12.3587 40.2279 12.0504 41.2226C11.8909 41.7385 11.7016 42.1961 11.6299 42.2386C11.5596 42.2823 11.4028 42.5211 11.2824 42.7704C10.7862 43.7943 9.2988 44.862 7.69784 45.3434C7.13669 45.5132 6.80001 45.5158 6.42275 45.3567ZM65.7487 45.301C64.429 45.1365 64.4601 44.8938 65.7866 45.0039C66.3464 45.0503 66.9089 45.0344 67.0373 44.9668C67.1658 44.9004 67.562 44.736 67.9203 44.6034C68.2773 44.4707 68.8371 44.1126 69.1629 43.8076C70.2785 42.7651 70.5678 41.7134 70.0581 40.5595C69.5524 39.4175 68.902 39.0541 64.7684 37.6098C63.4027 37.1337 61.7409 36.253 61.1554 35.6959C60.8634 35.4174 60.4618 34.8697 60.2617 34.4771C59.9601 33.8816 59.9006 33.5911 59.9006 32.6892C59.9006 31.5247 60.1603 30.4465 60.62 29.7064C61.1122 28.9119 61.9559 28.1056 62.6672 27.7501C63.2689 27.4477 63.5542 27.4013 65.1065 27.3482C67.0603 27.2819 67.8581 27.4199 68.3584 27.9106C68.5315 28.0804 68.6991 28.1931 68.7316 28.1613C68.764 28.1294 69.0115 28.2316 69.2819 28.3881L69.7741 28.6732L69.9756 28.1997C70.0865 27.9384 70.177 27.6639 70.177 27.5883C70.177 27.5127 70.2379 27.4517 70.3123 27.4517C70.3975 27.4517 70.4475 28.4491 70.4475 30.1786C70.4475 31.9624 70.4002 32.8762 70.3123 32.8232C70.2379 32.7781 70.177 32.2131 70.177 31.5659C70.177 30.351 70.0986 29.9226 69.8971 30.0446C69.8322 30.0831 69.6957 29.9173 69.5929 29.6759C69.4252 29.2846 69.213 29.0698 68.0298 28.1029C67.8527 27.9583 67.6823 27.8655 67.6499 27.8973C67.6174 27.9278 67.2861 27.8748 66.9116 27.778C66.1409 27.579 64.6034 27.6201 63.8503 27.8602C63.1999 28.0671 62.0425 28.961 61.8342 29.4159C61.6071 29.912 61.6192 30.9717 61.8572 31.4226C62.1344 31.9478 63.1864 32.8245 64.0085 33.2158C64.3898 33.3962 65.4634 33.8073 66.3951 34.1283C68.3422 34.798 69.021 35.1164 69.9756 35.8087C71.3764 36.8233 71.87 37.814 71.8605 39.5926C71.8551 40.6046 71.7942 40.9335 71.463 41.7147C71.248 42.2227 70.9613 42.7452 70.8274 42.8752C70.6922 43.0052 70.5827 43.163 70.5827 43.224C70.5827 43.4256 69.6511 44.2307 68.9033 44.675C67.9014 45.2705 66.9778 45.4535 65.7487 45.301ZM69.2305 28.778C69.2305 28.705 69.1656 28.6454 69.0872 28.6454C69.0088 28.6454 68.9817 28.705 69.0277 28.778C69.0737 28.8509 69.1386 28.9106 69.171 28.9106C69.2035 28.9106 69.2305 28.8509 69.2305 28.778ZM46.5589 45.2294C45.4271 44.9654 44.2251 43.9641 43.6856 42.8381C43.38 42.1975 43.3367 41.9348 43.3367 40.7147C43.3367 39.0634 43.5787 38.3021 44.3724 37.4573C45.0418 36.745 46.1762 36.2729 49.151 35.4665C50.4152 35.123 51.5713 34.7967 51.7201 34.7397C51.8688 34.6827 52.2028 34.5686 52.4624 34.4877C53.8349 34.058 54.4596 33.0672 54.3189 31.5446C54.2175 30.4412 53.5766 29.1547 52.9154 28.7263C51.7228 27.9544 50.6478 27.8085 49.4349 28.2541C48.0273 28.77 47.2106 30.29 47.7988 31.298C47.911 31.4903 47.9935 31.9969 47.9962 32.5022C48.0016 33.2582 47.9584 33.4147 47.6717 33.6773C47.4662 33.867 47.1092 34.0076 46.7211 34.05C46.133 34.115 46.0735 34.0911 45.5637 33.5646C45.1229 33.1097 45.0242 32.9121 45.012 32.4532C44.9863 31.5035 45.0391 31.2542 45.4109 30.5685C45.9247 29.6202 46.8415 28.7793 47.934 28.2515C48.8684 27.8018 48.9049 27.7952 50.706 27.7899C52.4624 27.7833 52.5611 27.7979 53.3129 28.1719C54.3027 28.6639 55.3817 29.6069 55.7373 30.2913C56.573 31.8974 56.5608 31.8006 56.646 38.1416C56.7041 42.5171 56.765 44.0397 56.8907 44.1882C56.984 44.2983 57.3031 44.4946 57.6006 44.6272C57.8994 44.7585 58.1428 44.9018 58.1428 44.9455C58.1415 45.0583 54.9463 45.1233 54.3419 45.0225C53.7659 44.927 53.5523 44.5728 53.4846 43.6033C53.463 43.2784 53.3373 42.8898 53.2075 42.7399C52.9708 42.4693 52.9627 42.4746 52.169 43.2691C51.7295 43.7108 51.3158 44.1697 51.2509 44.289C51.1846 44.4084 50.7533 44.6975 50.2908 44.9309C49.5174 45.3235 49.3538 45.3554 48.2193 45.3434C47.5419 45.3355 46.7942 45.2851 46.5589 45.2294ZM50.0258 44.419C50.9953 43.9879 51.4537 43.5688 52.2325 42.4044C53.1845 40.9826 53.4103 40.0422 53.4103 37.5063C53.4103 36.4851 53.3481 35.5421 53.2697 35.4002C53.079 35.0514 52.5544 35.0713 51.1319 35.4811C48.7845 36.1588 47.5581 37.0156 46.8672 38.4599C46.6333 38.948 46.5819 39.3088 46.5819 40.4494C46.5819 41.6722 46.6251 41.9309 46.9321 42.5715C47.3445 43.4309 47.8962 44.1047 48.4695 44.4468C48.9901 44.7585 49.274 44.7532 50.0258 44.419ZM78.8403 45.0874C77.9763 44.7837 77.1177 44.228 76.9094 43.8407C76.8283 43.6895 76.7188 43.5357 76.6647 43.4999C76.4497 43.3527 75.9616 42.1961 75.825 41.5104C75.7385 41.0728 75.6614 38.127 75.633 34.1495C75.6073 30.5022 75.5532 27.3761 75.5113 27.2037C75.4424 26.9132 75.3923 26.896 74.869 26.9822C73.3141 27.2395 73.3452 27.2395 73.5358 27.0127C73.7224 26.7925 74.7582 26.258 74.9988 26.258C75.0759 26.258 75.2544 26.1307 75.3964 25.9742C75.537 25.819 75.9021 25.5352 76.2077 25.3442C76.7999 24.9742 78.2319 23.4702 78.4644 22.9755C78.8309 22.1916 78.962 22.7951 78.9647 25.2898L78.9661 27.3071L79.6084 27.5896C80.1087 27.8111 80.4224 27.8589 81.0281 27.8071C81.9611 27.7289 82.0788 27.9331 81.1633 28.0419C80.8104 28.083 80.1871 28.2209 79.7787 28.3483C79.0729 28.5671 79.031 28.6056 78.9417 29.1096C78.6875 30.53 78.8768 41.0422 79.1838 42.5715C79.4055 43.6723 80.3372 44.4853 81.7029 44.7678C82.168 44.8633 82.7629 45.0331 83.0226 45.1445C83.4742 45.3368 83.4079 45.3461 81.5352 45.3461C79.9302 45.3474 79.4407 45.2997 78.8403 45.0874ZM134.233 45.0437C133.208 44.6206 132.639 44.1803 132.121 43.4137C131.529 42.5357 131.361 41.8924 131.369 40.5157C131.376 39.4892 131.428 39.2146 131.753 38.5541C132.441 37.1549 133.29 36.5952 135.824 35.8697C137.437 35.4081 137.863 35.2835 138.519 35.0832C138.886 34.9705 139.289 34.879 139.413 34.879C139.765 34.879 141.046 34.3418 141.537 33.9877C142.266 33.4638 142.427 33.0076 142.35 31.6813C142.239 29.7873 141.586 28.8363 139.993 28.2488C139.12 27.9278 138.352 27.9544 137.332 28.3403C135.895 28.8854 135.477 29.916 135.977 31.6826C136.361 33.0367 135.947 33.8975 134.845 34.0421C134.387 34.1031 134.245 34.054 133.826 33.6932C132.955 32.9439 132.863 32.0433 133.511 30.6215C133.837 29.9067 134.24 29.4677 135.305 28.6666C136.123 28.0512 136.855 27.8469 138.549 27.7581C139.778 27.6931 140.19 27.7209 140.78 27.9093C141.706 28.2064 142.781 28.9557 143.368 29.7104C144.674 31.3961 144.809 32.2542 144.814 38.8738C144.816 43.6723 144.827 43.8752 145.089 44.2015C145.238 44.3885 145.573 44.61 145.833 44.6949C146.753 44.992 146.191 45.114 144.294 45.0278C143.28 44.9813 142.309 44.9164 142.136 44.8805C141.74 44.7996 141.436 44.1126 141.436 43.2969V42.6882L140.93 42.7293C140.549 42.7598 140.412 42.8354 140.377 43.0357C140.305 43.4322 139.305 44.3872 138.461 44.8646C137.784 45.2466 137.598 45.2877 136.365 45.3249C135.182 45.3607 134.916 45.3249 134.233 45.0437ZM138.258 44.3739C139.412 43.8314 140.232 42.9097 140.987 41.3115C141.352 40.5383 141.364 40.4401 141.409 37.83L141.456 35.1442H140.914C140.342 35.1442 138.7 35.6071 137.264 36.1734C136.59 36.4387 136.29 36.6562 135.858 37.1867C134.931 38.3313 134.645 39.0966 134.649 40.4268C134.655 42.1245 135.277 43.5543 136.337 44.3089C136.994 44.7758 137.375 44.7877 138.258 44.3739ZM21.8293 45.0012C21.6007 44.9561 21.4682 44.667 21.095 43.3951C20.8462 42.541 20.5352 41.5741 20.4041 41.2452C20.2743 40.9162 19.7591 39.2756 19.2588 37.5979C18.7599 35.9201 17.9323 33.2635 17.4199 31.6958C16.5978 29.1746 16.4355 28.7939 16.0217 28.4133C15.6012 28.026 15.4714 27.9822 14.7399 27.9822C14.2883 27.9822 13.9272 27.9239 13.9272 27.8496C13.9272 27.7634 15.4403 27.717 18.1947 27.717C21.0044 27.717 22.4337 27.7621 22.3782 27.8496C22.3323 27.9225 22.024 27.9822 21.694 27.9822C21.2641 27.9822 21.0126 28.0618 20.8084 28.2621C20.4473 28.6162 20.4987 28.9822 21.2275 31.1879C21.5237 32.0871 21.7671 32.8895 21.7684 32.9717C21.7684 33.054 22.0334 33.9187 22.3566 34.8949C22.6798 35.871 23.0516 37.0275 23.1828 37.4652C23.3153 37.9029 23.4816 38.456 23.5533 38.6934C23.6249 38.9308 23.7993 39.1854 23.9386 39.2584C24.2631 39.4295 24.4308 39.1443 24.6228 38.0952C24.7905 37.1734 25.0312 36.4705 25.1772 36.4705C25.3381 36.4705 25.3084 37.1098 25.1326 37.4307C25.0487 37.5846 24.8716 38.1324 24.7405 38.6483C24.6079 39.1642 24.3335 40.1245 24.1306 40.781C23.9265 41.4375 23.7006 42.2134 23.6276 42.5051C23.5546 42.7969 23.4113 43.2771 23.3085 43.5702C23.2058 43.8646 23.1219 44.2346 23.1219 44.3925C23.1219 44.549 22.9867 44.7718 22.8217 44.8845C22.5243 45.0888 22.3728 45.1073 21.8293 45.0012ZM33.3456 44.9813C33.255 44.8394 32.7412 43.2519 32.1976 41.4415C31.6365 39.5727 30.7805 36.8206 30.1558 34.879C29.4433 32.6654 28.8388 30.6905 28.6698 30.026C28.5941 29.7276 28.4075 29.3735 28.2561 29.2395C27.9978 29.0101 27.9667 29.0088 27.7531 29.2183C27.6273 29.3417 27.5191 29.5831 27.511 29.7541C27.5043 29.9266 27.4326 30.2396 27.3528 30.4505C27.273 30.6613 26.9539 31.6388 26.6443 32.6243C25.6856 35.6747 25.6288 35.8405 25.4517 36.0594C25.307 36.2397 25.2921 36.2119 25.357 35.8737C25.4706 35.2821 25.6478 34.627 25.8952 33.8842C26.0155 33.5195 26.1643 32.993 26.2251 32.7131C26.2846 32.4333 26.4023 32.1388 26.4861 32.0566C26.5699 31.9744 26.6375 31.7555 26.6389 31.5698C26.6389 31.3842 26.7295 31.0619 26.8404 30.8536C26.9512 30.6454 27.0107 30.4253 26.9729 30.3656C26.935 30.3046 26.9593 30.2223 27.0256 30.1812C27.0932 30.1401 27.2555 29.6732 27.3853 29.1441C27.7585 27.6215 27.6138 27.717 29.5406 27.717C30.4628 27.717 31.3647 27.7713 31.5445 27.839C31.8231 27.9424 31.984 28.2926 32.6262 30.1932C33.0414 31.4213 33.5417 32.9625 33.7377 33.619C34.5247 36.2464 35.436 38.952 35.6118 39.1894C35.7889 39.4268 35.8092 39.4175 36.0188 39.0223C36.1392 38.7928 36.2379 38.5117 36.2379 38.395C36.2379 38.2796 36.3339 38.0408 36.4529 37.8644C36.5705 37.688 36.6273 37.4811 36.58 37.4042C36.5313 37.3286 36.5529 37.2663 36.6273 37.2663C36.8355 37.2663 36.9369 37.5024 36.772 37.6018C36.6908 37.6509 36.6543 37.7676 36.6908 37.8605C36.7273 37.9533 36.6773 38.1814 36.5786 38.3671C36.4799 38.5541 36.3393 38.9639 36.2649 39.2796C36.1919 39.5953 35.8444 40.8075 35.4928 41.9746C35.1399 43.1418 34.8235 44.2293 34.787 44.3911C34.7505 44.553 34.6518 44.7386 34.5666 44.8049C34.334 44.9853 33.4294 45.1166 33.3456 44.9813ZM85.3212 44.793C85.3212 44.6034 85.4429 44.5609 85.9973 44.5609C86.3691 44.5609 86.6734 44.614 86.6734 44.679C86.6734 44.7466 86.8951 44.7426 87.1913 44.6683C88.2189 44.4137 88.1608 45.1153 88.1608 32.9784C88.1608 23.3256 88.1378 22.1425 87.9485 21.9569C87.5969 21.6133 87.0953 21.7062 86.5787 22.2128C86.1447 22.6386 85.8621 22.7911 85.8621 22.6014C85.8621 22.5603 86.0595 22.3362 86.3015 22.1041C86.5436 21.872 87.2954 21.0974 87.9728 20.3839L89.2033 19.0841L90.2715 19.1239L91.3383 19.1623L91.3735 23.7964C91.4127 28.8894 91.4168 28.9106 92.2348 28.9106C92.654 28.9106 93.6546 28.5658 93.975 28.3098C94.0873 28.2209 94.5132 28.0432 94.9216 27.9159C95.3299 27.7873 95.7342 27.6294 95.818 27.5644C96.0371 27.3947 99.477 27.4066 100.176 27.579C101.319 27.8615 102.855 28.8297 103.368 29.5923C103.563 29.8801 103.78 30.4266 103.851 30.8059C103.923 31.1865 103.996 34.2728 104.015 37.6642C104.039 42.2094 104.092 43.9057 104.214 44.1126C104.48 44.5689 105.222 44.85 105.713 44.6829C106.189 44.5198 106.846 44.5649 106.912 44.7638C106.94 44.8421 106.65 44.9283 106.247 44.9628C105.326 45.0437 98.0031 44.9575 97.849 44.8633C97.5826 44.7028 98.164 44.5649 99.1241 44.5636C100.018 44.5609 100.186 44.5224 100.442 44.2545L100.736 43.9468V36.8909C100.736 29.9703 100.73 29.8244 100.448 29.2356C99.6785 27.6294 97.6462 27.3032 94.854 28.3377C93.4599 28.8536 92.4376 29.7051 91.8346 30.8523L91.4059 31.6667V37.7331C91.4059 43.5794 91.4154 43.8155 91.6777 44.232C91.9766 44.7055 92.3998 44.8819 92.7716 44.6869C93.0718 44.5291 94.3807 44.5211 94.3807 44.6776C94.3807 44.9389 93.299 45.0132 89.4115 45.0198C85.6038 45.0251 85.3212 45.0092 85.3212 44.793ZM82.986 44.8633C82.5398 44.797 82.6277 44.5609 83.0983 44.5609C83.3011 44.5609 83.4282 44.6378 83.4282 44.7599C83.4282 44.8686 83.4133 44.9495 83.3944 44.9389C83.3755 44.9283 83.1916 44.8938 82.986 44.8633ZM36.6435 36.9931C36.6435 36.7928 37.0451 35.5209 37.1938 35.245C37.2628 35.119 37.3196 34.9148 37.3196 34.7901C37.3196 34.4466 37.8807 32.8497 38.0863 32.6136C38.185 32.4983 38.2364 32.3736 38.1985 32.3364C38.0917 32.2317 38.4121 31.4306 38.5609 31.4306C38.7258 31.4306 38.6123 31.9996 38.2039 33.2211C37.6428 34.8975 37.2182 36.2649 37.1222 36.7026C37.0356 37.0939 36.6435 37.3326 36.6435 36.9931ZM122.911 36.0885C122.911 36.0156 122.972 35.9188 123.046 35.8737C123.121 35.8286 123.182 35.8511 123.182 35.9241C123.182 35.997 123.121 36.0938 123.046 36.1389C122.972 36.184 122.911 36.1615 122.911 36.0885ZM123.317 35.3219C123.317 35.18 124.125 33.985 124.338 33.8113C124.446 33.7238 124.534 33.554 124.534 33.4333C124.534 33.2304 124.785 32.8219 125.862 31.2781C126.098 30.9399 126.293 30.5818 126.296 30.4823C126.301 30.2489 126.957 29.5181 127.065 29.6255C127.111 29.6706 127.016 29.8457 126.855 30.0141C126.695 30.1825 126.562 30.3974 126.562 30.4902C126.562 30.5831 126.44 30.8271 126.293 31.0314C126.144 31.2356 125.977 31.5128 125.92 31.6494C125.863 31.7847 125.589 32.2356 125.31 32.6508C125.031 33.0672 124.804 33.4678 124.804 33.542C124.804 33.615 124.63 33.8723 124.418 34.1124C124.204 34.3511 123.929 34.741 123.805 34.9784C123.606 35.3591 123.317 35.5633 123.317 35.3219ZM38.6758 30.8775C38.6717 30.3178 38.7799 29.9717 38.9625 29.9717C39.1017 29.9717 38.9787 30.8417 38.7934 31.1653C38.715 31.3019 38.6785 31.2117 38.6758 30.8775ZM39.0517 28.8403L39.0098 28.0485L37.9619 28.0101C37.3858 27.9888 36.9139 27.9132 36.9139 27.8443C36.9139 27.7674 37.8645 27.717 39.2883 27.717C40.8366 27.717 41.633 27.7634 41.5789 27.8496C41.5329 27.9225 41.3125 27.9822 41.0881 27.9822C40.8636 27.9822 40.485 28.1294 40.2389 28.3138C39.9955 28.4968 39.6953 28.6454 39.5723 28.6454C39.4303 28.6454 39.3465 28.7554 39.3451 28.9438C39.3451 29.1082 39.287 29.3297 39.218 29.4372C39.1315 29.5724 39.0801 29.3907 39.0517 28.8403ZM127.202 28.9504C127.168 28.8921 127.103 28.6878 127.056 28.4981C126.984 28.2037 126.877 28.1387 126.343 28.0671C125.997 28.0207 125.326 27.9822 124.853 27.9822C124.38 27.9822 123.993 27.9265 123.993 27.8589C123.993 27.7289 129.642 27.7766 129.776 27.9079C129.818 27.9491 129.625 27.9822 129.348 27.9822C129.028 27.9822 128.685 28.0976 128.412 28.2965C127.652 28.8509 127.265 29.0605 127.202 28.9504ZM174.756 26.5909C173.782 26.2899 172.061 25.2554 170.421 23.9834C169.55 23.3097 169.324 22.9887 169.555 22.7619C169.753 22.5683 170.413 22.9065 171.386 23.7009C172.867 24.9105 173.754 25.1546 174.902 24.6705C175.874 24.2593 176.427 23.6903 176.535 22.9874C176.637 22.3189 176.773 22.2818 177.622 22.685C178.225 22.9715 179.161 23.88 179.161 24.1784C179.161 24.6585 178.719 25.7129 178.385 26.0259C177.63 26.7355 176.027 26.9848 174.756 26.5909ZM173.482 23.0948C172.64 22.6757 172.389 22.486 172.114 22.0497C171.863 21.6571 171.858 21.5935 172.046 21.2539C172.158 21.0523 172.314 20.7526 172.389 20.5881C172.564 20.2128 172.665 20.2154 173.46 20.6107C174.215 20.986 174.969 21.6385 174.969 21.9171C174.969 22.0245 174.845 22.3892 174.692 22.7261C174.385 23.4091 174.218 23.4595 173.482 23.0948ZM215.914 34.5235C216.011 34.485 216.129 34.489 216.174 34.5341C216.218 34.5779 216.139 34.6084 215.997 34.6031C215.838 34.5965 215.806 34.5659 215.914 34.5235Z" fill="black"/>
</svg>
