<svg xmlns="http://www.w3.org/2000/svg" xmlns:xlink="http://www.w3.org/1999/xlink" version="1.1" width="256" height="256" viewBox="0 0 256 256" xml:space="preserve">

<defs>
</defs>
<g style="stroke: none; stroke-width: 0; stroke-dasharray: none; stroke-linecap: butt; stroke-linejoin: miter; stroke-miterlimit: 10; fill: none; fill-rule: nonzero; opacity: 1;" transform="translate(1.4065934065934016 1.4065934065934016) scale(2.81 2.81)" >
	<path d="M 45 3 c 7.785 0 14.118 6.333 14.118 14.118 v 6.139 c 0 7.785 -6.333 14.118 -14.118 14.118 c -7.785 0 -14.118 -6.333 -14.118 -14.118 v -6.139 C 30.882 9.333 37.215 3 45 3 M 45 0 L 45 0 c -9.415 0 -17.118 7.703 -17.118 17.118 v 6.139 c 0 9.415 7.703 17.118 17.118 17.118 h 0 c 9.415 0 17.118 -7.703 17.118 -17.118 v -6.139 C 62.118 7.703 54.415 0 45 0 L 45 0 z" style="stroke: none; stroke-width: 1; stroke-dasharray: none; stroke-linecap: butt; stroke-linejoin: miter; stroke-miterlimit: 10; fill: rgb(0,0,0); fill-rule: nonzero; opacity: 1;" transform=" matrix(1 0 0 1 0 0) " stroke-linecap="round" />
	<path d="M 56.2 46.09 c 10.592 2.542 18.391 12.261 18.391 23.257 V 87 H 15.409 V 69.346 c 0 -10.996 7.799 -20.714 18.391 -23.257 l 8.932 10.314 L 45 59.022 l 2.268 -2.619 L 56.2 46.09 M 55.078 42.803 L 45 54.44 L 34.922 42.803 c -12.728 2.118 -22.513 13.239 -22.513 26.544 v 17.707 c 0 1.621 1.326 2.946 2.946 2.946 h 59.29 c 1.621 0 2.946 -1.326 2.946 -2.946 V 69.346 C 77.591 56.042 67.805 44.921 55.078 42.803 L 55.078 42.803 z" style="stroke: none; stroke-width: 1; stroke-dasharray: none; stroke-linecap: butt; stroke-linejoin: miter; stroke-miterlimit: 10; fill: rgb(0,0,0); fill-rule: nonzero; opacity: 1;" transform=" matrix(1 0 0 1 0 0) " stroke-linecap="round" />
	<path d="M 60.118 82.338 c -0.828 0 -1.5 -0.672 -1.5 -1.5 V 66.782 c 0 -0.828 0.672 -1.5 1.5 -1.5 s 1.5 0.672 1.5 1.5 v 14.056 C 61.618 81.666 60.946 82.338 60.118 82.338 z" style="stroke: none; stroke-width: 1; stroke-dasharray: none; stroke-linecap: butt; stroke-linejoin: miter; stroke-miterlimit: 10; fill: rgb(0,0,0); fill-rule: nonzero; opacity: 1;" transform=" matrix(1 0 0 1 0 0) " stroke-linecap="round" />
	<path d="M 67.146 75.311 H 53.091 c -0.828 0 -1.5 -0.672 -1.5 -1.5 s 0.672 -1.5 1.5 -1.5 h 14.055 c 0.828 0 1.5 0.672 1.5 1.5 S 67.974 75.311 67.146 75.311 z" style="stroke: none; stroke-width: 1; stroke-dasharray: none; stroke-linecap: butt; stroke-linejoin: miter; stroke-miterlimit: 10; fill: rgb(0,0,0); fill-rule: nonzero; opacity: 1;" transform=" matrix(1 0 0 1 0 0) " stroke-linecap="round" />
</g>
</svg>