<svg width="40" height="41" viewBox="0 0 40 41" fill="none" xmlns="http://www.w3.org/2000/svg">
<g clip-path="url(#clip0_54_104)">
<path d="M40 20.5C40 31.5457 31.0457 40.5 20 40.5C8.9543 40.5 0 31.5457 0 20.5C0 9.45431 8.9543 0.5 20 0.5C31.0457 0.5 40 9.45431 40 20.5Z" fill="#175134"/>
<path d="M15.4992 10.5002C17.169 10.5521 18.7651 11.1994 19.9992 12.3252C21.2334 11.1994 22.8295 10.5521 24.4992 10.5002C25.3918 10.4934 26.2767 10.6651 27.102 11.005C27.9272 11.345 28.6763 11.8464 29.3051 12.4799C29.9339 13.1134 30.4298 13.8661 30.7636 14.6938C31.0975 15.5216 31.2626 16.4077 31.2493 17.3002C31.2469 17.958 31.1629 18.613 30.9993 19.2502H28.1743L26.0367 16.0627C25.9167 15.8798 25.7508 15.7316 25.5556 15.6329C25.3604 15.5342 25.1427 15.4884 24.9242 15.5002C24.7063 15.5142 24.4959 15.585 24.3138 15.7056C24.1318 15.8263 23.9846 15.9925 23.8867 16.1877L21.0992 21.7502L19.7867 19.8002C19.6721 19.6306 19.5175 19.4917 19.3366 19.3958C19.1557 19.2999 18.954 19.2499 18.7492 19.2502L16.2492 19.2502C15.9177 19.2502 15.5998 19.3819 15.3654 19.6163C15.1309 19.8507 14.9992 20.1687 14.9992 20.5002C14.9992 20.8317 15.1309 21.1497 15.3654 21.3841C15.5998 21.6185 15.9177 21.7502 16.2492 21.7502L18.0742 21.7502L20.2117 24.9377C20.325 25.1096 20.4789 25.251 20.6599 25.3491C20.8409 25.4472 21.0434 25.4991 21.2492 25.5002H21.3242C21.5422 25.4862 21.7526 25.4154 21.9346 25.2947C22.1167 25.1741 22.2639 25.0079 22.3617 24.8127L25.1492 19.2502L26.4617 21.2002C26.5764 21.3698 26.731 21.5087 26.9119 21.6046C27.0928 21.7005 27.2945 21.7505 27.4993 21.7502H29.9993C28.5618 24.4252 25.9117 27.1877 22.2742 30.5002L21.6617 31.0627C21.2009 31.4843 20.5989 31.7181 19.9742 31.7181C19.3496 31.7181 18.7476 31.4843 18.2867 31.0627L17.6742 30.5127C12.0367 25.3252 8.7492 21.5002 8.7492 17.3002C8.7359 16.4077 8.901 15.5216 9.2349 14.6938C9.5687 13.8661 10.0646 13.1134 10.6934 12.4799C11.3222 11.8464 12.0713 11.345 12.8965 11.005C13.7218 10.6651 14.6067 10.4934 15.4992 10.5002Z" fill="white"/>
</g>
<defs>
<clipPath id="clip0_54_104">
<rect width="40" height="40" fill="white" transform="matrix(-1 0 0 1 40 0.5)"/>
</clipPath>
</defs>
</svg>
